M48
; DRILL file {KiCad 8.0.4} date 2025-03-04T01:00:23-0600
; FORMAT={-:-/ absolute / inch / decimal}
; #@! TF.CreationDate,2025-03-04T01:00:23-06:00
; #@! TF.GenerationSoftware,Kicad,Pcbnew,8.0.4
; #@! TF.FileFunction,Plated,1,2,PTH
FMAT,2
INCH
; #@! TA.AperFunction,Plated,PTH,ViaDrill
T1C0.0118
; #@! TA.AperFunction,Plated,PTH,ComponentDrill
T2C0.0276
; #@! TA.AperFunction,Plated,PTH,ComponentDrill
T3C0.0299
; #@! TA.AperFunction,Plated,PTH,ComponentDrill
T4C0.0315
; #@! TA.AperFunction,Plated,PTH,ComponentDrill
T5C0.0354
; #@! TA.AperFunction,Plated,PTH,ComponentDrill
T6C0.0394
; #@! TA.AperFunction,Plated,PTH,ComponentDrill
T7C0.0512
; #@! TA.AperFunction,Plated,PTH,ComponentDrill
T8C0.0709
%
G90
G05
T1
X2.8346Y-3.8386
X2.8494Y-3.8899
X2.854Y-4.1423
X2.8543Y-4.0551
X2.9134Y-3.0118
X2.9193Y-4.0787
X2.9429Y-2.9823
X2.9429Y-3.0413
X2.9528Y-2.0866
X2.9724Y-2.9528
X2.9724Y-3.0118
X2.9724Y-3.0709
X2.9823Y-4.0551
X3.002Y-2.9823
X3.002Y-3.0413
X3.0315Y-2.0866
X3.0315Y-3.0118
X3.0315Y-4.0797
X3.0709Y-4.1309
X3.0807Y-2.5492
X3.1988Y-4.4783
X3.1988Y-4.5079
X3.1988Y-4.5374
X3.2087Y-4.7441
X3.2087Y-4.8031
X3.248Y-1.9685
X3.2874Y-1.5748
X3.289Y-2.3441
X3.3465Y-4.6063
X3.3465Y-4.6654
X3.3563Y-4.4783
X3.3563Y-4.5079
X3.3563Y-4.5374
X3.389Y-2.2276
X3.3922Y-1.8898
X3.3941Y-1.5748
X3.4272Y-3.8977
X3.4449Y-3.8583
X3.5039Y-3.6024
X3.5335Y-3.5728
X3.5335Y-3.6319
X3.563Y-3.5433
X3.563Y-3.6024
X3.563Y-3.6614
X3.5925Y-3.5728
X3.5925Y-3.6319
X3.6122Y-2.4114
X3.622Y-3.6024
X3.6811Y-2.5197
X3.6909Y-2.313
X3.7106Y-2.0965
X3.7303Y-2.1161
X3.75Y-2.1358
X3.7598Y-3.563
X3.7795Y-3.5433
X3.7894Y-2.0177
X3.7992Y-3.5236
X3.8091Y-2.0374
X3.8287Y-2.0571
X3.9469Y-2.3524
X3.9547Y-3.0906
X3.9567Y-3.7598
X3.9665Y-2.4252
X3.9665Y-2.4803
X3.9764Y-3.7402
X3.9961Y-3.7205
X4.0157Y-1.4173
X4.0157Y-1.4567
X4.0157Y-1.4961
X4.0157Y-2.5
X4.0551Y-1.4173
X4.0551Y-1.4567
X4.0551Y-1.4961
X4.0551Y-2.4803
X4.0945Y-1.4173
X4.0945Y-1.4567
X4.0945Y-1.4961
X4.1083Y-3.0965
X4.2913Y-3.6811
X4.2913Y-3.7205
X4.2913Y-3.7598
X4.2913Y-3.9961
X4.2913Y-4.0354
X4.2913Y-4.0748
X4.3307Y-3.6811
X4.3307Y-3.7205
X4.3307Y-3.7598
X4.3307Y-3.9961
X4.3307Y-4.0354
X4.3307Y-4.0748
X4.3504Y-2.4409
X4.3701Y-3.6811
X4.3701Y-3.7205
X4.3701Y-3.7598
X4.3701Y-3.9961
X4.3701Y-4.0354
X4.3701Y-4.0748
X4.4193Y-2.5689
X4.4488Y-2.8543
X4.4685Y-2.5197
X4.498Y-1.7126
X4.5177Y-1.6732
X4.5276Y-4.2717
X4.5276Y-4.3701
X4.5472Y-2.3228
X4.5472Y-2.8543
X4.626Y-1.4173
X4.626Y-1.4567
X4.626Y-1.4961
X4.626Y-2.3622
X4.626Y-2.4016
X4.6654Y-1.4173
X4.6654Y-1.4567
X4.6654Y-1.4961
X4.7047Y-1.4173
X4.7047Y-1.4567
X4.7047Y-1.4961
X4.8031Y-2.2835
X4.813Y-4.3012
X4.8524Y-4.3504
X4.9489Y-4.378
X4.9606Y-2.3031
X5.0Y-4.4291
X5.0361Y-4.6202
X5.0984Y-4.6063
X5.2559Y-2.0079
X5.2577Y-2.0943
X5.5709Y-2.0276
X5.5709Y-2.1457
X5.6004Y-2.0276
X5.6004Y-2.1457
X5.6299Y-2.0276
X5.6299Y-2.1457
X6.1417Y-2.3031
X6.1713Y-2.2736
X6.1713Y-2.3327
X6.2008Y-2.2441
X6.2008Y-2.3031
X6.2008Y-2.3622
X6.2303Y-2.2736
X6.2303Y-2.3327
X6.2598Y-2.3031
X6.6339Y-2.7953
X6.6634Y-2.7657
X6.6634Y-2.8248
X6.6929Y-2.7362
X6.6929Y-2.7953
X6.6929Y-2.8543
X6.7224Y-2.7657
X6.7224Y-2.8248
X6.752Y-2.7953
X7.5591Y-2.4213
X7.5591Y-2.5591
X7.5984Y-2.4213
X7.5984Y-2.5984
X7.6624Y-2.4213
X7.6624Y-2.7313
X8.0084Y-3.1793
X8.0463Y-2.5148
X8.176Y-2.4689
X8.189Y-2.9331
X8.2283Y-3.0118
X8.3071Y-2.3622
X8.3169Y-2.5689
X8.3858Y-3.2283
X8.3917Y-2.4675
X8.4783Y-3.34
X8.4972Y-3.0757
X8.5086Y-1.6188
X8.5236Y-2.874
X8.5236Y-2.9134
X8.5236Y-2.9528
X8.5366Y-3.0363
X8.5603Y-1.9068
X8.563Y-2.874
X8.563Y-2.9134
X8.563Y-2.9528
X8.6024Y-2.874
X8.6024Y-2.9134
X8.6024Y-2.9528
X8.6614Y-1.5945
X8.6614Y-1.9094
X8.6713Y-2.6673
X8.7008Y-2.5394
X8.7205Y-2.1949
X8.7647Y-2.3031
X9.1339Y-3.1299
X9.1732Y-3.1693
X9.1929Y-2.5
T2
X3.0413Y-4.2126
X3.1398Y-4.2126
X3.2185Y-3.7992
X3.3169Y-3.7992
X3.5335Y-1.6535
X3.5335Y-1.9685
X3.6319Y-1.6535
X3.6319Y-1.9685
X3.8102Y-2.5421
X3.8102Y-2.6405
X4.6457Y-4.2618
X4.6457Y-4.5177
X4.7441Y-4.2618
X4.7441Y-4.5177
X8.0512Y-2.2047
X8.0512Y-2.3031
X8.3563Y-1.8307
X8.3661Y-1.5157
X8.4547Y-1.8307
X8.4646Y-1.5157
X8.6811Y-3.1791
X8.6811Y-3.2776
T3
X2.874Y-2.2244
X2.874Y-2.3244
X2.874Y-2.4244
X2.874Y-2.5244
X2.974Y-2.2744
X2.974Y-2.3744
X2.974Y-2.4744
X2.974Y-2.5744
X9.0299Y-2.2595
X9.0299Y-2.3595
X9.0299Y-2.4595
X9.0299Y-2.5595
X9.1299Y-2.3095
X9.1299Y-2.4095
X9.1299Y-2.5095
X9.1299Y-2.6095
T4
X3.1465Y-2.126
X3.1465Y-2.2441
X3.1465Y-2.3622
X3.1465Y-2.4803
X3.1465Y-2.5984
X3.1465Y-2.7165
X3.5465Y-2.126
X3.5465Y-2.2441
X3.5465Y-2.3622
X3.5465Y-2.4803
X3.5465Y-2.5984
X3.5465Y-2.7165
X3.6976Y-4.1339
X3.6976Y-4.252
X3.7992Y-1.8472
X3.7992Y-2.2472
X3.9173Y-1.8472
X3.9173Y-2.2472
X4.0976Y-4.1339
X4.0976Y-4.252
X5.0362Y-4.7835
X5.0362Y-4.9016
X5.4362Y-4.7835
X5.4362Y-4.9016
X8.189Y-3.5205
X8.189Y-3.9205
X8.3287Y-3.5205
X8.3287Y-3.9205
X8.4583Y-2.1654
X8.4583Y-2.2835
X8.4583Y-2.4016
X8.4583Y-2.5197
X8.4583Y-2.6378
X8.4583Y-2.7559
X8.4646Y-3.5205
X8.4646Y-3.9205
X8.6024Y-3.5205
X8.6024Y-3.9205
X8.8583Y-2.1654
X8.8583Y-2.2835
X8.8583Y-2.4016
X8.8583Y-2.5197
X8.8583Y-2.6378
X8.8583Y-2.7559
X8.8583Y-3.048
X8.8583Y-3.448
X8.9764Y-3.048
X8.9764Y-3.448
T5
X3.0709Y-4.773
X3.0709Y-4.873
X3.0709Y-5.0486
X3.0709Y-5.1486
T6
X3.089Y-2.874
X3.189Y-2.874
X3.289Y-2.874
X3.389Y-2.874
X3.489Y-2.874
X3.589Y-2.874
X3.689Y-2.874
X3.789Y-2.874
X4.1776Y-1.848
X4.1776Y-1.948
X4.1776Y-2.048
X4.1776Y-2.148
X4.1776Y-2.248
X4.1776Y-2.348
X4.1776Y-2.448
X4.1776Y-2.548
X4.1776Y-2.648
X4.1776Y-2.748
X4.1776Y-2.848
X4.1776Y-2.948
X4.1776Y-3.048
X4.1776Y-3.148
X4.1776Y-3.248
X4.1776Y-3.348
X4.1776Y-3.448
X4.1776Y-3.548
X4.1776Y-3.648
X4.1776Y-3.748
X4.8776Y-1.848
X4.8776Y-1.948
X4.8776Y-2.048
X4.8776Y-2.148
X4.8776Y-2.248
X4.8776Y-2.348
X4.8776Y-2.448
X4.8776Y-2.548
X4.8776Y-2.648
X4.8776Y-2.748
X4.8776Y-2.848
X4.8776Y-2.948
X4.8776Y-3.048
X4.8776Y-3.148
X4.8776Y-3.248
X4.8776Y-3.348
X4.8776Y-3.448
X4.8776Y-3.548
X4.8776Y-3.648
X4.8776Y-3.748
X5.1565Y-1.8389
X5.215Y-2.6071
X5.215Y-2.7071
X5.215Y-2.8071
X5.215Y-2.9071
X5.215Y-3.0071
X5.215Y-3.1071
X5.215Y-3.2071
X5.215Y-3.3071
X5.215Y-3.4071
X5.215Y-3.5071
X5.215Y-3.6071
X5.215Y-3.7071
X5.215Y-3.8071
X5.215Y-3.9071
X5.215Y-4.0071
X5.215Y-4.1071
X5.215Y-4.2071
X5.215Y-4.3071
X5.215Y-4.4071
X5.215Y-4.5071
X5.2565Y-1.8389
X5.315Y-2.6071
X5.315Y-2.7071
X5.315Y-2.8071
X5.315Y-2.9071
X5.315Y-3.0071
X5.315Y-3.1071
X5.315Y-3.2071
X5.315Y-3.3071
X5.315Y-3.4071
X5.315Y-3.5071
X5.315Y-3.6071
X5.315Y-3.7071
X5.315Y-3.8071
X5.315Y-3.9071
X5.315Y-4.0071
X5.315Y-4.1071
X5.315Y-4.2071
X5.315Y-4.3071
X5.315Y-4.4071
X5.315Y-4.5071
X5.3565Y-1.8389
X8.3024Y-1.2205
X8.4024Y-1.2205
X8.5024Y-1.2205
X8.6024Y-1.2205
X8.7024Y-1.2205
X8.8024Y-1.2205
X8.9024Y-1.2205
X9.0024Y-1.2205
T7
X2.6378Y-2.874
X2.6378Y-3.0709
X2.6378Y-3.3465
X2.6378Y-3.5433
X2.6378Y-3.7402
X2.6378Y-3.937
X2.6378Y-4.1339
X2.6378Y-4.3307
X2.6378Y-4.5276
X2.6378Y-4.7244
X3.8583Y-1.2402
X4.0551Y-1.2402
X4.3307Y-1.2402
X4.5276Y-1.2402
X4.8031Y-1.2402
X5.0Y-1.2402
X9.3701Y-2.9134
X9.3701Y-3.1102
X9.3701Y-3.3661
X9.3701Y-3.563
X9.3701Y-3.7598
X9.3701Y-3.9567
X9.3701Y-4.1535
X9.3701Y-4.3504
X9.3701Y-4.5472
X9.3701Y-4.7441
T8
X2.8858Y-1.7677
X2.8858Y-1.9331
X3.1024Y-1.7677
X3.1024Y-1.9331
X8.878Y-1.8031
X8.878Y-1.9685
X9.0945Y-1.8031
X9.0945Y-1.9685
M30
