%TF.GenerationSoftware,KiCad,Pcbnew,8.0.4*%
%TF.CreationDate,2024-12-06T03:31:41-06:00*%
%TF.ProjectId,left_hand,6c656674-5f68-4616-9e64-2e6b69636164,rev?*%
%TF.SameCoordinates,Original*%
%TF.FileFunction,Soldermask,Bot*%
%TF.FilePolarity,Negative*%
%FSLAX46Y46*%
G04 Gerber Fmt 4.6, Leading zero omitted, Abs format (unit mm)*
G04 Created by KiCad (PCBNEW 8.0.4) date 2024-12-06 03:31:41*
%MOMM*%
%LPD*%
G01*
G04 APERTURE LIST*
G04 Aperture macros list*
%AMRoundRect*
0 Rectangle with rounded corners*
0 $1 Rounding radius*
0 $2 $3 $4 $5 $6 $7 $8 $9 X,Y pos of 4 corners*
0 Add a 4 corners polygon primitive as box body*
4,1,4,$2,$3,$4,$5,$6,$7,$8,$9,$2,$3,0*
0 Add four circle primitives for the rounded corners*
1,1,$1+$1,$2,$3*
1,1,$1+$1,$4,$5*
1,1,$1+$1,$6,$7*
1,1,$1+$1,$8,$9*
0 Add four rect primitives between the rounded corners*
20,1,$1+$1,$2,$3,$4,$5,0*
20,1,$1+$1,$4,$5,$6,$7,0*
20,1,$1+$1,$6,$7,$8,$9,0*
20,1,$1+$1,$8,$9,$2,$3,0*%
G04 Aperture macros list end*
%ADD10R,1.700000X1.700000*%
%ADD11O,1.700000X1.700000*%
%ADD12R,2.000000X1.905000*%
%ADD13O,2.000000X1.905000*%
%ADD14C,1.600000*%
%ADD15O,1.600000X1.600000*%
%ADD16RoundRect,0.250000X-0.750000X0.600000X-0.750000X-0.600000X0.750000X-0.600000X0.750000X0.600000X0*%
%ADD17O,2.000000X1.700000*%
%ADD18R,2.200000X2.200000*%
%ADD19O,2.200000X2.200000*%
%ADD20C,3.000000*%
%ADD21RoundRect,0.250001X1.099999X1.599999X-1.099999X1.599999X-1.099999X-1.599999X1.099999X-1.599999X0*%
%ADD22O,2.700000X3.700000*%
%ADD23C,3.200000*%
%ADD24R,1.800000X1.800000*%
%ADD25C,1.800000*%
%ADD26R,2.600000X2.600000*%
%ADD27C,2.600000*%
%ADD28R,1.600000X1.600000*%
%ADD29R,1.500000X1.500000*%
%ADD30C,1.500000*%
%ADD31RoundRect,0.250000X0.750000X-0.600000X0.750000X0.600000X-0.750000X0.600000X-0.750000X-0.600000X0*%
G04 APERTURE END LIST*
D10*
%TO.C,M1*%
X135000000Y-78960000D03*
D11*
X135000000Y-76420000D03*
X135000000Y-73880000D03*
%TD*%
D12*
%TO.C,Q2*%
X142320000Y-91740000D03*
D13*
X142320000Y-89200000D03*
X142320000Y-86660000D03*
%TD*%
D10*
%TO.C,M3*%
X155000000Y-78960000D03*
D11*
X155000000Y-76420000D03*
X155000000Y-73880000D03*
%TD*%
D14*
%TO.C,R21*%
X151845000Y-120780000D03*
D15*
X151845000Y-110620000D03*
%TD*%
D16*
%TO.C,J4*%
X121560000Y-126385000D03*
D17*
X121560000Y-128885000D03*
%TD*%
D18*
%TO.C,D2*%
X140000000Y-71420000D03*
D19*
X140000000Y-81580000D03*
%TD*%
D14*
%TO.C,R5*%
X118745000Y-82550000D03*
D15*
X118745000Y-72390000D03*
%TD*%
D20*
%TO.C,J6*%
X175340000Y-134965000D03*
D21*
X177440000Y-127665000D03*
D22*
X173240000Y-127665000D03*
X177440000Y-122165000D03*
X173240000Y-122165000D03*
%TD*%
D14*
%TO.C,R16*%
X167720000Y-120780000D03*
D15*
X167720000Y-110620000D03*
%TD*%
D10*
%TO.C,M4*%
X165000000Y-78960000D03*
D11*
X165000000Y-76420000D03*
X165000000Y-73880000D03*
%TD*%
D14*
%TO.C,C1*%
X139393884Y-99576117D03*
X137626117Y-101343884D03*
%TD*%
%TO.C,R13*%
X121920000Y-95245000D03*
D15*
X121920000Y-85085000D03*
%TD*%
D14*
%TO.C,C2*%
X137240000Y-116950000D03*
X137240000Y-114450000D03*
%TD*%
%TO.C,R12*%
X118745000Y-95245000D03*
D15*
X118745000Y-85085000D03*
%TD*%
D10*
%TO.C,J1*%
X146130000Y-111255000D03*
D11*
X146130000Y-113795000D03*
X146130000Y-116335000D03*
X146130000Y-118875000D03*
X146130000Y-121415000D03*
X146130000Y-123955000D03*
X146130000Y-126495000D03*
X146130000Y-129035000D03*
%TD*%
D14*
%TO.C,R7*%
X156290000Y-94280000D03*
D15*
X156290000Y-84120000D03*
%TD*%
D18*
%TO.C,D4*%
X160000000Y-71260000D03*
D19*
X160000000Y-81420000D03*
%TD*%
D14*
%TO.C,C3*%
X163275000Y-104250000D03*
X163275000Y-101750000D03*
%TD*%
D23*
%TO.C,H4*%
X185000000Y-62000000D03*
%TD*%
D24*
%TO.C,D6*%
X120015000Y-99055000D03*
D25*
X120015000Y-101595000D03*
%TD*%
D24*
%TO.C,D7*%
X120015000Y-106040000D03*
D25*
X120015000Y-108580000D03*
%TD*%
D26*
%TO.C,J2*%
X175000000Y-62000000D03*
D27*
X170000000Y-62000000D03*
X165000000Y-62000000D03*
X160000000Y-62000000D03*
X155000000Y-62000000D03*
X150000000Y-62000000D03*
X145000000Y-62000000D03*
X140000000Y-62000000D03*
X135000000Y-62000000D03*
X130000000Y-62000000D03*
%TD*%
D10*
%TO.C,J8*%
X143575000Y-134115000D03*
D11*
X141035000Y-134115000D03*
X138495000Y-134115000D03*
%TD*%
D10*
%TO.C,J7*%
X171530000Y-117605000D03*
D11*
X171530000Y-115065000D03*
X171530000Y-112525000D03*
X171530000Y-109985000D03*
X171530000Y-107445000D03*
X171530000Y-104905000D03*
X171530000Y-102365000D03*
X171530000Y-99825000D03*
%TD*%
D14*
%TO.C,R4*%
X142875000Y-107315000D03*
D15*
X142875000Y-117475000D03*
%TD*%
D18*
%TO.C,D3*%
X150000000Y-71420000D03*
D19*
X150000000Y-81580000D03*
%TD*%
D12*
%TO.C,Q1*%
X132160000Y-91740000D03*
D13*
X132160000Y-89200000D03*
X132160000Y-86660000D03*
%TD*%
D12*
%TO.C,Q5*%
X172800000Y-91740000D03*
D13*
X172800000Y-89200000D03*
X172800000Y-86660000D03*
%TD*%
D28*
%TO.C,U1*%
X134620000Y-137290000D03*
D15*
X134620000Y-134750000D03*
X134620000Y-132210000D03*
X134620000Y-129670000D03*
X134620000Y-127130000D03*
X134620000Y-124590000D03*
X134620000Y-122050000D03*
X134620000Y-119510000D03*
X134620000Y-116970000D03*
X134620000Y-114430000D03*
X134620000Y-111890000D03*
X134620000Y-109350000D03*
X134620000Y-106810000D03*
X134620000Y-104270000D03*
X127000000Y-104270000D03*
X127000000Y-106810000D03*
X127000000Y-109350000D03*
X127000000Y-111890000D03*
X127000000Y-114430000D03*
X127000000Y-116970000D03*
X127000000Y-119510000D03*
X127000000Y-122050000D03*
X127000000Y-124590000D03*
X127000000Y-127130000D03*
X127000000Y-129670000D03*
X127000000Y-132210000D03*
X127000000Y-134750000D03*
X127000000Y-137290000D03*
%TD*%
D23*
%TO.C,H3*%
X185000000Y-137000000D03*
%TD*%
D14*
%TO.C,R10*%
X176610000Y-94280000D03*
D15*
X176610000Y-84120000D03*
%TD*%
D23*
%TO.C,H2*%
X120000000Y-137000000D03*
%TD*%
D14*
%TO.C,R18*%
X138510000Y-120145000D03*
D15*
X138510000Y-130305000D03*
%TD*%
D18*
%TO.C,D1*%
X130000000Y-71420000D03*
D19*
X130000000Y-81580000D03*
%TD*%
D14*
%TO.C,R8*%
X166450000Y-94280000D03*
D15*
X166450000Y-84120000D03*
%TD*%
D12*
%TO.C,Q4*%
X162640000Y-91740000D03*
D13*
X162640000Y-89200000D03*
X162640000Y-86660000D03*
%TD*%
D14*
%TO.C,R1*%
X136224000Y-94280000D03*
D15*
X136224000Y-84120000D03*
%TD*%
D14*
%TO.C,R15*%
X164545000Y-110620000D03*
D15*
X164545000Y-120780000D03*
%TD*%
D10*
%TO.C,M5*%
X175000000Y-78960000D03*
D11*
X175000000Y-76420000D03*
X175000000Y-73880000D03*
%TD*%
D14*
%TO.C,R3*%
X139700000Y-107315000D03*
D15*
X139700000Y-117475000D03*
%TD*%
D23*
%TO.C,H1*%
X120000000Y-62000000D03*
%TD*%
D14*
%TO.C,R11*%
X120015000Y-111760000D03*
D15*
X120015000Y-121920000D03*
%TD*%
D14*
%TO.C,R19*%
X158195000Y-120780000D03*
D15*
X158195000Y-110620000D03*
%TD*%
D10*
%TO.C,M2*%
X145000000Y-78960000D03*
D11*
X145000000Y-76420000D03*
X145000000Y-73880000D03*
%TD*%
D14*
%TO.C,R20*%
X155020000Y-110620000D03*
D15*
X155020000Y-120780000D03*
%TD*%
D14*
%TO.C,R9*%
X176618465Y-96789608D03*
D15*
X176618465Y-106949608D03*
%TD*%
D18*
%TO.C,D5*%
X170000000Y-71260000D03*
D19*
X170000000Y-81420000D03*
%TD*%
D14*
%TO.C,R14*%
X161370000Y-120780000D03*
D15*
X161370000Y-110620000D03*
%TD*%
D14*
%TO.C,R17*%
X142320000Y-130305000D03*
D15*
X142320000Y-120145000D03*
%TD*%
D12*
%TO.C,Q3*%
X152480000Y-91740000D03*
D13*
X152480000Y-89200000D03*
X152480000Y-86660000D03*
%TD*%
D23*
%TO.C,J5*%
X153750000Y-134750000D03*
X165180000Y-134750000D03*
D29*
X155020000Y-128400000D03*
D30*
X156290000Y-125860000D03*
X157560000Y-128400000D03*
X158830000Y-125860000D03*
X160100000Y-128400000D03*
X161370000Y-125860000D03*
X162640000Y-128400000D03*
X163910000Y-125860000D03*
%TD*%
D31*
%TO.C,J3*%
X183875000Y-128885000D03*
D17*
X183875000Y-126385000D03*
%TD*%
D14*
%TO.C,R2*%
X146130000Y-94280000D03*
D15*
X146130000Y-84120000D03*
%TD*%
D14*
%TO.C,R6*%
X121920000Y-82550000D03*
D15*
X121920000Y-72390000D03*
%TD*%
M02*
