M48
; DRILL file {KiCad 8.0.4} date 2024-12-05T04:28:14-0600
; FORMAT={-:-/ absolute / inch / decimal}
; #@! TF.CreationDate,2024-12-05T04:28:14-06:00
; #@! TF.GenerationSoftware,Kicad,Pcbnew,8.0.4
; #@! TF.FileFunction,Plated,1,2,PTH
FMAT,2
INCH
; #@! TA.AperFunction,Plated,PTH,ViaDrill
T1C0.0118
; #@! TA.AperFunction,Plated,PTH,ComponentDrill
T2C0.0299
; #@! TA.AperFunction,Plated,PTH,ComponentDrill
T3C0.0315
; #@! TA.AperFunction,Plated,PTH,ComponentDrill
T4C0.0354
; #@! TA.AperFunction,Plated,PTH,ComponentDrill
T5C0.0394
; #@! TA.AperFunction,Plated,PTH,ComponentDrill
T6C0.0433
; #@! TA.AperFunction,Plated,PTH,ComponentDrill
T7C0.0512
; #@! TA.AperFunction,Plated,PTH,ComponentDrill
T8C0.0709
%
G90
G05
T1
X4.625Y-4.325
X4.625Y-5.1
X4.65Y-5.075
X4.8758Y-3.9822
X5.4531Y-4.0551
X5.5031Y-4.1051
X5.6627Y-4.0499
X5.6879Y-3.9551
X5.6879Y-4.0037
X5.7162Y-4.2181
X5.7662Y-4.2181
X5.8162Y-4.2181
X5.8662Y-4.2181
X5.8991Y-3.9448
X5.9055Y-4.8622
X5.9162Y-4.2181
X6.0116Y-5.1868
X6.0281Y-4.1301
X6.1419Y-4.6
X6.1811Y-3.9961
X6.4961Y-3.8301
X6.5781Y-4.5301
X6.6535Y-4.8622
X6.675Y-3.8309
X6.725Y-5.15
X6.8781Y-3.5039
X7.075Y-5.15
T2
X6.1031Y-5.0551
X6.1531Y-4.9551
X6.2031Y-5.0551
X6.2531Y-4.9551
X6.3031Y-5.0551
X6.3531Y-4.9551
X6.4031Y-5.0551
X6.4531Y-4.9551
T3
X4.675Y-2.85
X4.675Y-3.25
X4.675Y-3.3498
X4.675Y-3.7498
X4.725Y-4.4
X4.725Y-4.8
X4.8Y-2.85
X4.8Y-3.25
X4.8Y-3.3498
X4.8Y-3.7498
X5.0Y-4.1051
X5.0Y-4.2051
X5.0Y-4.3051
X5.0Y-4.4051
X5.0Y-4.5051
X5.0Y-4.6051
X5.0Y-4.7051
X5.0Y-4.8051
X5.0Y-4.9051
X5.0Y-5.0051
X5.0Y-5.1051
X5.0Y-5.2051
X5.0Y-5.3051
X5.0Y-5.4051
X5.3Y-4.1051
X5.3Y-4.2051
X5.3Y-4.3051
X5.3Y-4.4051
X5.3Y-4.5051
X5.3Y-4.6051
X5.3Y-4.7051
X5.3Y-4.8051
X5.3Y-4.9051
X5.3Y-5.0051
X5.3Y-5.1051
X5.3Y-5.2051
X5.3Y-5.3051
X5.3Y-5.4051
X5.3631Y-3.3118
X5.3631Y-3.7118
X5.4031Y-4.5059
X5.4031Y-4.6043
X5.4184Y-3.9899
X5.4531Y-4.7301
X5.4531Y-5.1301
X5.4879Y-3.9203
X5.5Y-4.225
X5.5Y-4.625
X5.6031Y-4.7301
X5.6031Y-5.1301
X5.625Y-4.225
X5.625Y-4.625
X5.7531Y-3.3118
X5.7531Y-3.7118
X5.9781Y-4.3551
X5.9781Y-4.7551
X6.1031Y-4.3551
X6.1031Y-4.7551
X6.1531Y-3.3118
X6.1531Y-3.7118
X6.2281Y-4.3551
X6.2281Y-4.7551
X6.3531Y-4.3551
X6.3531Y-4.7551
X6.4281Y-4.0059
X6.4281Y-4.1043
X6.4781Y-4.3551
X6.4781Y-4.7551
X6.5531Y-3.3118
X6.5531Y-3.7118
X6.6031Y-4.3551
X6.6031Y-4.7551
X6.9531Y-3.3118
X6.9531Y-3.7118
X7.1Y-4.25
X7.1Y-4.65
T4
X4.725Y-3.8998
X4.725Y-3.9998
X4.725Y-4.1748
X4.725Y-4.2748
T5
X4.7858Y-4.9758
X4.7858Y-5.0742
X5.315Y-2.9087
X5.315Y-3.0087
X5.315Y-3.1087
X5.4526Y-5.2801
X5.5526Y-5.2801
X5.6526Y-5.2801
X5.7087Y-2.9087
X5.7087Y-3.0087
X5.7087Y-3.1087
X5.7531Y-4.3801
X5.7531Y-4.4801
X5.7531Y-4.5801
X5.7531Y-4.6801
X5.7531Y-4.7801
X5.7531Y-4.8801
X5.7531Y-4.9801
X5.7531Y-5.0801
X6.1024Y-2.9087
X6.1024Y-3.0087
X6.1024Y-3.1087
X6.4961Y-2.9087
X6.4961Y-3.0087
X6.4961Y-3.1087
X6.7531Y-3.9301
X6.7531Y-4.0301
X6.7531Y-4.1301
X6.7531Y-4.2301
X6.7531Y-4.3301
X6.7531Y-4.4301
X6.7531Y-4.5301
X6.7531Y-4.6301
X6.8898Y-2.9087
X6.8898Y-3.0087
X6.8898Y-3.1087
X7.2392Y-4.9758
X7.2392Y-5.0742
T6
X5.1181Y-2.8118
X5.1181Y-3.2118
X5.2031Y-3.4118
X5.2031Y-3.5118
X5.2031Y-3.6118
X5.5118Y-2.8118
X5.5118Y-3.2118
X5.6031Y-3.4118
X5.6031Y-3.5118
X5.6031Y-3.6118
X5.9055Y-2.8118
X5.9055Y-3.2118
X6.0031Y-3.4118
X6.0031Y-3.5118
X6.0031Y-3.6118
X6.2992Y-2.8055
X6.2992Y-3.2055
X6.4031Y-3.4118
X6.4031Y-3.5118
X6.4031Y-3.6118
X6.6929Y-2.8055
X6.6929Y-3.2055
X6.8031Y-3.4118
X6.8031Y-3.5118
X6.8031Y-3.6118
T7
X5.1181Y-2.4409
X5.315Y-2.4409
X5.5118Y-2.4409
X5.7087Y-2.4409
X5.9055Y-2.4409
X6.1024Y-2.4409
X6.2992Y-2.4409
X6.4961Y-2.4409
X6.6929Y-2.4409
X6.8898Y-2.4409
T8
X6.8205Y-4.8096
X6.8205Y-5.0262
X6.9858Y-4.8096
X6.9858Y-5.0262
M30
