M48
; DRILL file {KiCad 8.0.4} date 2025-03-05T00:33:22-0600
; FORMAT={-:-/ absolute / inch / decimal}
; #@! TF.CreationDate,2025-03-05T00:33:22-06:00
; #@! TF.GenerationSoftware,Kicad,Pcbnew,8.0.4
; #@! TF.FileFunction,Plated,1,2,PTH
FMAT,2
INCH
; #@! TA.AperFunction,Plated,PTH,ViaDrill
T1C0.0118
; #@! TA.AperFunction,Plated,PTH,ComponentDrill
T2C0.0299
; #@! TA.AperFunction,Plated,PTH,ComponentDrill
T3C0.0315
; #@! TA.AperFunction,Plated,PTH,ComponentDrill
T4C0.0354
; #@! TA.AperFunction,Plated,PTH,ComponentDrill
T5C0.0394
; #@! TA.AperFunction,Plated,PTH,ComponentDrill
T6C0.0433
; #@! TA.AperFunction,Plated,PTH,ComponentDrill
T7C0.0512
; #@! TA.AperFunction,Plated,PTH,ComponentDrill
T8C0.0630
; #@! TA.AperFunction,Plated,PTH,ComponentDrill
T9C0.0709
%
G90
G05
T1
X5.9449Y-3.0664
X6.1019Y-2.961
X6.1024Y-3.0512
X6.122Y-2.9331
X6.2124Y-3.0199
X6.2402Y-3.1594
X6.2992Y-3.1142
X6.3615Y-3.1562
X6.4567Y-2.2441
X6.5288Y-3.4366
X6.5326Y-3.5363
X6.5945Y-3.2874
X6.6131Y-3.1244
X6.6339Y-3.0196
X6.6535Y-3.1929
X6.663Y-3.1205
X6.6929Y-3.1929
X6.6978Y-3.1201
X6.7323Y-3.1204
X6.7323Y-3.1929
X6.7953Y-3.3465
X6.9291Y-2.2441
X7.001Y-3.1034
X7.0756Y-3.3597
X7.185Y-2.9788
X7.2835Y-3.5433
X7.4016Y-2.2441
X7.4409Y-3.3858
X7.5098Y-3.3957
X7.5394Y-3.4154
X7.5689Y-3.3957
X7.5787Y-3.1496
X7.5984Y-3.4154
X7.628Y-3.3957
X7.6575Y-3.4154
X7.687Y-3.3957
X7.7063Y-3.1594
X7.7067Y-2.9724
X7.7165Y-3.4154
X7.7323Y-3.0184
X7.7338Y-3.189
X7.7362Y-3.1299
X7.9075Y-3.0599
X7.9081Y-3.1132
X7.9094Y-3.1642
X7.9278Y-3.1378
X7.93Y-3.0906
X7.9723Y-2.3158
X7.9723Y-2.3552
X7.9723Y-2.3945
X8.0117Y-2.3158
X8.0117Y-2.3552
X8.0117Y-2.3945
X8.0511Y-2.3158
X8.0511Y-2.3552
X8.0511Y-2.3945
X8.0906Y-3.0906
X8.0906Y-3.1378
X8.1102Y-3.1642
X8.1114Y-3.1142
X8.1138Y-3.0667
X8.2087Y-2.8839
X8.3592Y-3.1279
X8.3661Y-2.9528
X8.3661Y-2.9921
X8.3973Y-3.0253
X8.3973Y-3.0926
T2
X6.9835Y-4.3307
X7.0335Y-4.2307
X7.0835Y-4.3307
X7.1335Y-4.2307
X7.1835Y-4.3307
X7.2335Y-4.2307
X7.2835Y-4.3307
X7.3335Y-4.2307
T3
X5.8817Y-3.0055
X5.8817Y-3.4055
X6.0039Y-3.0055
X6.0039Y-3.4055
X6.0827Y-2.4575
X6.0827Y-2.8575
X6.1614Y-3.2055
X6.1614Y-3.6055
X6.1614Y-3.6976
X6.1614Y-4.0976
X6.1614Y-4.1898
X6.1614Y-4.5898
X6.2992Y-3.2055
X6.2992Y-3.6055
X6.2992Y-3.9764
X6.2992Y-4.0748
X6.2992Y-4.1898
X6.2992Y-4.5898
X6.4173Y-3.2858
X6.4173Y-3.3858
X6.4173Y-3.4858
X6.4173Y-3.5858
X6.4173Y-3.6858
X6.4173Y-3.7858
X6.4173Y-3.8858
X6.4173Y-3.9858
X6.4173Y-4.0858
X6.4173Y-4.1858
X6.4173Y-4.2858
X6.4173Y-4.3858
X6.4173Y-4.4858
X6.4173Y-4.5858
X6.6339Y-2.4606
X6.6339Y-2.8606
X6.7173Y-3.2858
X6.7173Y-3.3858
X6.7173Y-3.4858
X6.7173Y-3.5858
X6.7173Y-3.6858
X6.7173Y-3.7858
X6.7173Y-3.8858
X6.7173Y-3.9858
X6.7173Y-4.0858
X6.7173Y-4.1858
X6.7173Y-4.2858
X6.7173Y-4.3858
X6.7173Y-4.4858
X6.7173Y-4.5858
X6.8504Y-3.1693
X6.8504Y-3.5693
X6.8521Y-3.6815
X6.8521Y-4.0815
X6.9685Y-3.1693
X6.9685Y-3.5693
X6.9771Y-3.6815
X6.9771Y-4.0815
X7.1021Y-3.6815
X7.1021Y-4.0815
X7.1161Y-3.1201
X7.1161Y-3.2283
X7.185Y-2.4606
X7.185Y-2.8606
X7.2146Y-3.1201
X7.2146Y-3.2283
X7.2271Y-3.6815
X7.2271Y-4.0815
X7.3521Y-3.6815
X7.3521Y-4.0815
X7.4771Y-3.6815
X7.4771Y-4.0815
X7.6378Y-3.5039
X7.6378Y-3.9039
X7.7362Y-2.4803
X7.7362Y-2.8803
X7.7559Y-3.5039
X7.7559Y-3.9039
X8.1102Y-4.2488
X8.1102Y-4.6488
X8.2874Y-2.4803
X8.2874Y-2.8803
X8.4646Y-3.0283
X8.4646Y-3.4283
X8.4646Y-3.5402
X8.4646Y-3.9402
T4
X5.9449Y-3.5433
X5.9449Y-3.6433
X5.9449Y-3.7976
X5.9449Y-3.8976
T5
X5.9449Y-2.5591
X5.9449Y-2.6591
X5.9449Y-2.7591
X5.9449Y-2.8591
X5.9626Y-4.1339
X5.9626Y-4.2323
X6.2205Y-2.5591
X6.2205Y-2.6591
X6.2205Y-2.7591
X6.2205Y-2.8591
X6.4961Y-2.5591
X6.4961Y-2.6591
X6.4961Y-2.7591
X6.4961Y-2.8591
X6.7717Y-2.5591
X6.7717Y-2.6591
X6.7717Y-2.7591
X6.7717Y-2.8591
X7.0472Y-2.5591
X7.0472Y-2.6591
X7.0472Y-2.7591
X7.0472Y-2.8591
X7.3228Y-2.5591
X7.3228Y-2.6591
X7.3228Y-2.7591
X7.3228Y-2.8591
X7.5984Y-2.5591
X7.5984Y-2.6591
X7.5984Y-2.7591
X7.5984Y-2.8591
X7.8346Y-3.1496
X7.8346Y-3.2496
X7.8346Y-3.3496
X7.874Y-2.5591
X7.874Y-2.6591
X7.874Y-2.7591
X7.874Y-2.8591
X8.1496Y-2.5591
X8.1496Y-2.6591
X8.1496Y-2.7591
X8.1496Y-2.8591
X8.3681Y-4.1437
X8.3681Y-4.2421
X8.4252Y-2.5591
X8.4252Y-2.6591
X8.4252Y-2.7591
X8.4252Y-2.8591
T6
X6.062Y-1.9685
X6.062Y-2.0685
X6.062Y-2.1685
X6.535Y-1.9866
X6.535Y-2.0866
X6.535Y-2.1866
X7.0079Y-1.9866
X7.0079Y-2.0866
X7.0079Y-2.1866
X7.4808Y-1.9866
X7.4808Y-2.0866
X7.4808Y-2.1866
X7.9537Y-1.9866
X7.9537Y-2.0866
X7.9537Y-2.1866
T7
X6.2992Y-1.5748
X6.4961Y-1.5748
X6.6929Y-1.5748
X6.8898Y-1.5748
X7.0866Y-1.5748
X7.2835Y-1.5748
X7.4803Y-1.5748
X7.6772Y-1.5748
X7.874Y-1.5748
X8.0709Y-1.5748
T8
X6.3357Y-1.8563
X6.3357Y-2.3563
X6.8086Y-1.8563
X6.8086Y-2.3563
X7.2815Y-1.8563
X7.2815Y-2.3563
X7.7545Y-1.8563
X7.7545Y-2.3563
X8.2274Y-1.8563
X8.2274Y-2.3563
T9
X7.6694Y-4.122
X7.6694Y-4.3386
X7.8347Y-4.122
X7.8347Y-4.3386
M30
