%TF.GenerationSoftware,KiCad,Pcbnew,8.0.4*%
%TF.CreationDate,2025-03-04T01:03:37-06:00*%
%TF.ProjectId,hand_pcb,68616e64-5f70-4636-922e-6b696361645f,rev?*%
%TF.SameCoordinates,Original*%
%TF.FileFunction,Paste,Top*%
%TF.FilePolarity,Positive*%
%FSLAX46Y46*%
G04 Gerber Fmt 4.6, Leading zero omitted, Abs format (unit mm)*
G04 Created by KiCad (PCBNEW 8.0.4) date 2025-03-04 01:03:37*
%MOMM*%
%LPD*%
G01*
G04 APERTURE LIST*
G04 Aperture macros list*
%AMRoundRect*
0 Rectangle with rounded corners*
0 $1 Rounding radius*
0 $2 $3 $4 $5 $6 $7 $8 $9 X,Y pos of 4 corners*
0 Add a 4 corners polygon primitive as box body*
4,1,4,$2,$3,$4,$5,$6,$7,$8,$9,$2,$3,0*
0 Add four circle primitives for the rounded corners*
1,1,$1+$1,$2,$3*
1,1,$1+$1,$4,$5*
1,1,$1+$1,$6,$7*
1,1,$1+$1,$8,$9*
0 Add four rect primitives between the rounded corners*
20,1,$1+$1,$2,$3,$4,$5,0*
20,1,$1+$1,$4,$5,$6,$7,0*
20,1,$1+$1,$6,$7,$8,$9,0*
20,1,$1+$1,$8,$9,$2,$3,0*%
G04 Aperture macros list end*
%ADD10R,0.250000X1.100000*%
%ADD11RoundRect,0.170000X-0.170000X-0.170000X0.170000X-0.170000X0.170000X0.170000X-0.170000X0.170000X0*%
%ADD12RoundRect,0.062500X-0.355000X-0.062500X0.355000X-0.062500X0.355000X0.062500X-0.355000X0.062500X0*%
%ADD13RoundRect,0.062500X-0.062500X-0.355000X0.062500X-0.355000X0.062500X0.355000X-0.062500X0.355000X0*%
%ADD14RoundRect,0.170000X-0.170000X0.170000X-0.170000X-0.170000X0.170000X-0.170000X0.170000X0.170000X0*%
%ADD15RoundRect,0.062500X-0.062500X0.355000X-0.062500X-0.355000X0.062500X-0.355000X0.062500X0.355000X0*%
%ADD16RoundRect,0.062500X-0.355000X0.062500X-0.355000X-0.062500X0.355000X-0.062500X0.355000X0.062500X0*%
%ADD17RoundRect,0.100000X0.100000X-0.637500X0.100000X0.637500X-0.100000X0.637500X-0.100000X-0.637500X0*%
G04 APERTURE END LIST*
D10*
%TO.C,U3*%
X182949695Y-85350000D03*
X182449695Y-85350000D03*
X181949695Y-85350000D03*
X181449695Y-85350000D03*
X180949695Y-85350000D03*
X180949695Y-89650000D03*
X181449695Y-89650000D03*
X181949695Y-89650000D03*
X182449695Y-89650000D03*
X182949695Y-89650000D03*
%TD*%
D11*
%TO.C,U5*%
X210372500Y-77580000D03*
X210372500Y-78420000D03*
X211212500Y-77580000D03*
X211212500Y-78420000D03*
D12*
X209335000Y-77250000D03*
X209335000Y-77750000D03*
X209335000Y-78250000D03*
X209335000Y-78750000D03*
D13*
X210042500Y-79457500D03*
X210542500Y-79457500D03*
X211042500Y-79457500D03*
X211542500Y-79457500D03*
D12*
X212250000Y-78750000D03*
X212250000Y-78250000D03*
X212250000Y-77750000D03*
X212250000Y-77250000D03*
D13*
X211542500Y-76542500D03*
X211042500Y-76542500D03*
X210542500Y-76542500D03*
X210042500Y-76542500D03*
%TD*%
D14*
%TO.C,U4*%
X161670000Y-77037500D03*
X160830000Y-77037500D03*
X161670000Y-77877500D03*
X160830000Y-77877500D03*
D15*
X162000000Y-76000000D03*
X161500000Y-76000000D03*
X161000000Y-76000000D03*
X160500000Y-76000000D03*
D16*
X159792500Y-76707500D03*
X159792500Y-77207500D03*
X159792500Y-77707500D03*
X159792500Y-78207500D03*
D15*
X160500000Y-78915000D03*
X161000000Y-78915000D03*
X161500000Y-78915000D03*
X162000000Y-78915000D03*
D16*
X162707500Y-78207500D03*
X162707500Y-77707500D03*
X162707500Y-77207500D03*
X162707500Y-76707500D03*
%TD*%
D17*
%TO.C,U1*%
X187450000Y-84250000D03*
X188100000Y-84250000D03*
X188750000Y-84250000D03*
X189400000Y-84250000D03*
X190050000Y-84250000D03*
X190700000Y-84250000D03*
X191350000Y-84250000D03*
X192000000Y-84250000D03*
X192650000Y-84250000D03*
X193300000Y-84250000D03*
X193950000Y-84250000D03*
X194600000Y-84250000D03*
X195250000Y-84250000D03*
X195900000Y-84250000D03*
X195900000Y-78525000D03*
X195250000Y-78525000D03*
X194600000Y-78525000D03*
X193950000Y-78525000D03*
X193300000Y-78525000D03*
X192650000Y-78525000D03*
X192000000Y-78525000D03*
X191350000Y-78525000D03*
X190700000Y-78525000D03*
X190050000Y-78525000D03*
X189400000Y-78525000D03*
X188750000Y-78525000D03*
X188100000Y-78525000D03*
X187450000Y-78525000D03*
%TD*%
M02*
