%TF.GenerationSoftware,KiCad,Pcbnew,8.0.4*%
%TF.CreationDate,2025-03-04T01:03:37-06:00*%
%TF.ProjectId,hand_pcb,68616e64-5f70-4636-922e-6b696361645f,rev?*%
%TF.SameCoordinates,Original*%
%TF.FileFunction,Legend,Top*%
%TF.FilePolarity,Positive*%
%FSLAX46Y46*%
G04 Gerber Fmt 4.6, Leading zero omitted, Abs format (unit mm)*
G04 Created by KiCad (PCBNEW 8.0.4) date 2025-03-04 01:03:37*
%MOMM*%
%LPD*%
G01*
G04 APERTURE LIST*
%ADD10C,0.200000*%
%ADD11C,0.300000*%
%ADD12C,0.150000*%
%ADD13C,0.120000*%
G04 APERTURE END LIST*
D10*
X202781344Y-72414380D02*
X202686106Y-72366761D01*
X202686106Y-72366761D02*
X202543249Y-72366761D01*
X202543249Y-72366761D02*
X202400392Y-72414380D01*
X202400392Y-72414380D02*
X202305154Y-72509618D01*
X202305154Y-72509618D02*
X202257535Y-72604856D01*
X202257535Y-72604856D02*
X202209916Y-72795332D01*
X202209916Y-72795332D02*
X202209916Y-72938189D01*
X202209916Y-72938189D02*
X202257535Y-73128665D01*
X202257535Y-73128665D02*
X202305154Y-73223903D01*
X202305154Y-73223903D02*
X202400392Y-73319142D01*
X202400392Y-73319142D02*
X202543249Y-73366761D01*
X202543249Y-73366761D02*
X202638487Y-73366761D01*
X202638487Y-73366761D02*
X202781344Y-73319142D01*
X202781344Y-73319142D02*
X202828963Y-73271522D01*
X202828963Y-73271522D02*
X202828963Y-72938189D01*
X202828963Y-72938189D02*
X202638487Y-72938189D01*
X203257535Y-73366761D02*
X203257535Y-72366761D01*
X203257535Y-72366761D02*
X203828963Y-73366761D01*
X203828963Y-73366761D02*
X203828963Y-72366761D01*
X204305154Y-73366761D02*
X204305154Y-72366761D01*
X204305154Y-72366761D02*
X204543249Y-72366761D01*
X204543249Y-72366761D02*
X204686106Y-72414380D01*
X204686106Y-72414380D02*
X204781344Y-72509618D01*
X204781344Y-72509618D02*
X204828963Y-72604856D01*
X204828963Y-72604856D02*
X204876582Y-72795332D01*
X204876582Y-72795332D02*
X204876582Y-72938189D01*
X204876582Y-72938189D02*
X204828963Y-73128665D01*
X204828963Y-73128665D02*
X204781344Y-73223903D01*
X204781344Y-73223903D02*
X204686106Y-73319142D01*
X204686106Y-73319142D02*
X204543249Y-73366761D01*
X204543249Y-73366761D02*
X204305154Y-73366761D01*
X202209916Y-71819142D02*
X202352773Y-71866761D01*
X202352773Y-71866761D02*
X202590868Y-71866761D01*
X202590868Y-71866761D02*
X202686106Y-71819142D01*
X202686106Y-71819142D02*
X202733725Y-71771522D01*
X202733725Y-71771522D02*
X202781344Y-71676284D01*
X202781344Y-71676284D02*
X202781344Y-71581046D01*
X202781344Y-71581046D02*
X202733725Y-71485808D01*
X202733725Y-71485808D02*
X202686106Y-71438189D01*
X202686106Y-71438189D02*
X202590868Y-71390570D01*
X202590868Y-71390570D02*
X202400392Y-71342951D01*
X202400392Y-71342951D02*
X202305154Y-71295332D01*
X202305154Y-71295332D02*
X202257535Y-71247713D01*
X202257535Y-71247713D02*
X202209916Y-71152475D01*
X202209916Y-71152475D02*
X202209916Y-71057237D01*
X202209916Y-71057237D02*
X202257535Y-70961999D01*
X202257535Y-70961999D02*
X202305154Y-70914380D01*
X202305154Y-70914380D02*
X202400392Y-70866761D01*
X202400392Y-70866761D02*
X202638487Y-70866761D01*
X202638487Y-70866761D02*
X202781344Y-70914380D01*
X203781344Y-71771522D02*
X203733725Y-71819142D01*
X203733725Y-71819142D02*
X203590868Y-71866761D01*
X203590868Y-71866761D02*
X203495630Y-71866761D01*
X203495630Y-71866761D02*
X203352773Y-71819142D01*
X203352773Y-71819142D02*
X203257535Y-71723903D01*
X203257535Y-71723903D02*
X203209916Y-71628665D01*
X203209916Y-71628665D02*
X203162297Y-71438189D01*
X203162297Y-71438189D02*
X203162297Y-71295332D01*
X203162297Y-71295332D02*
X203209916Y-71104856D01*
X203209916Y-71104856D02*
X203257535Y-71009618D01*
X203257535Y-71009618D02*
X203352773Y-70914380D01*
X203352773Y-70914380D02*
X203495630Y-70866761D01*
X203495630Y-70866761D02*
X203590868Y-70866761D01*
X203590868Y-70866761D02*
X203733725Y-70914380D01*
X203733725Y-70914380D02*
X203781344Y-70961999D01*
X204686106Y-71866761D02*
X204209916Y-71866761D01*
X204209916Y-71866761D02*
X204209916Y-70866761D01*
X200304533Y-76720585D02*
X201080475Y-76517294D01*
X200304533Y-76720585D02*
X200496051Y-75936819D01*
X203147973Y-73887405D02*
X200304533Y-76720585D01*
X202209916Y-70319142D02*
X202352773Y-70366761D01*
X202352773Y-70366761D02*
X202590868Y-70366761D01*
X202590868Y-70366761D02*
X202686106Y-70319142D01*
X202686106Y-70319142D02*
X202733725Y-70271522D01*
X202733725Y-70271522D02*
X202781344Y-70176284D01*
X202781344Y-70176284D02*
X202781344Y-70081046D01*
X202781344Y-70081046D02*
X202733725Y-69985808D01*
X202733725Y-69985808D02*
X202686106Y-69938189D01*
X202686106Y-69938189D02*
X202590868Y-69890570D01*
X202590868Y-69890570D02*
X202400392Y-69842951D01*
X202400392Y-69842951D02*
X202305154Y-69795332D01*
X202305154Y-69795332D02*
X202257535Y-69747713D01*
X202257535Y-69747713D02*
X202209916Y-69652475D01*
X202209916Y-69652475D02*
X202209916Y-69557237D01*
X202209916Y-69557237D02*
X202257535Y-69461999D01*
X202257535Y-69461999D02*
X202305154Y-69414380D01*
X202305154Y-69414380D02*
X202400392Y-69366761D01*
X202400392Y-69366761D02*
X202638487Y-69366761D01*
X202638487Y-69366761D02*
X202781344Y-69414380D01*
X203209916Y-70366761D02*
X203209916Y-69366761D01*
X203209916Y-69366761D02*
X203448011Y-69366761D01*
X203448011Y-69366761D02*
X203590868Y-69414380D01*
X203590868Y-69414380D02*
X203686106Y-69509618D01*
X203686106Y-69509618D02*
X203733725Y-69604856D01*
X203733725Y-69604856D02*
X203781344Y-69795332D01*
X203781344Y-69795332D02*
X203781344Y-69938189D01*
X203781344Y-69938189D02*
X203733725Y-70128665D01*
X203733725Y-70128665D02*
X203686106Y-70223903D01*
X203686106Y-70223903D02*
X203590868Y-70319142D01*
X203590868Y-70319142D02*
X203448011Y-70366761D01*
X203448011Y-70366761D02*
X203209916Y-70366761D01*
X204162297Y-70081046D02*
X204638487Y-70081046D01*
X204067059Y-70366761D02*
X204400392Y-69366761D01*
X204400392Y-69366761D02*
X204733725Y-70366761D01*
X204288829Y-44982933D02*
X205812639Y-44982933D01*
X159269067Y-44982933D02*
X160792877Y-44982933D01*
X160030972Y-45744838D02*
X160030972Y-44221028D01*
X179277847Y-44982933D02*
X180801657Y-44982933D01*
X180039752Y-45744838D02*
X180039752Y-44221028D01*
X194284432Y-44982933D02*
X195808242Y-44982933D01*
X189282237Y-44982933D02*
X190806047Y-44982933D01*
X190044142Y-45744838D02*
X190044142Y-44221028D01*
G36*
X211396850Y-97269138D02*
G01*
X211445330Y-97317618D01*
X211498944Y-97424845D01*
X211498944Y-97872668D01*
X210913230Y-97872668D01*
X210913230Y-97424847D01*
X210966846Y-97317615D01*
X211015322Y-97269138D01*
X211122551Y-97215525D01*
X211289623Y-97215525D01*
X211396850Y-97269138D01*
G37*
G36*
X211396850Y-91911995D02*
G01*
X211445330Y-91960475D01*
X211498944Y-92067702D01*
X211498944Y-92515525D01*
X210913230Y-92515525D01*
X210913230Y-92067704D01*
X210966846Y-91960472D01*
X211015322Y-91911995D01*
X211122551Y-91858382D01*
X211289623Y-91858382D01*
X211396850Y-91911995D01*
G37*
G36*
X212579897Y-101380271D02*
G01*
X210546563Y-101380271D01*
X210546563Y-100524587D01*
X210715151Y-100524587D01*
X210715151Y-100563605D01*
X210730083Y-100599653D01*
X210757673Y-100627243D01*
X210793721Y-100642175D01*
X210813230Y-100644096D01*
X211868432Y-100644096D01*
X212044926Y-100702927D01*
X212154399Y-100812400D01*
X212213230Y-100988893D01*
X212213230Y-101115525D01*
X212215151Y-101135034D01*
X212230083Y-101171082D01*
X212257673Y-101198672D01*
X212293721Y-101213604D01*
X212332739Y-101213604D01*
X212368787Y-101198672D01*
X212396377Y-101171082D01*
X212411309Y-101135034D01*
X212413230Y-101115525D01*
X212413230Y-100972668D01*
X212412257Y-100962794D01*
X212412445Y-100960161D01*
X212411657Y-100956697D01*
X212411309Y-100953159D01*
X212410297Y-100950716D01*
X212408098Y-100941045D01*
X212336670Y-100726759D01*
X212328679Y-100708859D01*
X212326323Y-100706143D01*
X212324949Y-100702824D01*
X212312512Y-100687671D01*
X212169654Y-100544814D01*
X212154501Y-100532378D01*
X212151182Y-100531003D01*
X212148467Y-100528648D01*
X212130567Y-100520657D01*
X211916282Y-100449228D01*
X211906609Y-100447028D01*
X211904168Y-100446017D01*
X211900630Y-100445668D01*
X211897167Y-100444881D01*
X211894532Y-100445068D01*
X211884659Y-100444096D01*
X210813230Y-100444096D01*
X210793721Y-100446017D01*
X210757673Y-100460949D01*
X210730083Y-100488539D01*
X210715151Y-100524587D01*
X210546563Y-100524587D01*
X210546563Y-99810302D01*
X212072294Y-99810302D01*
X212072294Y-99849320D01*
X212081041Y-99870437D01*
X212087226Y-99885369D01*
X212099663Y-99900522D01*
X212171092Y-99971950D01*
X212186245Y-99984387D01*
X212211735Y-99994944D01*
X212222293Y-99999318D01*
X212222294Y-99999318D01*
X212261311Y-99999318D01*
X212282428Y-99990570D01*
X212297360Y-99984386D01*
X212297364Y-99984381D01*
X212312513Y-99971950D01*
X212383940Y-99900522D01*
X212396377Y-99885369D01*
X212400750Y-99874810D01*
X212411309Y-99849320D01*
X212411309Y-99810302D01*
X212397884Y-99777891D01*
X212396378Y-99774254D01*
X212383941Y-99759101D01*
X212312513Y-99687672D01*
X212297360Y-99675235D01*
X212282428Y-99669050D01*
X212261311Y-99660303D01*
X212222293Y-99660303D01*
X212211735Y-99664676D01*
X212186245Y-99675234D01*
X212186239Y-99675239D01*
X212171091Y-99687671D01*
X212099662Y-99759100D01*
X212087230Y-99774248D01*
X212087225Y-99774254D01*
X212085719Y-99777891D01*
X212072294Y-99810302D01*
X210546563Y-99810302D01*
X210546563Y-97401239D01*
X210713230Y-97401239D01*
X210713230Y-97972668D01*
X210715151Y-97992177D01*
X210730083Y-98028225D01*
X210757673Y-98055815D01*
X210793721Y-98070747D01*
X210813230Y-98072668D01*
X212313230Y-98072668D01*
X212332739Y-98070747D01*
X212368787Y-98055815D01*
X212396377Y-98028225D01*
X212411309Y-97992177D01*
X212411309Y-97953159D01*
X212396377Y-97917111D01*
X212368787Y-97889521D01*
X212332739Y-97874589D01*
X212313230Y-97872668D01*
X211698944Y-97872668D01*
X211698944Y-97401239D01*
X211697023Y-97381730D01*
X211695647Y-97378409D01*
X211695393Y-97374827D01*
X211688387Y-97356518D01*
X211616959Y-97213661D01*
X211611673Y-97205264D01*
X211610663Y-97202825D01*
X211608409Y-97200078D01*
X211606516Y-97197071D01*
X211604521Y-97195341D01*
X211598227Y-97187671D01*
X211526798Y-97116242D01*
X211519131Y-97109950D01*
X211517399Y-97107953D01*
X211514387Y-97106057D01*
X211511644Y-97103806D01*
X211509206Y-97102796D01*
X211500808Y-97097510D01*
X211357951Y-97026082D01*
X211339643Y-97019076D01*
X211336059Y-97018821D01*
X211332739Y-97017446D01*
X211313230Y-97015525D01*
X211098944Y-97015525D01*
X211079435Y-97017446D01*
X211076114Y-97018821D01*
X211072532Y-97019076D01*
X211054223Y-97026082D01*
X210911366Y-97097510D01*
X210902970Y-97102794D01*
X210900529Y-97103806D01*
X210897781Y-97106061D01*
X210894776Y-97107953D01*
X210893045Y-97109947D01*
X210885376Y-97116243D01*
X210813948Y-97187672D01*
X210807655Y-97195338D01*
X210805659Y-97197070D01*
X210803765Y-97200077D01*
X210801511Y-97202825D01*
X210800499Y-97205266D01*
X210795216Y-97213661D01*
X210723787Y-97356517D01*
X210716781Y-97374826D01*
X210716526Y-97378409D01*
X210715151Y-97381730D01*
X210713230Y-97401239D01*
X210546563Y-97401239D01*
X210546563Y-95758382D01*
X210713230Y-95758382D01*
X210713230Y-96472668D01*
X210715151Y-96492177D01*
X210730083Y-96528225D01*
X210757673Y-96555815D01*
X210793721Y-96570747D01*
X210813230Y-96572668D01*
X212313230Y-96572668D01*
X212332739Y-96570747D01*
X212368787Y-96555815D01*
X212396377Y-96528225D01*
X212411309Y-96492177D01*
X212413230Y-96472668D01*
X212413230Y-95758382D01*
X212411309Y-95738873D01*
X212396377Y-95702825D01*
X212368787Y-95675235D01*
X212332739Y-95660303D01*
X212293721Y-95660303D01*
X212257673Y-95675235D01*
X212230083Y-95702825D01*
X212215151Y-95738873D01*
X212213230Y-95758382D01*
X212213230Y-96372668D01*
X211627516Y-96372668D01*
X211627516Y-95972668D01*
X211625595Y-95953159D01*
X211610663Y-95917111D01*
X211583073Y-95889521D01*
X211547025Y-95874589D01*
X211508007Y-95874589D01*
X211471959Y-95889521D01*
X211444369Y-95917111D01*
X211429437Y-95953159D01*
X211427516Y-95972668D01*
X211427516Y-96372668D01*
X210913230Y-96372668D01*
X210913230Y-95758382D01*
X210911309Y-95738873D01*
X210896377Y-95702825D01*
X210868787Y-95675235D01*
X210832739Y-95660303D01*
X210793721Y-95660303D01*
X210757673Y-95675235D01*
X210730083Y-95702825D01*
X210715151Y-95738873D01*
X210713230Y-95758382D01*
X210546563Y-95758382D01*
X210546563Y-94472668D01*
X210713230Y-94472668D01*
X210713230Y-95329810D01*
X210715151Y-95349319D01*
X210730083Y-95385367D01*
X210757673Y-95412957D01*
X210793721Y-95427889D01*
X210832739Y-95427889D01*
X210868787Y-95412957D01*
X210896377Y-95385367D01*
X210911309Y-95349319D01*
X210913230Y-95329810D01*
X210913230Y-95001239D01*
X212313230Y-95001239D01*
X212332739Y-94999318D01*
X212368787Y-94984386D01*
X212396377Y-94956796D01*
X212411309Y-94920748D01*
X212411309Y-94881730D01*
X212396377Y-94845682D01*
X212368787Y-94818092D01*
X212332739Y-94803160D01*
X212313230Y-94801239D01*
X210913230Y-94801239D01*
X210913230Y-94472668D01*
X210911309Y-94453159D01*
X210896377Y-94417111D01*
X210868787Y-94389521D01*
X210832739Y-94374589D01*
X210793721Y-94374589D01*
X210757673Y-94389521D01*
X210730083Y-94417111D01*
X210715151Y-94453159D01*
X210713230Y-94472668D01*
X210546563Y-94472668D01*
X210546563Y-93258382D01*
X210713230Y-93258382D01*
X210713230Y-93972668D01*
X210715151Y-93992177D01*
X210730083Y-94028225D01*
X210757673Y-94055815D01*
X210793721Y-94070747D01*
X210813230Y-94072668D01*
X212313230Y-94072668D01*
X212332739Y-94070747D01*
X212368787Y-94055815D01*
X212396377Y-94028225D01*
X212411309Y-93992177D01*
X212413230Y-93972668D01*
X212413230Y-93258382D01*
X212411309Y-93238873D01*
X212396377Y-93202825D01*
X212368787Y-93175235D01*
X212332739Y-93160303D01*
X212293721Y-93160303D01*
X212257673Y-93175235D01*
X212230083Y-93202825D01*
X212215151Y-93238873D01*
X212213230Y-93258382D01*
X212213230Y-93872668D01*
X211627516Y-93872668D01*
X211627516Y-93472668D01*
X211625595Y-93453159D01*
X211610663Y-93417111D01*
X211583073Y-93389521D01*
X211547025Y-93374589D01*
X211508007Y-93374589D01*
X211471959Y-93389521D01*
X211444369Y-93417111D01*
X211429437Y-93453159D01*
X211427516Y-93472668D01*
X211427516Y-93872668D01*
X210913230Y-93872668D01*
X210913230Y-93258382D01*
X210911309Y-93238873D01*
X210896377Y-93202825D01*
X210868787Y-93175235D01*
X210832739Y-93160303D01*
X210793721Y-93160303D01*
X210757673Y-93175235D01*
X210730083Y-93202825D01*
X210715151Y-93238873D01*
X210713230Y-93258382D01*
X210546563Y-93258382D01*
X210546563Y-92044096D01*
X210713230Y-92044096D01*
X210713230Y-92615525D01*
X210715151Y-92635034D01*
X210730083Y-92671082D01*
X210757673Y-92698672D01*
X210793721Y-92713604D01*
X210813230Y-92715525D01*
X212313230Y-92715525D01*
X212332739Y-92713604D01*
X212368787Y-92698672D01*
X212396377Y-92671082D01*
X212411309Y-92635034D01*
X212411309Y-92596016D01*
X212396377Y-92559968D01*
X212368787Y-92532378D01*
X212332739Y-92517446D01*
X212313230Y-92515525D01*
X211698944Y-92515525D01*
X211698944Y-92310447D01*
X212370576Y-91840305D01*
X212385457Y-91827544D01*
X212406426Y-91794639D01*
X212413206Y-91756214D01*
X212404767Y-91718120D01*
X212382392Y-91686155D01*
X212349487Y-91665186D01*
X212311062Y-91658406D01*
X212272968Y-91666845D01*
X212255884Y-91676459D01*
X211698944Y-92066316D01*
X211698944Y-92044096D01*
X211697023Y-92024587D01*
X211695647Y-92021266D01*
X211695393Y-92017684D01*
X211688387Y-91999375D01*
X211616959Y-91856518D01*
X211611673Y-91848121D01*
X211610663Y-91845682D01*
X211608409Y-91842935D01*
X211606516Y-91839928D01*
X211604521Y-91838198D01*
X211598227Y-91830528D01*
X211526798Y-91759099D01*
X211519131Y-91752807D01*
X211517399Y-91750810D01*
X211514387Y-91748914D01*
X211511644Y-91746663D01*
X211509206Y-91745653D01*
X211500808Y-91740367D01*
X211357951Y-91668939D01*
X211339643Y-91661933D01*
X211336059Y-91661678D01*
X211332739Y-91660303D01*
X211313230Y-91658382D01*
X211098944Y-91658382D01*
X211079435Y-91660303D01*
X211076114Y-91661678D01*
X211072532Y-91661933D01*
X211054223Y-91668939D01*
X210911366Y-91740367D01*
X210902970Y-91745651D01*
X210900529Y-91746663D01*
X210897781Y-91748918D01*
X210894776Y-91750810D01*
X210893045Y-91752804D01*
X210885376Y-91759100D01*
X210813948Y-91830529D01*
X210807655Y-91838195D01*
X210805659Y-91839927D01*
X210803765Y-91842934D01*
X210801511Y-91845682D01*
X210800499Y-91848123D01*
X210795216Y-91856518D01*
X210723787Y-91999374D01*
X210716781Y-92017683D01*
X210716526Y-92021266D01*
X210715151Y-92024587D01*
X210713230Y-92044096D01*
X210546563Y-92044096D01*
X210546563Y-90544096D01*
X210713230Y-90544096D01*
X210713230Y-90901239D01*
X210715151Y-90920748D01*
X210716526Y-90924068D01*
X210716781Y-90927652D01*
X210723787Y-90945961D01*
X210795216Y-91088817D01*
X210800499Y-91097211D01*
X210801511Y-91099653D01*
X210803765Y-91102400D01*
X210805659Y-91105408D01*
X210807655Y-91107139D01*
X210813948Y-91114806D01*
X210885376Y-91186235D01*
X210893045Y-91192530D01*
X210894776Y-91194525D01*
X210897781Y-91196416D01*
X210900529Y-91198672D01*
X210902970Y-91199683D01*
X210911366Y-91204968D01*
X211054223Y-91276396D01*
X211072532Y-91283402D01*
X211076114Y-91283656D01*
X211079435Y-91285032D01*
X211098944Y-91286953D01*
X211241802Y-91286953D01*
X211261311Y-91285032D01*
X211264631Y-91283656D01*
X211268215Y-91283402D01*
X211286523Y-91276396D01*
X211429380Y-91204968D01*
X211437776Y-91199682D01*
X211440217Y-91198672D01*
X211442962Y-91196418D01*
X211445971Y-91194525D01*
X211447703Y-91192527D01*
X211455370Y-91186235D01*
X211526798Y-91114806D01*
X211533090Y-91107139D01*
X211535087Y-91105408D01*
X211536980Y-91102399D01*
X211539235Y-91099653D01*
X211540245Y-91097212D01*
X211545530Y-91088818D01*
X211616959Y-90945961D01*
X211617505Y-90944532D01*
X211617935Y-90943953D01*
X211620853Y-90935782D01*
X211623965Y-90927652D01*
X211624016Y-90926929D01*
X211624530Y-90925492D01*
X211693294Y-90650431D01*
X211752558Y-90531904D01*
X211801038Y-90483424D01*
X211908266Y-90429810D01*
X212003908Y-90429810D01*
X212111136Y-90483424D01*
X212159616Y-90531904D01*
X212213230Y-90639131D01*
X212213230Y-90956441D01*
X212146934Y-91155330D01*
X212142587Y-91174446D01*
X212145353Y-91213366D01*
X212162803Y-91248265D01*
X212192279Y-91273830D01*
X212229295Y-91286168D01*
X212268215Y-91283402D01*
X212303114Y-91265952D01*
X212328679Y-91236476D01*
X212336670Y-91218576D01*
X212408098Y-91004291D01*
X212410297Y-90994619D01*
X212411309Y-90992177D01*
X212411657Y-90988638D01*
X212412445Y-90985175D01*
X212412257Y-90982541D01*
X212413230Y-90972668D01*
X212413230Y-90615525D01*
X212411309Y-90596016D01*
X212409933Y-90592695D01*
X212409679Y-90589113D01*
X212402673Y-90570804D01*
X212331245Y-90427947D01*
X212325959Y-90419550D01*
X212324949Y-90417111D01*
X212322695Y-90414364D01*
X212320802Y-90411357D01*
X212318807Y-90409627D01*
X212312513Y-90401957D01*
X212241084Y-90330528D01*
X212233417Y-90324236D01*
X212231685Y-90322239D01*
X212228673Y-90320343D01*
X212225930Y-90318092D01*
X212223492Y-90317082D01*
X212215094Y-90311796D01*
X212072238Y-90240367D01*
X212053929Y-90233361D01*
X212050345Y-90233106D01*
X212047025Y-90231731D01*
X212027516Y-90229810D01*
X211884659Y-90229810D01*
X211865150Y-90231731D01*
X211861829Y-90233106D01*
X211858246Y-90233361D01*
X211839937Y-90240367D01*
X211697080Y-90311796D01*
X211688681Y-90317082D01*
X211686245Y-90318092D01*
X211683501Y-90320343D01*
X211680490Y-90322239D01*
X211678757Y-90324236D01*
X211671091Y-90330528D01*
X211599662Y-90401957D01*
X211593370Y-90409623D01*
X211591373Y-90411356D01*
X211589477Y-90414367D01*
X211587226Y-90417111D01*
X211586216Y-90419548D01*
X211580930Y-90427947D01*
X211509501Y-90570803D01*
X211508954Y-90572231D01*
X211508525Y-90572811D01*
X211505606Y-90580981D01*
X211502495Y-90589112D01*
X211502443Y-90589834D01*
X211501930Y-90591272D01*
X211433165Y-90866333D01*
X211373900Y-90984862D01*
X211325423Y-91033339D01*
X211218195Y-91086953D01*
X211122551Y-91086953D01*
X211015322Y-91033339D01*
X210966846Y-90984862D01*
X210913230Y-90877630D01*
X210913230Y-90560323D01*
X210979527Y-90361433D01*
X210983874Y-90342318D01*
X210981108Y-90303398D01*
X210963658Y-90268499D01*
X210934182Y-90242934D01*
X210897166Y-90230595D01*
X210858246Y-90233361D01*
X210823347Y-90250811D01*
X210797782Y-90280287D01*
X210789791Y-90298187D01*
X210718362Y-90512473D01*
X210716162Y-90522145D01*
X210715151Y-90524587D01*
X210714802Y-90528124D01*
X210714015Y-90531588D01*
X210714202Y-90534222D01*
X210713230Y-90544096D01*
X210546563Y-90544096D01*
X210546563Y-88972668D01*
X210713230Y-88972668D01*
X210713230Y-89686954D01*
X210715151Y-89706463D01*
X210730083Y-89742511D01*
X210757673Y-89770101D01*
X210793721Y-89785033D01*
X210813230Y-89786954D01*
X212313230Y-89786954D01*
X212332739Y-89785033D01*
X212368787Y-89770101D01*
X212396377Y-89742511D01*
X212411309Y-89706463D01*
X212413230Y-89686954D01*
X212413230Y-88972668D01*
X212411309Y-88953159D01*
X212396377Y-88917111D01*
X212368787Y-88889521D01*
X212332739Y-88874589D01*
X212293721Y-88874589D01*
X212257673Y-88889521D01*
X212230083Y-88917111D01*
X212215151Y-88953159D01*
X212213230Y-88972668D01*
X212213230Y-89586954D01*
X211627516Y-89586954D01*
X211627516Y-89186954D01*
X211625595Y-89167445D01*
X211610663Y-89131397D01*
X211583073Y-89103807D01*
X211547025Y-89088875D01*
X211508007Y-89088875D01*
X211471959Y-89103807D01*
X211444369Y-89131397D01*
X211429437Y-89167445D01*
X211427516Y-89186954D01*
X211427516Y-89586954D01*
X210913230Y-89586954D01*
X210913230Y-88972668D01*
X210911309Y-88953159D01*
X210896377Y-88917111D01*
X210868787Y-88889521D01*
X210832739Y-88874589D01*
X210793721Y-88874589D01*
X210757673Y-88889521D01*
X210730083Y-88917111D01*
X210715151Y-88953159D01*
X210713230Y-88972668D01*
X210546563Y-88972668D01*
X210546563Y-88322826D01*
X210713474Y-88322826D01*
X210715151Y-88336019D01*
X210715151Y-88349320D01*
X210717590Y-88355208D01*
X210718394Y-88361533D01*
X210724994Y-88373082D01*
X210730083Y-88385368D01*
X210734590Y-88389875D01*
X210737753Y-88395410D01*
X210748267Y-88403552D01*
X210757673Y-88412958D01*
X210763563Y-88415397D01*
X210768602Y-88419300D01*
X210781430Y-88422798D01*
X210793721Y-88427890D01*
X210803698Y-88428872D01*
X210806245Y-88429567D01*
X210808212Y-88429316D01*
X210813230Y-88429811D01*
X212313230Y-88429811D01*
X212332739Y-88427890D01*
X212368787Y-88412958D01*
X212396377Y-88385368D01*
X212411309Y-88349320D01*
X212411309Y-88310302D01*
X212396377Y-88274254D01*
X212368787Y-88246664D01*
X212332739Y-88231732D01*
X212313230Y-88229811D01*
X211189786Y-88229811D01*
X212362844Y-87559492D01*
X212366955Y-87556573D01*
X212368787Y-87555815D01*
X212370652Y-87553949D01*
X212378830Y-87548145D01*
X212386976Y-87537625D01*
X212396377Y-87528225D01*
X212398815Y-87522337D01*
X212402720Y-87517296D01*
X212406219Y-87504463D01*
X212411309Y-87492177D01*
X212411309Y-87485801D01*
X212412986Y-87479652D01*
X212411309Y-87466458D01*
X212411309Y-87453159D01*
X212408869Y-87447270D01*
X212408066Y-87440946D01*
X212401465Y-87429394D01*
X212396377Y-87417111D01*
X212391871Y-87412605D01*
X212388707Y-87407068D01*
X212378187Y-87398921D01*
X212368787Y-87389521D01*
X212362899Y-87387082D01*
X212357858Y-87383178D01*
X212345025Y-87379678D01*
X212332739Y-87374589D01*
X212322761Y-87373606D01*
X212320215Y-87372912D01*
X212318247Y-87373162D01*
X212313230Y-87372668D01*
X210813230Y-87372668D01*
X210793721Y-87374589D01*
X210757673Y-87389521D01*
X210730083Y-87417111D01*
X210715151Y-87453159D01*
X210715151Y-87492177D01*
X210730083Y-87528225D01*
X210757673Y-87555815D01*
X210793721Y-87570747D01*
X210813230Y-87572668D01*
X211936674Y-87572668D01*
X210763616Y-88242987D01*
X210759505Y-88245905D01*
X210757673Y-88246664D01*
X210755806Y-88248530D01*
X210747631Y-88254334D01*
X210739488Y-88264848D01*
X210730083Y-88274254D01*
X210727643Y-88280144D01*
X210723741Y-88285183D01*
X210720242Y-88298011D01*
X210715151Y-88310302D01*
X210715151Y-88316677D01*
X210713474Y-88322826D01*
X210546563Y-88322826D01*
X210546563Y-87206001D01*
X212579897Y-87206001D01*
X212579897Y-101380271D01*
G37*
X184280042Y-44982933D02*
X185803852Y-44982933D01*
X169273457Y-44982933D02*
X170797267Y-44982933D01*
X170035362Y-45744838D02*
X170035362Y-44221028D01*
G36*
X209905272Y-100422583D02*
G01*
X210023802Y-100481848D01*
X210138491Y-100596537D01*
X210197322Y-100773030D01*
X210197322Y-101013948D01*
X208897322Y-101013948D01*
X208897322Y-100773032D01*
X208956153Y-100596538D01*
X209070842Y-100481848D01*
X209189370Y-100422583D01*
X209452488Y-100356805D01*
X209642156Y-100356805D01*
X209905272Y-100422583D01*
G37*
G36*
X209905272Y-90994011D02*
G01*
X210023802Y-91053276D01*
X210138491Y-91167965D01*
X210197322Y-91344458D01*
X210197322Y-91585376D01*
X208897322Y-91585376D01*
X208897322Y-91344460D01*
X208956153Y-91167966D01*
X209070842Y-91053276D01*
X209189370Y-90994011D01*
X209452488Y-90928233D01*
X209642156Y-90928233D01*
X209905272Y-90994011D01*
G37*
G36*
X209309516Y-88410419D02*
G01*
X209357992Y-88458895D01*
X209411608Y-88566126D01*
X209411608Y-88942519D01*
X208897322Y-88942519D01*
X208897322Y-88566127D01*
X208950938Y-88458895D01*
X208999413Y-88410419D01*
X209106643Y-88356804D01*
X209202286Y-88356804D01*
X209309516Y-88410419D01*
G37*
G36*
X210095228Y-88338989D02*
G01*
X210143708Y-88387469D01*
X210197322Y-88494696D01*
X210197322Y-88942519D01*
X209611608Y-88942519D01*
X209611608Y-88558745D01*
X209670438Y-88382252D01*
X209713701Y-88338989D01*
X209820929Y-88285376D01*
X209988001Y-88285376D01*
X210095228Y-88338989D01*
G37*
G36*
X210563989Y-101380615D02*
G01*
X208530655Y-101380615D01*
X208530655Y-100756805D01*
X208697322Y-100756805D01*
X208697322Y-101113948D01*
X208699243Y-101133457D01*
X208714175Y-101169505D01*
X208741765Y-101197095D01*
X208777813Y-101212027D01*
X208797322Y-101213948D01*
X210297322Y-101213948D01*
X210316831Y-101212027D01*
X210352879Y-101197095D01*
X210380469Y-101169505D01*
X210395401Y-101133457D01*
X210397322Y-101113948D01*
X210397322Y-100756805D01*
X210396349Y-100746931D01*
X210396537Y-100744298D01*
X210395749Y-100740834D01*
X210395401Y-100737296D01*
X210394389Y-100734853D01*
X210392190Y-100725182D01*
X210320762Y-100510896D01*
X210312771Y-100492996D01*
X210310415Y-100490280D01*
X210309041Y-100486961D01*
X210296604Y-100471808D01*
X210153746Y-100328951D01*
X210146081Y-100322660D01*
X210144348Y-100320662D01*
X210141335Y-100318766D01*
X210138593Y-100316515D01*
X210136155Y-100315505D01*
X210127757Y-100310219D01*
X209984901Y-100238790D01*
X209983472Y-100238243D01*
X209982893Y-100237814D01*
X209974722Y-100234895D01*
X209966592Y-100231784D01*
X209965869Y-100231732D01*
X209964432Y-100231219D01*
X209678718Y-100159791D01*
X209675338Y-100159291D01*
X209673974Y-100158726D01*
X209666622Y-100158002D01*
X209659326Y-100156923D01*
X209657867Y-100157140D01*
X209654465Y-100156805D01*
X209440179Y-100156805D01*
X209436776Y-100157140D01*
X209435318Y-100156923D01*
X209428020Y-100158002D01*
X209420670Y-100158726D01*
X209419306Y-100159290D01*
X209415925Y-100159791D01*
X209130212Y-100231219D01*
X209128774Y-100231732D01*
X209128052Y-100231784D01*
X209119921Y-100234895D01*
X209111751Y-100237814D01*
X209111171Y-100238243D01*
X209109743Y-100238790D01*
X208966886Y-100310219D01*
X208958488Y-100315504D01*
X208956050Y-100316515D01*
X208953305Y-100318767D01*
X208950296Y-100320662D01*
X208948563Y-100322659D01*
X208940897Y-100328952D01*
X208798040Y-100471808D01*
X208785604Y-100486962D01*
X208784229Y-100490280D01*
X208781874Y-100492996D01*
X208773883Y-100510896D01*
X208702454Y-100725182D01*
X208700254Y-100734854D01*
X208699243Y-100737296D01*
X208698894Y-100740833D01*
X208698107Y-100744297D01*
X208698294Y-100746931D01*
X208697322Y-100756805D01*
X208530655Y-100756805D01*
X208530655Y-98899662D01*
X208697322Y-98899662D01*
X208697322Y-99613948D01*
X208699243Y-99633457D01*
X208714175Y-99669505D01*
X208741765Y-99697095D01*
X208777813Y-99712027D01*
X208797322Y-99713948D01*
X210297322Y-99713948D01*
X210316831Y-99712027D01*
X210352879Y-99697095D01*
X210380469Y-99669505D01*
X210395401Y-99633457D01*
X210397322Y-99613948D01*
X210397322Y-98899662D01*
X210395401Y-98880153D01*
X210380469Y-98844105D01*
X210352879Y-98816515D01*
X210316831Y-98801583D01*
X210277813Y-98801583D01*
X210241765Y-98816515D01*
X210214175Y-98844105D01*
X210199243Y-98880153D01*
X210197322Y-98899662D01*
X210197322Y-99513948D01*
X209611608Y-99513948D01*
X209611608Y-99113948D01*
X209609687Y-99094439D01*
X209594755Y-99058391D01*
X209567165Y-99030801D01*
X209531117Y-99015869D01*
X209492099Y-99015869D01*
X209456051Y-99030801D01*
X209428461Y-99058391D01*
X209413529Y-99094439D01*
X209411608Y-99113948D01*
X209411608Y-99513948D01*
X208897322Y-99513948D01*
X208897322Y-98899662D01*
X208895401Y-98880153D01*
X208880469Y-98844105D01*
X208852879Y-98816515D01*
X208816831Y-98801583D01*
X208777813Y-98801583D01*
X208741765Y-98816515D01*
X208714175Y-98844105D01*
X208699243Y-98880153D01*
X208697322Y-98899662D01*
X208530655Y-98899662D01*
X208530655Y-97685376D01*
X208697322Y-97685376D01*
X208697322Y-98042519D01*
X208699243Y-98062028D01*
X208700618Y-98065348D01*
X208700873Y-98068932D01*
X208707879Y-98087241D01*
X208779308Y-98230097D01*
X208784591Y-98238491D01*
X208785603Y-98240933D01*
X208787857Y-98243680D01*
X208789751Y-98246688D01*
X208791747Y-98248419D01*
X208798040Y-98256086D01*
X208869468Y-98327515D01*
X208877137Y-98333810D01*
X208878868Y-98335805D01*
X208881873Y-98337696D01*
X208884621Y-98339952D01*
X208887062Y-98340963D01*
X208895458Y-98346248D01*
X209038315Y-98417676D01*
X209056624Y-98424682D01*
X209060206Y-98424936D01*
X209063527Y-98426312D01*
X209083036Y-98428233D01*
X209225894Y-98428233D01*
X209245403Y-98426312D01*
X209248723Y-98424936D01*
X209252307Y-98424682D01*
X209270615Y-98417676D01*
X209413472Y-98346248D01*
X209421868Y-98340962D01*
X209424309Y-98339952D01*
X209427054Y-98337698D01*
X209430063Y-98335805D01*
X209431795Y-98333807D01*
X209439462Y-98327515D01*
X209510890Y-98256086D01*
X209517182Y-98248419D01*
X209519179Y-98246688D01*
X209521072Y-98243679D01*
X209523327Y-98240933D01*
X209524337Y-98238492D01*
X209529622Y-98230098D01*
X209601051Y-98087241D01*
X209601597Y-98085812D01*
X209602027Y-98085233D01*
X209604945Y-98077062D01*
X209608057Y-98068932D01*
X209608108Y-98068209D01*
X209608622Y-98066772D01*
X209677386Y-97791711D01*
X209736650Y-97673184D01*
X209785130Y-97624704D01*
X209892358Y-97571090D01*
X209988000Y-97571090D01*
X210095228Y-97624704D01*
X210143708Y-97673184D01*
X210197322Y-97780411D01*
X210197322Y-98097721D01*
X210131026Y-98296610D01*
X210126679Y-98315726D01*
X210129445Y-98354646D01*
X210146895Y-98389545D01*
X210176371Y-98415110D01*
X210213387Y-98427448D01*
X210252307Y-98424682D01*
X210287206Y-98407232D01*
X210312771Y-98377756D01*
X210320762Y-98359856D01*
X210392190Y-98145571D01*
X210394389Y-98135899D01*
X210395401Y-98133457D01*
X210395749Y-98129918D01*
X210396537Y-98126455D01*
X210396349Y-98123821D01*
X210397322Y-98113948D01*
X210397322Y-97756805D01*
X210395401Y-97737296D01*
X210394025Y-97733975D01*
X210393771Y-97730393D01*
X210386765Y-97712084D01*
X210315337Y-97569227D01*
X210310051Y-97560830D01*
X210309041Y-97558391D01*
X210306787Y-97555644D01*
X210304894Y-97552637D01*
X210302899Y-97550907D01*
X210296605Y-97543237D01*
X210225176Y-97471808D01*
X210217509Y-97465516D01*
X210215777Y-97463519D01*
X210212765Y-97461623D01*
X210210022Y-97459372D01*
X210207584Y-97458362D01*
X210199186Y-97453076D01*
X210056330Y-97381647D01*
X210038021Y-97374641D01*
X210034437Y-97374386D01*
X210031117Y-97373011D01*
X210011608Y-97371090D01*
X209868751Y-97371090D01*
X209849242Y-97373011D01*
X209845921Y-97374386D01*
X209842338Y-97374641D01*
X209824029Y-97381647D01*
X209681172Y-97453076D01*
X209672773Y-97458362D01*
X209670337Y-97459372D01*
X209667593Y-97461623D01*
X209664582Y-97463519D01*
X209662849Y-97465516D01*
X209655183Y-97471808D01*
X209583754Y-97543237D01*
X209577462Y-97550903D01*
X209575465Y-97552636D01*
X209573569Y-97555647D01*
X209571318Y-97558391D01*
X209570308Y-97560828D01*
X209565022Y-97569227D01*
X209493593Y-97712083D01*
X209493046Y-97713511D01*
X209492617Y-97714091D01*
X209489698Y-97722261D01*
X209486587Y-97730392D01*
X209486535Y-97731114D01*
X209486022Y-97732552D01*
X209417257Y-98007613D01*
X209357992Y-98126142D01*
X209309515Y-98174619D01*
X209202287Y-98228233D01*
X209106643Y-98228233D01*
X208999414Y-98174619D01*
X208950938Y-98126142D01*
X208897322Y-98018910D01*
X208897322Y-97701603D01*
X208963619Y-97502713D01*
X208967966Y-97483598D01*
X208965200Y-97444678D01*
X208947750Y-97409779D01*
X208918274Y-97384214D01*
X208881258Y-97371875D01*
X208842338Y-97374641D01*
X208807439Y-97392091D01*
X208781874Y-97421567D01*
X208773883Y-97439467D01*
X208702454Y-97653753D01*
X208700254Y-97663425D01*
X208699243Y-97665867D01*
X208698894Y-97669404D01*
X208698107Y-97672868D01*
X208698294Y-97675502D01*
X208697322Y-97685376D01*
X208530655Y-97685376D01*
X208530655Y-96808725D01*
X208699243Y-96808725D01*
X208699243Y-96847743D01*
X208714175Y-96883791D01*
X208741765Y-96911381D01*
X208777813Y-96926313D01*
X208797322Y-96928234D01*
X210297322Y-96928234D01*
X210316831Y-96926313D01*
X210352879Y-96911381D01*
X210380469Y-96883791D01*
X210395401Y-96847743D01*
X210395401Y-96808725D01*
X210380469Y-96772677D01*
X210352879Y-96745087D01*
X210316831Y-96730155D01*
X210297322Y-96728234D01*
X208797322Y-96728234D01*
X208777813Y-96730155D01*
X208741765Y-96745087D01*
X208714175Y-96772677D01*
X208699243Y-96808725D01*
X208530655Y-96808725D01*
X208530655Y-95471091D01*
X208697322Y-95471091D01*
X208697322Y-95685376D01*
X208698294Y-95695249D01*
X208698107Y-95697884D01*
X208698894Y-95701347D01*
X208699243Y-95704885D01*
X208700254Y-95707326D01*
X208702454Y-95716999D01*
X208773883Y-95931285D01*
X208781874Y-95949185D01*
X208784229Y-95951900D01*
X208785604Y-95955219D01*
X208798040Y-95970373D01*
X208940897Y-96113229D01*
X208948563Y-96119521D01*
X208950296Y-96121519D01*
X208953305Y-96123413D01*
X208956050Y-96125666D01*
X208958488Y-96126676D01*
X208966886Y-96131962D01*
X209109743Y-96203391D01*
X209111171Y-96203937D01*
X209111751Y-96204367D01*
X209119921Y-96207285D01*
X209128052Y-96210397D01*
X209128774Y-96210448D01*
X209130212Y-96210962D01*
X209415925Y-96282390D01*
X209419306Y-96282890D01*
X209420670Y-96283455D01*
X209428020Y-96284178D01*
X209435318Y-96285258D01*
X209436776Y-96285040D01*
X209440179Y-96285376D01*
X209654465Y-96285376D01*
X209657867Y-96285040D01*
X209659326Y-96285258D01*
X209666622Y-96284178D01*
X209673974Y-96283455D01*
X209675338Y-96282889D01*
X209678718Y-96282390D01*
X209964432Y-96210962D01*
X209965869Y-96210448D01*
X209966592Y-96210397D01*
X209974722Y-96207285D01*
X209982893Y-96204367D01*
X209983472Y-96203937D01*
X209984901Y-96203391D01*
X210127757Y-96131962D01*
X210136155Y-96126675D01*
X210138593Y-96125666D01*
X210141335Y-96123414D01*
X210144348Y-96121519D01*
X210146081Y-96119520D01*
X210153746Y-96113230D01*
X210296604Y-95970373D01*
X210309041Y-95955220D01*
X210310415Y-95951900D01*
X210312771Y-95949185D01*
X210320762Y-95931285D01*
X210392190Y-95716999D01*
X210394389Y-95707327D01*
X210395401Y-95704885D01*
X210395749Y-95701346D01*
X210396537Y-95697883D01*
X210396349Y-95695249D01*
X210397322Y-95685376D01*
X210397322Y-95542519D01*
X210396349Y-95532645D01*
X210396537Y-95530012D01*
X210395749Y-95526548D01*
X210395401Y-95523010D01*
X210394389Y-95520567D01*
X210392190Y-95510896D01*
X210320762Y-95296610D01*
X210312771Y-95278710D01*
X210310416Y-95275994D01*
X210309041Y-95272675D01*
X210296604Y-95257522D01*
X210225175Y-95186094D01*
X210210022Y-95173657D01*
X210184531Y-95163099D01*
X210173974Y-95158726D01*
X210154465Y-95156805D01*
X209654465Y-95156805D01*
X209634956Y-95158726D01*
X209598908Y-95173658D01*
X209571318Y-95201248D01*
X209556386Y-95237296D01*
X209554465Y-95256805D01*
X209554465Y-95542519D01*
X209556386Y-95562028D01*
X209571318Y-95598076D01*
X209598908Y-95625666D01*
X209634956Y-95640598D01*
X209673974Y-95640598D01*
X209710022Y-95625666D01*
X209737612Y-95598076D01*
X209752544Y-95562028D01*
X209754465Y-95542519D01*
X209754465Y-95356805D01*
X210113044Y-95356805D01*
X210138491Y-95382251D01*
X210197322Y-95558744D01*
X210197322Y-95669150D01*
X210138491Y-95845643D01*
X210023802Y-95960332D01*
X209905272Y-96019597D01*
X209642156Y-96085376D01*
X209452488Y-96085376D01*
X209189370Y-96019597D01*
X209070842Y-95960332D01*
X208956153Y-95845642D01*
X208897322Y-95669148D01*
X208897322Y-95494698D01*
X208958194Y-95372954D01*
X208965200Y-95354646D01*
X208967966Y-95315726D01*
X208955627Y-95278710D01*
X208930063Y-95249233D01*
X208895164Y-95231784D01*
X208856244Y-95229018D01*
X208819228Y-95241357D01*
X208789751Y-95266921D01*
X208779308Y-95283512D01*
X208707879Y-95426370D01*
X208700873Y-95444678D01*
X208700618Y-95448261D01*
X208699243Y-95451582D01*
X208697322Y-95471091D01*
X208530655Y-95471091D01*
X208530655Y-94606963D01*
X208697566Y-94606963D01*
X208699243Y-94620156D01*
X208699243Y-94633457D01*
X208701682Y-94639345D01*
X208702486Y-94645670D01*
X208709086Y-94657219D01*
X208714175Y-94669505D01*
X208718682Y-94674012D01*
X208721845Y-94679547D01*
X208732359Y-94687689D01*
X208741765Y-94697095D01*
X208747655Y-94699534D01*
X208752694Y-94703437D01*
X208765522Y-94706935D01*
X208777813Y-94712027D01*
X208787790Y-94713009D01*
X208790337Y-94713704D01*
X208792304Y-94713453D01*
X208797322Y-94713948D01*
X210297322Y-94713948D01*
X210316831Y-94712027D01*
X210352879Y-94697095D01*
X210380469Y-94669505D01*
X210395401Y-94633457D01*
X210395401Y-94594439D01*
X210380469Y-94558391D01*
X210352879Y-94530801D01*
X210316831Y-94515869D01*
X210297322Y-94513948D01*
X209173878Y-94513948D01*
X210346936Y-93843629D01*
X210351047Y-93840710D01*
X210352879Y-93839952D01*
X210354744Y-93838086D01*
X210362922Y-93832282D01*
X210371068Y-93821762D01*
X210380469Y-93812362D01*
X210382907Y-93806474D01*
X210386812Y-93801433D01*
X210390311Y-93788600D01*
X210395401Y-93776314D01*
X210395401Y-93769938D01*
X210397078Y-93763789D01*
X210395401Y-93750595D01*
X210395401Y-93737296D01*
X210392961Y-93731407D01*
X210392158Y-93725083D01*
X210385557Y-93713531D01*
X210380469Y-93701248D01*
X210375963Y-93696742D01*
X210372799Y-93691205D01*
X210362279Y-93683058D01*
X210352879Y-93673658D01*
X210346991Y-93671219D01*
X210341950Y-93667315D01*
X210329117Y-93663815D01*
X210316831Y-93658726D01*
X210306853Y-93657743D01*
X210304307Y-93657049D01*
X210302339Y-93657299D01*
X210297322Y-93656805D01*
X208797322Y-93656805D01*
X208777813Y-93658726D01*
X208741765Y-93673658D01*
X208714175Y-93701248D01*
X208699243Y-93737296D01*
X208699243Y-93776314D01*
X208714175Y-93812362D01*
X208741765Y-93839952D01*
X208777813Y-93854884D01*
X208797322Y-93856805D01*
X209920766Y-93856805D01*
X208747708Y-94527124D01*
X208743597Y-94530042D01*
X208741765Y-94530801D01*
X208739898Y-94532667D01*
X208731723Y-94538471D01*
X208723580Y-94548985D01*
X208714175Y-94558391D01*
X208711735Y-94564281D01*
X208707833Y-94569320D01*
X208704334Y-94582148D01*
X208699243Y-94594439D01*
X208699243Y-94600814D01*
X208697566Y-94606963D01*
X208530655Y-94606963D01*
X208530655Y-92328233D01*
X208697322Y-92328233D01*
X208697322Y-93042519D01*
X208699243Y-93062028D01*
X208714175Y-93098076D01*
X208741765Y-93125666D01*
X208777813Y-93140598D01*
X208797322Y-93142519D01*
X210297322Y-93142519D01*
X210316831Y-93140598D01*
X210352879Y-93125666D01*
X210380469Y-93098076D01*
X210395401Y-93062028D01*
X210397322Y-93042519D01*
X210397322Y-92328233D01*
X210395401Y-92308724D01*
X210380469Y-92272676D01*
X210352879Y-92245086D01*
X210316831Y-92230154D01*
X210277813Y-92230154D01*
X210241765Y-92245086D01*
X210214175Y-92272676D01*
X210199243Y-92308724D01*
X210197322Y-92328233D01*
X210197322Y-92942519D01*
X209611608Y-92942519D01*
X209611608Y-92542519D01*
X209609687Y-92523010D01*
X209594755Y-92486962D01*
X209567165Y-92459372D01*
X209531117Y-92444440D01*
X209492099Y-92444440D01*
X209456051Y-92459372D01*
X209428461Y-92486962D01*
X209413529Y-92523010D01*
X209411608Y-92542519D01*
X209411608Y-92942519D01*
X208897322Y-92942519D01*
X208897322Y-92328233D01*
X208895401Y-92308724D01*
X208880469Y-92272676D01*
X208852879Y-92245086D01*
X208816831Y-92230154D01*
X208777813Y-92230154D01*
X208741765Y-92245086D01*
X208714175Y-92272676D01*
X208699243Y-92308724D01*
X208697322Y-92328233D01*
X208530655Y-92328233D01*
X208530655Y-91328233D01*
X208697322Y-91328233D01*
X208697322Y-91685376D01*
X208699243Y-91704885D01*
X208714175Y-91740933D01*
X208741765Y-91768523D01*
X208777813Y-91783455D01*
X208797322Y-91785376D01*
X210297322Y-91785376D01*
X210316831Y-91783455D01*
X210352879Y-91768523D01*
X210380469Y-91740933D01*
X210395401Y-91704885D01*
X210397322Y-91685376D01*
X210397322Y-91328233D01*
X210396349Y-91318359D01*
X210396537Y-91315726D01*
X210395749Y-91312262D01*
X210395401Y-91308724D01*
X210394389Y-91306281D01*
X210392190Y-91296610D01*
X210320762Y-91082324D01*
X210312771Y-91064424D01*
X210310415Y-91061708D01*
X210309041Y-91058389D01*
X210296604Y-91043236D01*
X210153746Y-90900379D01*
X210146081Y-90894088D01*
X210144348Y-90892090D01*
X210141335Y-90890194D01*
X210138593Y-90887943D01*
X210136155Y-90886933D01*
X210127757Y-90881647D01*
X209984901Y-90810218D01*
X209983472Y-90809671D01*
X209982893Y-90809242D01*
X209974722Y-90806323D01*
X209966592Y-90803212D01*
X209965869Y-90803160D01*
X209964432Y-90802647D01*
X209678718Y-90731219D01*
X209675338Y-90730719D01*
X209673974Y-90730154D01*
X209666622Y-90729430D01*
X209659326Y-90728351D01*
X209657867Y-90728568D01*
X209654465Y-90728233D01*
X209440179Y-90728233D01*
X209436776Y-90728568D01*
X209435318Y-90728351D01*
X209428020Y-90729430D01*
X209420670Y-90730154D01*
X209419306Y-90730718D01*
X209415925Y-90731219D01*
X209130212Y-90802647D01*
X209128774Y-90803160D01*
X209128052Y-90803212D01*
X209119921Y-90806323D01*
X209111751Y-90809242D01*
X209111171Y-90809671D01*
X209109743Y-90810218D01*
X208966886Y-90881647D01*
X208958488Y-90886932D01*
X208956050Y-90887943D01*
X208953305Y-90890195D01*
X208950296Y-90892090D01*
X208948563Y-90894087D01*
X208940897Y-90900380D01*
X208798040Y-91043236D01*
X208785604Y-91058390D01*
X208784229Y-91061708D01*
X208781874Y-91064424D01*
X208773883Y-91082324D01*
X208702454Y-91296610D01*
X208700254Y-91306282D01*
X208699243Y-91308724D01*
X208698894Y-91312261D01*
X208698107Y-91315725D01*
X208698294Y-91318359D01*
X208697322Y-91328233D01*
X208530655Y-91328233D01*
X208530655Y-88542519D01*
X208697322Y-88542519D01*
X208697322Y-89042519D01*
X208699243Y-89062028D01*
X208714175Y-89098076D01*
X208741765Y-89125666D01*
X208777813Y-89140598D01*
X208797322Y-89142519D01*
X210297322Y-89142519D01*
X210316831Y-89140598D01*
X210352879Y-89125666D01*
X210380469Y-89098076D01*
X210395401Y-89062028D01*
X210397322Y-89042519D01*
X210397322Y-88471090D01*
X210395401Y-88451581D01*
X210394025Y-88448260D01*
X210393771Y-88444678D01*
X210386765Y-88426369D01*
X210315337Y-88283512D01*
X210310051Y-88275115D01*
X210309041Y-88272676D01*
X210306787Y-88269929D01*
X210304894Y-88266922D01*
X210302899Y-88265192D01*
X210296605Y-88257522D01*
X210225176Y-88186093D01*
X210217509Y-88179801D01*
X210215777Y-88177804D01*
X210212765Y-88175908D01*
X210210022Y-88173657D01*
X210207584Y-88172647D01*
X210199186Y-88167361D01*
X210056329Y-88095933D01*
X210038021Y-88088927D01*
X210034437Y-88088672D01*
X210031117Y-88087297D01*
X210011608Y-88085376D01*
X209797322Y-88085376D01*
X209777813Y-88087297D01*
X209774492Y-88088672D01*
X209770910Y-88088927D01*
X209752601Y-88095933D01*
X209609744Y-88167361D01*
X209601347Y-88172646D01*
X209598908Y-88173657D01*
X209596161Y-88175910D01*
X209593154Y-88177804D01*
X209591424Y-88179798D01*
X209583754Y-88186093D01*
X209512325Y-88257522D01*
X209499889Y-88272676D01*
X209498514Y-88275994D01*
X209496159Y-88278710D01*
X209488168Y-88296611D01*
X209485763Y-88303824D01*
X209439462Y-88257523D01*
X209431795Y-88251230D01*
X209430063Y-88249233D01*
X209427054Y-88247339D01*
X209424309Y-88245086D01*
X209421868Y-88244075D01*
X209413472Y-88238790D01*
X209270616Y-88167361D01*
X209252307Y-88160355D01*
X209248723Y-88160100D01*
X209245403Y-88158725D01*
X209225894Y-88156804D01*
X209083036Y-88156804D01*
X209063527Y-88158725D01*
X209060206Y-88160100D01*
X209056623Y-88160355D01*
X209038314Y-88167361D01*
X208895457Y-88238790D01*
X208887059Y-88244075D01*
X208884621Y-88245086D01*
X208881876Y-88247338D01*
X208878867Y-88249233D01*
X208877134Y-88251230D01*
X208869468Y-88257523D01*
X208798040Y-88328952D01*
X208791747Y-88336618D01*
X208789751Y-88338350D01*
X208787857Y-88341357D01*
X208785603Y-88344105D01*
X208784591Y-88346546D01*
X208779308Y-88354941D01*
X208707879Y-88497797D01*
X208700873Y-88516106D01*
X208700618Y-88519689D01*
X208699243Y-88523010D01*
X208697322Y-88542519D01*
X208530655Y-88542519D01*
X208530655Y-86759036D01*
X208697347Y-86759036D01*
X208705811Y-86797125D01*
X208728207Y-86829076D01*
X208743634Y-86841170D01*
X209396772Y-87256804D01*
X208743634Y-87672438D01*
X208728207Y-87684532D01*
X208705811Y-87716483D01*
X208697347Y-87754572D01*
X208704103Y-87793001D01*
X208725050Y-87825919D01*
X208757001Y-87848315D01*
X208795090Y-87856779D01*
X208833519Y-87850023D01*
X208851010Y-87841170D01*
X209612155Y-87356804D01*
X210297322Y-87356804D01*
X210316831Y-87354883D01*
X210352879Y-87339951D01*
X210380469Y-87312361D01*
X210395401Y-87276313D01*
X210395401Y-87237295D01*
X210380469Y-87201247D01*
X210352879Y-87173657D01*
X210316831Y-87158725D01*
X210297322Y-87156804D01*
X209612155Y-87156804D01*
X208851010Y-86672438D01*
X208833519Y-86663585D01*
X208795090Y-86656829D01*
X208757001Y-86665293D01*
X208725050Y-86687689D01*
X208704103Y-86720607D01*
X208697347Y-86759036D01*
X208530655Y-86759036D01*
X208530655Y-86490162D01*
X210563989Y-86490162D01*
X210563989Y-101380615D01*
G37*
X174275652Y-44982933D02*
X175799462Y-44982933D01*
D11*
G36*
X202356616Y-99738786D02*
G01*
X202453145Y-99835315D01*
X202557376Y-100043776D01*
X202557376Y-100775033D01*
X201547852Y-100775033D01*
X201547852Y-100043775D01*
X201652081Y-99835315D01*
X201748610Y-99738786D01*
X201957071Y-99634556D01*
X202148156Y-99634556D01*
X202356616Y-99738786D01*
G37*
G36*
X203797093Y-99607834D02*
G01*
X203893622Y-99704363D01*
X203997852Y-99912823D01*
X203997852Y-100775033D01*
X202857376Y-100775033D01*
X202857376Y-100032708D01*
X202969433Y-99696535D01*
X203058134Y-99607833D01*
X203266594Y-99503604D01*
X203588632Y-99503604D01*
X203797093Y-99607834D01*
G37*
G36*
X203678307Y-96739048D02*
G01*
X203893622Y-96954363D01*
X203997852Y-97162823D01*
X203997852Y-97615814D01*
X203893622Y-97824274D01*
X203678307Y-98039588D01*
X203212721Y-98155985D01*
X202332983Y-98155985D01*
X201867396Y-98039588D01*
X201652082Y-97824274D01*
X201547852Y-97615813D01*
X201547852Y-97162823D01*
X201652082Y-96954362D01*
X201867396Y-96739048D01*
X202332983Y-96622652D01*
X203212721Y-96622652D01*
X203678307Y-96739048D01*
G37*
G36*
X203678307Y-85477144D02*
G01*
X203893622Y-85692459D01*
X203997852Y-85900919D01*
X203997852Y-86353910D01*
X203893622Y-86562370D01*
X203678307Y-86777684D01*
X203212721Y-86894081D01*
X202332983Y-86894081D01*
X201867396Y-86777684D01*
X201652082Y-86562370D01*
X201547852Y-86353909D01*
X201547852Y-85900919D01*
X201652082Y-85692458D01*
X201867396Y-85477144D01*
X202332983Y-85360748D01*
X203212721Y-85360748D01*
X203678307Y-85477144D01*
G37*
G36*
X204603408Y-101380589D02*
G01*
X200942296Y-101380589D01*
X200942296Y-100008366D01*
X201247852Y-100008366D01*
X201247852Y-100925033D01*
X201250734Y-100954297D01*
X201273132Y-101008369D01*
X201314516Y-101049753D01*
X201368588Y-101072151D01*
X201397852Y-101075033D01*
X204147852Y-101075033D01*
X204177116Y-101072151D01*
X204231188Y-101049753D01*
X204272572Y-101008369D01*
X204294970Y-100954297D01*
X204297852Y-100925033D01*
X204297852Y-99877414D01*
X204294970Y-99848150D01*
X204292906Y-99843169D01*
X204292525Y-99837795D01*
X204282016Y-99810332D01*
X204151064Y-99548427D01*
X204143136Y-99535833D01*
X204141621Y-99532174D01*
X204138239Y-99528054D01*
X204135399Y-99523541D01*
X204132405Y-99520944D01*
X204122966Y-99509443D01*
X203992013Y-99378490D01*
X203980508Y-99369048D01*
X203977914Y-99366057D01*
X203973405Y-99363218D01*
X203969282Y-99359835D01*
X203965619Y-99358317D01*
X203953028Y-99350392D01*
X203691124Y-99219440D01*
X203663660Y-99208930D01*
X203658284Y-99208548D01*
X203653306Y-99206486D01*
X203624042Y-99203604D01*
X203231185Y-99203604D01*
X203201921Y-99206486D01*
X203196940Y-99208549D01*
X203191566Y-99208931D01*
X203164103Y-99219440D01*
X202902198Y-99350392D01*
X202889606Y-99358318D01*
X202885944Y-99359835D01*
X202881821Y-99363218D01*
X202877312Y-99366057D01*
X202874716Y-99369049D01*
X202863214Y-99378490D01*
X202732262Y-99509443D01*
X202713607Y-99532174D01*
X202711544Y-99537153D01*
X202708014Y-99541224D01*
X202696026Y-99568075D01*
X202674561Y-99632467D01*
X202551537Y-99509443D01*
X202540035Y-99500004D01*
X202537439Y-99497010D01*
X202532925Y-99494169D01*
X202528806Y-99490788D01*
X202525146Y-99489272D01*
X202512553Y-99481345D01*
X202250648Y-99350392D01*
X202223185Y-99339882D01*
X202217807Y-99339499D01*
X202212830Y-99337438D01*
X202183566Y-99334556D01*
X201921661Y-99334556D01*
X201892397Y-99337438D01*
X201887416Y-99339501D01*
X201882042Y-99339883D01*
X201854579Y-99350392D01*
X201592675Y-99481345D01*
X201580081Y-99489272D01*
X201576422Y-99490788D01*
X201572301Y-99494169D01*
X201567789Y-99497010D01*
X201565192Y-99500003D01*
X201553692Y-99509442D01*
X201422738Y-99640395D01*
X201413294Y-99651901D01*
X201410305Y-99654494D01*
X201407469Y-99658999D01*
X201404083Y-99663125D01*
X201402564Y-99666790D01*
X201394640Y-99679380D01*
X201263688Y-99941284D01*
X201253178Y-99968748D01*
X201252796Y-99974123D01*
X201250734Y-99979102D01*
X201247852Y-100008366D01*
X200942296Y-100008366D01*
X200942296Y-97127414D01*
X201247852Y-97127414D01*
X201247852Y-97651223D01*
X201250734Y-97680487D01*
X201252796Y-97685465D01*
X201253178Y-97690841D01*
X201263688Y-97718305D01*
X201394640Y-97980209D01*
X201402565Y-97992800D01*
X201404083Y-97996463D01*
X201407466Y-98000586D01*
X201410305Y-98005095D01*
X201413296Y-98007689D01*
X201422738Y-98019194D01*
X201684643Y-98281099D01*
X201707374Y-98299754D01*
X201717677Y-98304021D01*
X201726638Y-98310661D01*
X201754329Y-98320554D01*
X202278139Y-98451506D01*
X202283210Y-98452255D01*
X202285255Y-98453103D01*
X202296277Y-98454188D01*
X202307228Y-98455808D01*
X202309415Y-98455482D01*
X202314519Y-98455985D01*
X203231185Y-98455985D01*
X203236288Y-98455482D01*
X203238476Y-98455808D01*
X203249426Y-98454188D01*
X203260449Y-98453103D01*
X203262493Y-98452255D01*
X203267565Y-98451506D01*
X203791375Y-98320554D01*
X203819067Y-98310661D01*
X203828028Y-98304021D01*
X203838330Y-98299754D01*
X203861061Y-98281099D01*
X204122966Y-98019194D01*
X204132405Y-98007692D01*
X204135399Y-98005096D01*
X204138239Y-98000582D01*
X204141621Y-97996463D01*
X204143136Y-97992803D01*
X204151064Y-97980210D01*
X204282016Y-97718305D01*
X204292525Y-97690842D01*
X204292906Y-97685467D01*
X204294970Y-97680487D01*
X204297852Y-97651223D01*
X204297852Y-97127414D01*
X204294970Y-97098150D01*
X204292906Y-97093169D01*
X204292525Y-97087795D01*
X204282016Y-97060332D01*
X204151064Y-96798427D01*
X204143136Y-96785833D01*
X204141621Y-96782174D01*
X204138239Y-96778054D01*
X204135399Y-96773541D01*
X204132405Y-96770944D01*
X204122966Y-96759443D01*
X203861061Y-96497538D01*
X203838330Y-96478883D01*
X203828028Y-96474615D01*
X203819067Y-96467976D01*
X203791375Y-96458083D01*
X203267565Y-96327131D01*
X203262493Y-96326381D01*
X203260449Y-96325534D01*
X203249426Y-96324448D01*
X203238476Y-96322829D01*
X203236288Y-96323154D01*
X203231185Y-96322652D01*
X202314519Y-96322652D01*
X202309415Y-96323154D01*
X202307228Y-96322829D01*
X202296277Y-96324448D01*
X202285255Y-96325534D01*
X202283210Y-96326381D01*
X202278139Y-96327131D01*
X201754329Y-96458083D01*
X201726638Y-96467976D01*
X201717677Y-96474615D01*
X201707374Y-96478883D01*
X201684643Y-96497538D01*
X201422738Y-96759443D01*
X201413296Y-96770947D01*
X201410305Y-96773542D01*
X201407466Y-96778050D01*
X201404083Y-96782174D01*
X201402565Y-96785836D01*
X201394640Y-96798428D01*
X201263688Y-97060332D01*
X201253178Y-97087796D01*
X201252796Y-97093171D01*
X201250734Y-97098150D01*
X201247852Y-97127414D01*
X200942296Y-97127414D01*
X200942296Y-94115509D01*
X201247852Y-94115509D01*
X201247852Y-95686938D01*
X201250734Y-95716202D01*
X201273132Y-95770274D01*
X201314516Y-95811658D01*
X201368588Y-95834056D01*
X201427116Y-95834056D01*
X201481188Y-95811658D01*
X201522572Y-95770274D01*
X201544970Y-95716202D01*
X201547852Y-95686938D01*
X201547852Y-95051223D01*
X204147852Y-95051223D01*
X204177116Y-95048341D01*
X204231188Y-95025943D01*
X204272572Y-94984559D01*
X204294970Y-94930487D01*
X204294970Y-94871959D01*
X204272572Y-94817887D01*
X204231188Y-94776503D01*
X204177116Y-94754105D01*
X204147852Y-94751223D01*
X201547852Y-94751223D01*
X201547852Y-94115509D01*
X201544970Y-94086245D01*
X201522572Y-94032173D01*
X201481188Y-93990789D01*
X201427116Y-93968391D01*
X201368588Y-93968391D01*
X201314516Y-93990789D01*
X201273132Y-94032173D01*
X201250734Y-94086245D01*
X201247852Y-94115509D01*
X200942296Y-94115509D01*
X200942296Y-91103605D01*
X202950233Y-91103605D01*
X202950233Y-93198843D01*
X202953115Y-93228107D01*
X202975513Y-93282179D01*
X203016897Y-93323563D01*
X203070969Y-93345961D01*
X203129497Y-93345961D01*
X203183569Y-93323563D01*
X203224953Y-93282179D01*
X203247351Y-93228107D01*
X203250233Y-93198843D01*
X203250233Y-91103605D01*
X203247351Y-91074341D01*
X203224953Y-91020269D01*
X203183569Y-90978885D01*
X203129497Y-90956487D01*
X203070969Y-90956487D01*
X203016897Y-90978885D01*
X202975513Y-91020269D01*
X202953115Y-91074341D01*
X202950233Y-91103605D01*
X200942296Y-91103605D01*
X200942296Y-88193388D01*
X201250734Y-88193388D01*
X201250734Y-88251916D01*
X201273132Y-88305988D01*
X201314516Y-88347372D01*
X201368588Y-88369770D01*
X201397852Y-88372652D01*
X202557376Y-88372652D01*
X202557376Y-89644081D01*
X201397852Y-89644081D01*
X201368588Y-89646963D01*
X201314516Y-89669361D01*
X201273132Y-89710745D01*
X201250734Y-89764817D01*
X201250734Y-89823345D01*
X201273132Y-89877417D01*
X201314516Y-89918801D01*
X201368588Y-89941199D01*
X201397852Y-89944081D01*
X204147852Y-89944081D01*
X204177116Y-89941199D01*
X204231188Y-89918801D01*
X204272572Y-89877417D01*
X204294970Y-89823345D01*
X204294970Y-89764817D01*
X204272572Y-89710745D01*
X204231188Y-89669361D01*
X204177116Y-89646963D01*
X204147852Y-89644081D01*
X202857376Y-89644081D01*
X202857376Y-88372652D01*
X204147852Y-88372652D01*
X204177116Y-88369770D01*
X204231188Y-88347372D01*
X204272572Y-88305988D01*
X204294970Y-88251916D01*
X204294970Y-88193388D01*
X204272572Y-88139316D01*
X204231188Y-88097932D01*
X204177116Y-88075534D01*
X204147852Y-88072652D01*
X201397852Y-88072652D01*
X201368588Y-88075534D01*
X201314516Y-88097932D01*
X201273132Y-88139316D01*
X201250734Y-88193388D01*
X200942296Y-88193388D01*
X200942296Y-85865510D01*
X201247852Y-85865510D01*
X201247852Y-86389319D01*
X201250734Y-86418583D01*
X201252796Y-86423561D01*
X201253178Y-86428937D01*
X201263688Y-86456401D01*
X201394640Y-86718305D01*
X201402565Y-86730896D01*
X201404083Y-86734559D01*
X201407466Y-86738682D01*
X201410305Y-86743191D01*
X201413296Y-86745785D01*
X201422738Y-86757290D01*
X201684643Y-87019195D01*
X201707374Y-87037850D01*
X201717677Y-87042117D01*
X201726638Y-87048757D01*
X201754329Y-87058650D01*
X202278139Y-87189602D01*
X202283210Y-87190351D01*
X202285255Y-87191199D01*
X202296277Y-87192284D01*
X202307228Y-87193904D01*
X202309415Y-87193578D01*
X202314519Y-87194081D01*
X203231185Y-87194081D01*
X203236288Y-87193578D01*
X203238476Y-87193904D01*
X203249426Y-87192284D01*
X203260449Y-87191199D01*
X203262493Y-87190351D01*
X203267565Y-87189602D01*
X203791375Y-87058650D01*
X203819067Y-87048757D01*
X203828028Y-87042117D01*
X203838330Y-87037850D01*
X203861061Y-87019195D01*
X204122966Y-86757290D01*
X204132405Y-86745788D01*
X204135399Y-86743192D01*
X204138239Y-86738678D01*
X204141621Y-86734559D01*
X204143136Y-86730899D01*
X204151064Y-86718306D01*
X204282016Y-86456401D01*
X204292525Y-86428938D01*
X204292906Y-86423563D01*
X204294970Y-86418583D01*
X204297852Y-86389319D01*
X204297852Y-85865510D01*
X204294970Y-85836246D01*
X204292906Y-85831265D01*
X204292525Y-85825891D01*
X204282016Y-85798428D01*
X204151064Y-85536523D01*
X204143136Y-85523929D01*
X204141621Y-85520270D01*
X204138239Y-85516150D01*
X204135399Y-85511637D01*
X204132405Y-85509040D01*
X204122966Y-85497539D01*
X203861061Y-85235634D01*
X203838330Y-85216979D01*
X203828028Y-85212711D01*
X203819067Y-85206072D01*
X203791375Y-85196179D01*
X203267565Y-85065227D01*
X203262493Y-85064477D01*
X203260449Y-85063630D01*
X203249426Y-85062544D01*
X203238476Y-85060925D01*
X203236288Y-85061250D01*
X203231185Y-85060748D01*
X202314519Y-85060748D01*
X202309415Y-85061250D01*
X202307228Y-85060925D01*
X202296277Y-85062544D01*
X202285255Y-85063630D01*
X202283210Y-85064477D01*
X202278139Y-85065227D01*
X201754329Y-85196179D01*
X201726638Y-85206072D01*
X201717677Y-85212711D01*
X201707374Y-85216979D01*
X201684643Y-85235634D01*
X201422738Y-85497539D01*
X201413296Y-85509043D01*
X201410305Y-85511638D01*
X201407466Y-85516146D01*
X201404083Y-85520270D01*
X201402565Y-85523932D01*
X201394640Y-85536524D01*
X201263688Y-85798428D01*
X201253178Y-85825892D01*
X201252796Y-85831267D01*
X201250734Y-85836246D01*
X201247852Y-85865510D01*
X200942296Y-85865510D01*
X200942296Y-82572939D01*
X201249030Y-82572939D01*
X201253179Y-82631320D01*
X201279353Y-82683667D01*
X201323567Y-82722014D01*
X201350418Y-82734002D01*
X203673509Y-83508367D01*
X201350418Y-84282732D01*
X201323567Y-84294720D01*
X201279353Y-84333067D01*
X201253179Y-84385414D01*
X201249030Y-84443795D01*
X201267538Y-84499319D01*
X201305885Y-84543533D01*
X201358232Y-84569707D01*
X201416613Y-84573856D01*
X201445286Y-84567336D01*
X204195287Y-83650669D01*
X204222137Y-83638681D01*
X204230231Y-83631660D01*
X204239819Y-83626867D01*
X204252146Y-83612653D01*
X204266352Y-83600333D01*
X204271143Y-83590750D01*
X204278167Y-83582652D01*
X204284116Y-83564802D01*
X204292525Y-83547986D01*
X204293284Y-83537298D01*
X204296675Y-83527128D01*
X204295341Y-83508367D01*
X204296675Y-83489606D01*
X204293284Y-83479435D01*
X204292525Y-83468748D01*
X204284116Y-83451931D01*
X204278167Y-83434082D01*
X204271143Y-83425983D01*
X204266352Y-83416401D01*
X204252146Y-83404080D01*
X204239819Y-83389867D01*
X204230231Y-83385073D01*
X204222137Y-83378053D01*
X204195287Y-83366065D01*
X201445286Y-82449398D01*
X201416613Y-82442878D01*
X201358232Y-82447027D01*
X201305885Y-82473201D01*
X201267538Y-82517415D01*
X201249030Y-82572939D01*
X200942296Y-82572939D01*
X200942296Y-80365510D01*
X201247852Y-80365510D01*
X201247852Y-81675034D01*
X201250734Y-81704298D01*
X201273132Y-81758370D01*
X201314516Y-81799754D01*
X201368588Y-81822152D01*
X201397852Y-81825034D01*
X204147852Y-81825034D01*
X204177116Y-81822152D01*
X204231188Y-81799754D01*
X204272572Y-81758370D01*
X204294970Y-81704298D01*
X204297852Y-81675034D01*
X204297852Y-80365510D01*
X204294970Y-80336246D01*
X204272572Y-80282174D01*
X204231188Y-80240790D01*
X204177116Y-80218392D01*
X204118588Y-80218392D01*
X204064516Y-80240790D01*
X204023132Y-80282174D01*
X204000734Y-80336246D01*
X203997852Y-80365510D01*
X203997852Y-81525034D01*
X202857376Y-81525034D01*
X202857376Y-80758367D01*
X202854494Y-80729103D01*
X202832096Y-80675031D01*
X202790712Y-80633647D01*
X202736640Y-80611249D01*
X202678112Y-80611249D01*
X202624040Y-80633647D01*
X202582656Y-80675031D01*
X202560258Y-80729103D01*
X202557376Y-80758367D01*
X202557376Y-81525034D01*
X201547852Y-81525034D01*
X201547852Y-80365510D01*
X201544970Y-80336246D01*
X201522572Y-80282174D01*
X201481188Y-80240790D01*
X201427116Y-80218392D01*
X201368588Y-80218392D01*
X201314516Y-80240790D01*
X201273132Y-80282174D01*
X201250734Y-80336246D01*
X201247852Y-80365510D01*
X200942296Y-80365510D01*
X200942296Y-79176462D01*
X201248218Y-79176462D01*
X201250734Y-79196253D01*
X201250734Y-79216203D01*
X201254393Y-79225036D01*
X201255599Y-79234522D01*
X201265497Y-79251844D01*
X201273132Y-79270275D01*
X201279892Y-79277035D01*
X201284637Y-79285338D01*
X201300408Y-79297551D01*
X201314516Y-79311659D01*
X201323351Y-79315318D01*
X201330911Y-79321173D01*
X201350155Y-79326421D01*
X201368588Y-79334057D01*
X201383554Y-79335530D01*
X201387375Y-79336573D01*
X201390326Y-79336197D01*
X201397852Y-79336939D01*
X204147852Y-79336939D01*
X204177116Y-79334057D01*
X204231188Y-79311659D01*
X204272572Y-79270275D01*
X204294970Y-79216203D01*
X204294970Y-79157675D01*
X204272572Y-79103603D01*
X204231188Y-79062219D01*
X204177116Y-79039821D01*
X204147852Y-79036939D01*
X201962686Y-79036939D01*
X204222273Y-77745746D01*
X204228440Y-77741368D01*
X204231188Y-77740230D01*
X204233987Y-77737430D01*
X204246251Y-77728725D01*
X204258466Y-77712951D01*
X204272572Y-77698846D01*
X204276230Y-77690012D01*
X204282087Y-77682451D01*
X204287336Y-77663202D01*
X204294970Y-77644774D01*
X204294970Y-77635212D01*
X204297486Y-77625987D01*
X204294970Y-77606195D01*
X204294970Y-77586246D01*
X204291310Y-77577412D01*
X204290105Y-77567927D01*
X204280206Y-77550604D01*
X204272572Y-77532174D01*
X204265811Y-77525413D01*
X204261067Y-77517111D01*
X204245295Y-77504897D01*
X204231188Y-77490790D01*
X204222352Y-77487130D01*
X204214793Y-77481276D01*
X204195548Y-77476027D01*
X204177116Y-77468392D01*
X204162151Y-77466918D01*
X204158330Y-77465876D01*
X204155378Y-77466251D01*
X204147852Y-77465510D01*
X201397852Y-77465510D01*
X201368588Y-77468392D01*
X201314516Y-77490790D01*
X201273132Y-77532174D01*
X201250734Y-77586246D01*
X201250734Y-77644774D01*
X201273132Y-77698846D01*
X201314516Y-77740230D01*
X201368588Y-77762628D01*
X201397852Y-77765510D01*
X203583017Y-77765510D01*
X201323431Y-79056703D01*
X201317263Y-79061080D01*
X201314516Y-79062219D01*
X201311716Y-79065018D01*
X201299453Y-79073724D01*
X201287239Y-79089495D01*
X201273132Y-79103603D01*
X201269472Y-79112438D01*
X201263618Y-79119998D01*
X201258369Y-79139242D01*
X201250734Y-79157675D01*
X201250734Y-79167237D01*
X201248218Y-79176462D01*
X200942296Y-79176462D01*
X200942296Y-77159954D01*
X204603408Y-77159954D01*
X204603408Y-101380589D01*
G37*
D10*
X164271262Y-44982933D02*
X165795072Y-44982933D01*
G36*
X205784403Y-99475204D02*
G01*
X205129201Y-99256804D01*
X205784403Y-99038403D01*
X205784403Y-99475204D01*
G37*
G36*
X205920924Y-95994011D02*
G01*
X206039454Y-96053276D01*
X206154143Y-96167965D01*
X206212974Y-96344458D01*
X206212974Y-96585376D01*
X204912974Y-96585376D01*
X204912974Y-96344460D01*
X204971805Y-96167966D01*
X205086494Y-96053276D01*
X205205022Y-95994011D01*
X205468140Y-95928233D01*
X205657808Y-95928233D01*
X205920924Y-95994011D01*
G37*
G36*
X205396594Y-93338989D02*
G01*
X205445074Y-93387469D01*
X205498688Y-93494696D01*
X205498688Y-93942519D01*
X204912974Y-93942519D01*
X204912974Y-93494698D01*
X204966590Y-93387466D01*
X205015066Y-93338989D01*
X205122295Y-93285376D01*
X205289367Y-93285376D01*
X205396594Y-93338989D01*
G37*
G36*
X205325168Y-90410419D02*
G01*
X205373644Y-90458895D01*
X205427260Y-90566126D01*
X205427260Y-90942519D01*
X204912974Y-90942519D01*
X204912974Y-90566127D01*
X204966590Y-90458895D01*
X205015065Y-90410419D01*
X205122295Y-90356804D01*
X205217938Y-90356804D01*
X205325168Y-90410419D01*
G37*
G36*
X206110880Y-90338989D02*
G01*
X206159360Y-90387469D01*
X206212974Y-90494696D01*
X206212974Y-90942519D01*
X205627260Y-90942519D01*
X205627260Y-90558745D01*
X205686090Y-90382252D01*
X205729353Y-90338989D01*
X205836581Y-90285376D01*
X206003653Y-90285376D01*
X206110880Y-90338989D01*
G37*
G36*
X206579641Y-101380615D02*
G01*
X204546307Y-101380615D01*
X204546307Y-100237296D01*
X204714895Y-100237296D01*
X204714895Y-100276314D01*
X204729827Y-100312362D01*
X204757417Y-100339952D01*
X204793465Y-100354884D01*
X204812974Y-100356805D01*
X205427260Y-100356805D01*
X205427260Y-101013948D01*
X204812974Y-101013948D01*
X204793465Y-101015869D01*
X204757417Y-101030801D01*
X204729827Y-101058391D01*
X204714895Y-101094439D01*
X204714895Y-101133457D01*
X204729827Y-101169505D01*
X204757417Y-101197095D01*
X204793465Y-101212027D01*
X204812974Y-101213948D01*
X206312974Y-101213948D01*
X206332483Y-101212027D01*
X206368531Y-101197095D01*
X206396121Y-101169505D01*
X206411053Y-101133457D01*
X206411053Y-101094439D01*
X206396121Y-101058391D01*
X206368531Y-101030801D01*
X206332483Y-101015869D01*
X206312974Y-101013948D01*
X205627260Y-101013948D01*
X205627260Y-100356805D01*
X206312974Y-100356805D01*
X206332483Y-100354884D01*
X206368531Y-100339952D01*
X206396121Y-100312362D01*
X206411053Y-100276314D01*
X206411053Y-100237296D01*
X206396121Y-100201248D01*
X206368531Y-100173658D01*
X206332483Y-100158726D01*
X206312974Y-100156805D01*
X204812974Y-100156805D01*
X204793465Y-100158726D01*
X204757417Y-100173658D01*
X204729827Y-100201248D01*
X204714895Y-100237296D01*
X204546307Y-100237296D01*
X204546307Y-99244297D01*
X204713759Y-99244297D01*
X204714647Y-99256804D01*
X204713759Y-99269311D01*
X204716018Y-99276089D01*
X204716525Y-99283217D01*
X204722131Y-99294429D01*
X204726097Y-99306327D01*
X204730780Y-99311726D01*
X204733975Y-99318116D01*
X204743446Y-99326331D01*
X204751662Y-99335803D01*
X204758051Y-99338997D01*
X204763451Y-99343681D01*
X204781351Y-99351672D01*
X206281351Y-99851672D01*
X206300467Y-99856019D01*
X206339387Y-99853253D01*
X206374286Y-99835803D01*
X206399851Y-99806327D01*
X206412189Y-99769311D01*
X206409423Y-99730391D01*
X206391974Y-99695493D01*
X206362497Y-99669927D01*
X206344597Y-99661936D01*
X205984403Y-99541871D01*
X205984403Y-98971736D01*
X206344597Y-98851672D01*
X206362497Y-98843681D01*
X206391974Y-98818115D01*
X206409423Y-98783217D01*
X206412189Y-98744297D01*
X206399851Y-98707281D01*
X206374286Y-98677805D01*
X206339387Y-98660355D01*
X206300467Y-98657589D01*
X206281351Y-98661936D01*
X204781351Y-99161936D01*
X204763451Y-99169927D01*
X204758051Y-99174610D01*
X204751662Y-99177805D01*
X204743446Y-99187276D01*
X204733975Y-99195492D01*
X204730780Y-99201881D01*
X204726097Y-99207281D01*
X204722131Y-99219178D01*
X204716525Y-99230391D01*
X204716018Y-99237518D01*
X204713759Y-99244297D01*
X204546307Y-99244297D01*
X204546307Y-98249820D01*
X204713218Y-98249820D01*
X204714895Y-98263013D01*
X204714895Y-98276314D01*
X204717334Y-98282202D01*
X204718138Y-98288527D01*
X204724738Y-98300076D01*
X204729827Y-98312362D01*
X204734334Y-98316869D01*
X204737497Y-98322404D01*
X204748011Y-98330546D01*
X204757417Y-98339952D01*
X204763307Y-98342391D01*
X204768346Y-98346294D01*
X204781174Y-98349792D01*
X204793465Y-98354884D01*
X204803442Y-98355866D01*
X204805989Y-98356561D01*
X204807956Y-98356310D01*
X204812974Y-98356805D01*
X206312974Y-98356805D01*
X206332483Y-98354884D01*
X206368531Y-98339952D01*
X206396121Y-98312362D01*
X206411053Y-98276314D01*
X206411053Y-98237296D01*
X206396121Y-98201248D01*
X206368531Y-98173658D01*
X206332483Y-98158726D01*
X206312974Y-98156805D01*
X205189530Y-98156805D01*
X206362588Y-97486486D01*
X206366699Y-97483567D01*
X206368531Y-97482809D01*
X206370396Y-97480943D01*
X206378574Y-97475139D01*
X206386720Y-97464619D01*
X206396121Y-97455219D01*
X206398559Y-97449331D01*
X206402464Y-97444290D01*
X206405963Y-97431457D01*
X206411053Y-97419171D01*
X206411053Y-97412795D01*
X206412730Y-97406646D01*
X206411053Y-97393452D01*
X206411053Y-97380153D01*
X206408613Y-97374264D01*
X206407810Y-97367940D01*
X206401209Y-97356388D01*
X206396121Y-97344105D01*
X206391615Y-97339599D01*
X206388451Y-97334062D01*
X206377931Y-97325915D01*
X206368531Y-97316515D01*
X206362643Y-97314076D01*
X206357602Y-97310172D01*
X206344769Y-97306672D01*
X206332483Y-97301583D01*
X206322505Y-97300600D01*
X206319959Y-97299906D01*
X206317991Y-97300156D01*
X206312974Y-97299662D01*
X204812974Y-97299662D01*
X204793465Y-97301583D01*
X204757417Y-97316515D01*
X204729827Y-97344105D01*
X204714895Y-97380153D01*
X204714895Y-97419171D01*
X204729827Y-97455219D01*
X204757417Y-97482809D01*
X204793465Y-97497741D01*
X204812974Y-97499662D01*
X205936418Y-97499662D01*
X204763360Y-98169981D01*
X204759249Y-98172899D01*
X204757417Y-98173658D01*
X204755550Y-98175524D01*
X204747375Y-98181328D01*
X204739232Y-98191842D01*
X204729827Y-98201248D01*
X204727387Y-98207138D01*
X204723485Y-98212177D01*
X204719986Y-98225005D01*
X204714895Y-98237296D01*
X204714895Y-98243671D01*
X204713218Y-98249820D01*
X204546307Y-98249820D01*
X204546307Y-96328233D01*
X204712974Y-96328233D01*
X204712974Y-96685376D01*
X204714895Y-96704885D01*
X204729827Y-96740933D01*
X204757417Y-96768523D01*
X204793465Y-96783455D01*
X204812974Y-96785376D01*
X206312974Y-96785376D01*
X206332483Y-96783455D01*
X206368531Y-96768523D01*
X206396121Y-96740933D01*
X206411053Y-96704885D01*
X206412974Y-96685376D01*
X206412974Y-96328233D01*
X206412001Y-96318359D01*
X206412189Y-96315726D01*
X206411401Y-96312262D01*
X206411053Y-96308724D01*
X206410041Y-96306281D01*
X206407842Y-96296610D01*
X206336414Y-96082324D01*
X206328423Y-96064424D01*
X206326067Y-96061708D01*
X206324693Y-96058389D01*
X206312256Y-96043236D01*
X206169398Y-95900379D01*
X206161733Y-95894088D01*
X206160000Y-95892090D01*
X206156987Y-95890194D01*
X206154245Y-95887943D01*
X206151807Y-95886933D01*
X206143409Y-95881647D01*
X206000553Y-95810218D01*
X205999124Y-95809671D01*
X205998545Y-95809242D01*
X205990374Y-95806323D01*
X205982244Y-95803212D01*
X205981521Y-95803160D01*
X205980084Y-95802647D01*
X205694370Y-95731219D01*
X205690990Y-95730719D01*
X205689626Y-95730154D01*
X205682274Y-95729430D01*
X205674978Y-95728351D01*
X205673519Y-95728568D01*
X205670117Y-95728233D01*
X205455831Y-95728233D01*
X205452428Y-95728568D01*
X205450970Y-95728351D01*
X205443672Y-95729430D01*
X205436322Y-95730154D01*
X205434958Y-95730718D01*
X205431577Y-95731219D01*
X205145864Y-95802647D01*
X205144426Y-95803160D01*
X205143704Y-95803212D01*
X205135573Y-95806323D01*
X205127403Y-95809242D01*
X205126823Y-95809671D01*
X205125395Y-95810218D01*
X204982538Y-95881647D01*
X204974140Y-95886932D01*
X204971702Y-95887943D01*
X204968957Y-95890195D01*
X204965948Y-95892090D01*
X204964215Y-95894087D01*
X204956549Y-95900380D01*
X204813692Y-96043236D01*
X204801256Y-96058390D01*
X204799881Y-96061708D01*
X204797526Y-96064424D01*
X204789535Y-96082324D01*
X204718106Y-96296610D01*
X204715906Y-96306282D01*
X204714895Y-96308724D01*
X204714546Y-96312261D01*
X204713759Y-96315725D01*
X204713946Y-96318359D01*
X204712974Y-96328233D01*
X204546307Y-96328233D01*
X204546307Y-93471090D01*
X204712974Y-93471090D01*
X204712974Y-94042519D01*
X204714895Y-94062028D01*
X204729827Y-94098076D01*
X204757417Y-94125666D01*
X204793465Y-94140598D01*
X204812974Y-94142519D01*
X206312974Y-94142519D01*
X206332483Y-94140598D01*
X206368531Y-94125666D01*
X206396121Y-94098076D01*
X206411053Y-94062028D01*
X206411053Y-94023010D01*
X206396121Y-93986962D01*
X206368531Y-93959372D01*
X206332483Y-93944440D01*
X206312974Y-93942519D01*
X205698688Y-93942519D01*
X205698688Y-93471090D01*
X205696767Y-93451581D01*
X205695391Y-93448260D01*
X205695137Y-93444678D01*
X205688131Y-93426369D01*
X205616703Y-93283512D01*
X205611417Y-93275115D01*
X205610407Y-93272676D01*
X205608153Y-93269929D01*
X205606260Y-93266922D01*
X205604265Y-93265192D01*
X205597971Y-93257522D01*
X205526542Y-93186093D01*
X205518875Y-93179801D01*
X205517143Y-93177804D01*
X205514131Y-93175908D01*
X205511388Y-93173657D01*
X205508950Y-93172647D01*
X205500552Y-93167361D01*
X205357695Y-93095933D01*
X205339387Y-93088927D01*
X205335803Y-93088672D01*
X205332483Y-93087297D01*
X205312974Y-93085376D01*
X205098688Y-93085376D01*
X205079179Y-93087297D01*
X205075858Y-93088672D01*
X205072276Y-93088927D01*
X205053967Y-93095933D01*
X204911110Y-93167361D01*
X204902714Y-93172645D01*
X204900273Y-93173657D01*
X204897525Y-93175912D01*
X204894520Y-93177804D01*
X204892789Y-93179798D01*
X204885120Y-93186094D01*
X204813692Y-93257523D01*
X204807399Y-93265189D01*
X204805403Y-93266921D01*
X204803509Y-93269928D01*
X204801255Y-93272676D01*
X204800243Y-93275117D01*
X204794960Y-93283512D01*
X204723531Y-93426368D01*
X204716525Y-93444677D01*
X204716270Y-93448260D01*
X204714895Y-93451581D01*
X204712974Y-93471090D01*
X204546307Y-93471090D01*
X204546307Y-91971090D01*
X204712974Y-91971090D01*
X204712974Y-92113947D01*
X204713946Y-92123820D01*
X204713759Y-92126455D01*
X204714546Y-92129918D01*
X204714895Y-92133456D01*
X204715906Y-92135897D01*
X204718106Y-92145570D01*
X204789535Y-92359856D01*
X204797526Y-92377756D01*
X204799881Y-92380471D01*
X204801256Y-92383790D01*
X204813692Y-92398944D01*
X204956549Y-92541800D01*
X204964215Y-92548092D01*
X204965948Y-92550090D01*
X204968957Y-92551984D01*
X204971702Y-92554237D01*
X204974140Y-92555247D01*
X204982538Y-92560533D01*
X205125395Y-92631962D01*
X205126823Y-92632508D01*
X205127403Y-92632938D01*
X205135573Y-92635856D01*
X205143704Y-92638968D01*
X205144426Y-92639019D01*
X205145864Y-92639533D01*
X205431577Y-92710961D01*
X205434958Y-92711461D01*
X205436322Y-92712026D01*
X205443672Y-92712749D01*
X205450970Y-92713829D01*
X205452428Y-92713611D01*
X205455831Y-92713947D01*
X205670117Y-92713947D01*
X205673519Y-92713611D01*
X205674978Y-92713829D01*
X205682274Y-92712749D01*
X205689626Y-92712026D01*
X205690990Y-92711460D01*
X205694370Y-92710961D01*
X205980084Y-92639533D01*
X205981521Y-92639019D01*
X205982244Y-92638968D01*
X205990374Y-92635856D01*
X205998545Y-92632938D01*
X205999124Y-92632508D01*
X206000553Y-92631962D01*
X206143409Y-92560533D01*
X206151807Y-92555246D01*
X206154245Y-92554237D01*
X206156987Y-92551985D01*
X206160000Y-92550090D01*
X206161733Y-92548091D01*
X206169398Y-92541801D01*
X206312256Y-92398944D01*
X206324693Y-92383791D01*
X206326067Y-92380471D01*
X206328423Y-92377756D01*
X206336414Y-92359856D01*
X206407842Y-92145570D01*
X206410041Y-92135898D01*
X206411053Y-92133456D01*
X206411401Y-92129917D01*
X206412189Y-92126454D01*
X206412001Y-92123820D01*
X206412974Y-92113947D01*
X206412974Y-91971090D01*
X206412001Y-91961216D01*
X206412189Y-91958583D01*
X206411401Y-91955119D01*
X206411053Y-91951581D01*
X206410041Y-91949138D01*
X206407842Y-91939467D01*
X206336414Y-91725181D01*
X206328423Y-91707281D01*
X206326068Y-91704565D01*
X206324693Y-91701246D01*
X206312256Y-91686093D01*
X206240827Y-91614665D01*
X206225674Y-91602228D01*
X206189625Y-91587297D01*
X206150607Y-91587298D01*
X206114559Y-91602229D01*
X206086969Y-91629819D01*
X206072038Y-91665868D01*
X206072039Y-91704886D01*
X206086970Y-91740934D01*
X206099407Y-91756087D01*
X206154143Y-91810822D01*
X206212974Y-91987315D01*
X206212974Y-92097721D01*
X206154143Y-92274214D01*
X206039454Y-92388903D01*
X205920924Y-92448168D01*
X205657808Y-92513947D01*
X205468140Y-92513947D01*
X205205022Y-92448168D01*
X205086494Y-92388903D01*
X204971805Y-92274213D01*
X204912974Y-92097719D01*
X204912974Y-91987317D01*
X204971805Y-91810823D01*
X205026541Y-91756087D01*
X205038978Y-91740934D01*
X205053909Y-91704885D01*
X205053909Y-91665867D01*
X205038978Y-91629819D01*
X205011388Y-91602229D01*
X204975340Y-91587298D01*
X204936322Y-91587298D01*
X204900273Y-91602229D01*
X204885120Y-91614666D01*
X204813692Y-91686093D01*
X204801256Y-91701247D01*
X204799881Y-91704565D01*
X204797526Y-91707281D01*
X204789535Y-91725181D01*
X204718106Y-91939467D01*
X204715906Y-91949139D01*
X204714895Y-91951581D01*
X204714546Y-91955118D01*
X204713759Y-91958582D01*
X204713946Y-91961216D01*
X204712974Y-91971090D01*
X204546307Y-91971090D01*
X204546307Y-90542519D01*
X204712974Y-90542519D01*
X204712974Y-91042519D01*
X204714895Y-91062028D01*
X204729827Y-91098076D01*
X204757417Y-91125666D01*
X204793465Y-91140598D01*
X204812974Y-91142519D01*
X206312974Y-91142519D01*
X206332483Y-91140598D01*
X206368531Y-91125666D01*
X206396121Y-91098076D01*
X206411053Y-91062028D01*
X206412974Y-91042519D01*
X206412974Y-90471090D01*
X206411053Y-90451581D01*
X206409677Y-90448260D01*
X206409423Y-90444678D01*
X206402417Y-90426369D01*
X206330989Y-90283512D01*
X206325703Y-90275115D01*
X206324693Y-90272676D01*
X206322439Y-90269929D01*
X206320546Y-90266922D01*
X206318551Y-90265192D01*
X206312257Y-90257522D01*
X206240828Y-90186093D01*
X206233161Y-90179801D01*
X206231429Y-90177804D01*
X206228417Y-90175908D01*
X206225674Y-90173657D01*
X206223236Y-90172647D01*
X206214838Y-90167361D01*
X206071981Y-90095933D01*
X206053673Y-90088927D01*
X206050089Y-90088672D01*
X206046769Y-90087297D01*
X206027260Y-90085376D01*
X205812974Y-90085376D01*
X205793465Y-90087297D01*
X205790144Y-90088672D01*
X205786562Y-90088927D01*
X205768253Y-90095933D01*
X205625396Y-90167361D01*
X205616999Y-90172646D01*
X205614560Y-90173657D01*
X205611813Y-90175910D01*
X205608806Y-90177804D01*
X205607076Y-90179798D01*
X205599406Y-90186093D01*
X205527977Y-90257522D01*
X205515541Y-90272676D01*
X205514166Y-90275994D01*
X205511811Y-90278710D01*
X205503820Y-90296611D01*
X205501415Y-90303824D01*
X205455114Y-90257523D01*
X205447447Y-90251230D01*
X205445715Y-90249233D01*
X205442706Y-90247339D01*
X205439961Y-90245086D01*
X205437520Y-90244075D01*
X205429124Y-90238790D01*
X205286268Y-90167361D01*
X205267959Y-90160355D01*
X205264375Y-90160100D01*
X205261055Y-90158725D01*
X205241546Y-90156804D01*
X205098688Y-90156804D01*
X205079179Y-90158725D01*
X205075858Y-90160100D01*
X205072275Y-90160355D01*
X205053966Y-90167361D01*
X204911109Y-90238790D01*
X204902711Y-90244075D01*
X204900273Y-90245086D01*
X204897528Y-90247338D01*
X204894519Y-90249233D01*
X204892786Y-90251230D01*
X204885120Y-90257523D01*
X204813692Y-90328952D01*
X204807399Y-90336618D01*
X204805403Y-90338350D01*
X204803509Y-90341357D01*
X204801255Y-90344105D01*
X204800243Y-90346546D01*
X204794960Y-90354941D01*
X204723531Y-90497797D01*
X204716525Y-90516106D01*
X204716270Y-90519689D01*
X204714895Y-90523010D01*
X204712974Y-90542519D01*
X204546307Y-90542519D01*
X204546307Y-89918709D01*
X206579641Y-89918709D01*
X206579641Y-101380615D01*
G37*
G36*
X207382845Y-97554325D02*
G01*
X207431325Y-97602805D01*
X207484939Y-97710032D01*
X207484939Y-98157855D01*
X206899225Y-98157855D01*
X206899225Y-97710034D01*
X206952841Y-97602802D01*
X207001317Y-97554325D01*
X207108546Y-97500712D01*
X207275618Y-97500712D01*
X207382845Y-97554325D01*
G37*
G36*
X208033814Y-93848151D02*
G01*
X208145610Y-93959947D01*
X208199225Y-94067175D01*
X208199225Y-94305676D01*
X208145610Y-94412906D01*
X208033814Y-94524701D01*
X207786916Y-94586426D01*
X207311534Y-94586426D01*
X207064636Y-94524701D01*
X206952839Y-94412904D01*
X206899225Y-94305676D01*
X206899225Y-94067177D01*
X206952839Y-93959947D01*
X207064635Y-93848151D01*
X207311534Y-93786426D01*
X207786915Y-93786426D01*
X208033814Y-93848151D01*
G37*
G36*
X208565892Y-101380879D02*
G01*
X206532558Y-101380879D01*
X206532558Y-100102490D01*
X206700010Y-100102490D01*
X206702776Y-100141410D01*
X206720226Y-100176309D01*
X206749702Y-100201874D01*
X206767602Y-100209865D01*
X207982998Y-100614997D01*
X206767602Y-101020129D01*
X206749702Y-101028120D01*
X206720226Y-101053685D01*
X206702776Y-101088584D01*
X206700010Y-101127504D01*
X206712348Y-101164520D01*
X206737913Y-101193996D01*
X206772812Y-101211446D01*
X206811732Y-101214212D01*
X206830848Y-101209865D01*
X208330848Y-100709865D01*
X208348748Y-100701874D01*
X208354147Y-100697190D01*
X208360537Y-100693996D01*
X208368752Y-100684523D01*
X208378225Y-100676308D01*
X208381419Y-100669918D01*
X208386102Y-100664520D01*
X208390067Y-100652623D01*
X208395674Y-100641410D01*
X208396180Y-100634282D01*
X208398440Y-100627504D01*
X208397551Y-100614997D01*
X208398440Y-100602490D01*
X208396180Y-100595711D01*
X208395674Y-100588584D01*
X208390067Y-100577370D01*
X208386102Y-100565474D01*
X208381419Y-100560075D01*
X208378225Y-100553686D01*
X208368752Y-100545470D01*
X208360537Y-100535998D01*
X208354147Y-100532803D01*
X208348748Y-100528120D01*
X208330848Y-100520129D01*
X206830848Y-100020129D01*
X206811732Y-100015782D01*
X206772812Y-100018548D01*
X206737913Y-100035998D01*
X206712348Y-100065474D01*
X206700010Y-100102490D01*
X206532558Y-100102490D01*
X206532558Y-98900712D01*
X206699225Y-98900712D01*
X206699225Y-99614998D01*
X206701146Y-99634507D01*
X206716078Y-99670555D01*
X206743668Y-99698145D01*
X206779716Y-99713077D01*
X206799225Y-99714998D01*
X208299225Y-99714998D01*
X208318734Y-99713077D01*
X208354782Y-99698145D01*
X208382372Y-99670555D01*
X208397304Y-99634507D01*
X208399225Y-99614998D01*
X208399225Y-98900712D01*
X208397304Y-98881203D01*
X208382372Y-98845155D01*
X208354782Y-98817565D01*
X208318734Y-98802633D01*
X208279716Y-98802633D01*
X208243668Y-98817565D01*
X208216078Y-98845155D01*
X208201146Y-98881203D01*
X208199225Y-98900712D01*
X208199225Y-99514998D01*
X207613511Y-99514998D01*
X207613511Y-99114998D01*
X207611590Y-99095489D01*
X207596658Y-99059441D01*
X207569068Y-99031851D01*
X207533020Y-99016919D01*
X207494002Y-99016919D01*
X207457954Y-99031851D01*
X207430364Y-99059441D01*
X207415432Y-99095489D01*
X207413511Y-99114998D01*
X207413511Y-99514998D01*
X206899225Y-99514998D01*
X206899225Y-98900712D01*
X206897304Y-98881203D01*
X206882372Y-98845155D01*
X206854782Y-98817565D01*
X206818734Y-98802633D01*
X206779716Y-98802633D01*
X206743668Y-98817565D01*
X206716078Y-98845155D01*
X206701146Y-98881203D01*
X206699225Y-98900712D01*
X206532558Y-98900712D01*
X206532558Y-97686426D01*
X206699225Y-97686426D01*
X206699225Y-98257855D01*
X206701146Y-98277364D01*
X206716078Y-98313412D01*
X206743668Y-98341002D01*
X206779716Y-98355934D01*
X206799225Y-98357855D01*
X208299225Y-98357855D01*
X208318734Y-98355934D01*
X208354782Y-98341002D01*
X208382372Y-98313412D01*
X208397304Y-98277364D01*
X208397304Y-98238346D01*
X208382372Y-98202298D01*
X208354782Y-98174708D01*
X208318734Y-98159776D01*
X208299225Y-98157855D01*
X207684939Y-98157855D01*
X207684939Y-97952777D01*
X208356571Y-97482635D01*
X208371452Y-97469874D01*
X208392421Y-97436969D01*
X208399201Y-97398544D01*
X208390762Y-97360450D01*
X208368387Y-97328485D01*
X208335482Y-97307516D01*
X208297057Y-97300736D01*
X208258963Y-97309175D01*
X208241879Y-97318789D01*
X207684939Y-97708646D01*
X207684939Y-97686426D01*
X207683018Y-97666917D01*
X207681642Y-97663596D01*
X207681388Y-97660014D01*
X207674382Y-97641705D01*
X207602954Y-97498848D01*
X207597668Y-97490451D01*
X207596658Y-97488012D01*
X207594404Y-97485265D01*
X207592511Y-97482258D01*
X207590516Y-97480528D01*
X207584222Y-97472858D01*
X207512793Y-97401429D01*
X207505126Y-97395137D01*
X207503394Y-97393140D01*
X207500382Y-97391244D01*
X207497639Y-97388993D01*
X207495201Y-97387983D01*
X207486803Y-97382697D01*
X207343946Y-97311269D01*
X207325638Y-97304263D01*
X207322054Y-97304008D01*
X207318734Y-97302633D01*
X207299225Y-97300712D01*
X207084939Y-97300712D01*
X207065430Y-97302633D01*
X207062109Y-97304008D01*
X207058527Y-97304263D01*
X207040218Y-97311269D01*
X206897361Y-97382697D01*
X206888965Y-97387981D01*
X206886524Y-97388993D01*
X206883776Y-97391248D01*
X206880771Y-97393140D01*
X206879040Y-97395134D01*
X206871371Y-97401430D01*
X206799943Y-97472859D01*
X206793650Y-97480525D01*
X206791654Y-97482257D01*
X206789760Y-97485264D01*
X206787506Y-97488012D01*
X206786494Y-97490453D01*
X206781211Y-97498848D01*
X206709782Y-97641704D01*
X206702776Y-97660013D01*
X206702521Y-97663596D01*
X206701146Y-97666917D01*
X206699225Y-97686426D01*
X206532558Y-97686426D01*
X206532558Y-96186426D01*
X206699225Y-96186426D01*
X206699225Y-96543569D01*
X206701146Y-96563078D01*
X206702521Y-96566398D01*
X206702776Y-96569982D01*
X206709782Y-96588291D01*
X206781211Y-96731147D01*
X206786494Y-96739541D01*
X206787506Y-96741983D01*
X206789760Y-96744730D01*
X206791654Y-96747738D01*
X206793650Y-96749469D01*
X206799943Y-96757136D01*
X206871371Y-96828565D01*
X206879040Y-96834860D01*
X206880771Y-96836855D01*
X206883776Y-96838746D01*
X206886524Y-96841002D01*
X206888965Y-96842013D01*
X206897361Y-96847298D01*
X207040218Y-96918726D01*
X207058527Y-96925732D01*
X207062109Y-96925986D01*
X207065430Y-96927362D01*
X207084939Y-96929283D01*
X207227797Y-96929283D01*
X207247306Y-96927362D01*
X207250626Y-96925986D01*
X207254210Y-96925732D01*
X207272518Y-96918726D01*
X207415375Y-96847298D01*
X207423771Y-96842012D01*
X207426212Y-96841002D01*
X207428957Y-96838748D01*
X207431966Y-96836855D01*
X207433698Y-96834857D01*
X207441365Y-96828565D01*
X207512793Y-96757136D01*
X207519085Y-96749469D01*
X207521082Y-96747738D01*
X207522975Y-96744729D01*
X207525230Y-96741983D01*
X207526240Y-96739542D01*
X207531525Y-96731148D01*
X207602954Y-96588291D01*
X207603500Y-96586862D01*
X207603930Y-96586283D01*
X207606848Y-96578112D01*
X207609960Y-96569982D01*
X207610011Y-96569259D01*
X207610525Y-96567822D01*
X207679289Y-96292761D01*
X207738553Y-96174234D01*
X207787033Y-96125754D01*
X207894261Y-96072140D01*
X207989903Y-96072140D01*
X208097131Y-96125754D01*
X208145611Y-96174234D01*
X208199225Y-96281461D01*
X208199225Y-96598771D01*
X208132929Y-96797660D01*
X208128582Y-96816776D01*
X208131348Y-96855696D01*
X208148798Y-96890595D01*
X208178274Y-96916160D01*
X208215290Y-96928498D01*
X208254210Y-96925732D01*
X208289109Y-96908282D01*
X208314674Y-96878806D01*
X208322665Y-96860906D01*
X208394093Y-96646621D01*
X208396292Y-96636949D01*
X208397304Y-96634507D01*
X208397652Y-96630968D01*
X208398440Y-96627505D01*
X208398252Y-96624871D01*
X208399225Y-96614998D01*
X208399225Y-96257855D01*
X208397304Y-96238346D01*
X208395928Y-96235025D01*
X208395674Y-96231443D01*
X208388668Y-96213134D01*
X208317240Y-96070277D01*
X208311954Y-96061880D01*
X208310944Y-96059441D01*
X208308690Y-96056694D01*
X208306797Y-96053687D01*
X208304802Y-96051957D01*
X208298508Y-96044287D01*
X208227079Y-95972858D01*
X208219412Y-95966566D01*
X208217680Y-95964569D01*
X208214668Y-95962673D01*
X208211925Y-95960422D01*
X208209487Y-95959412D01*
X208201089Y-95954126D01*
X208058233Y-95882697D01*
X208039924Y-95875691D01*
X208036340Y-95875436D01*
X208033020Y-95874061D01*
X208013511Y-95872140D01*
X207870654Y-95872140D01*
X207851145Y-95874061D01*
X207847824Y-95875436D01*
X207844241Y-95875691D01*
X207825932Y-95882697D01*
X207683075Y-95954126D01*
X207674676Y-95959412D01*
X207672240Y-95960422D01*
X207669496Y-95962673D01*
X207666485Y-95964569D01*
X207664752Y-95966566D01*
X207657086Y-95972858D01*
X207585657Y-96044287D01*
X207579365Y-96051953D01*
X207577368Y-96053686D01*
X207575472Y-96056697D01*
X207573221Y-96059441D01*
X207572211Y-96061878D01*
X207566925Y-96070277D01*
X207495496Y-96213133D01*
X207494949Y-96214561D01*
X207494520Y-96215141D01*
X207491601Y-96223311D01*
X207488490Y-96231442D01*
X207488438Y-96232164D01*
X207487925Y-96233602D01*
X207419160Y-96508663D01*
X207359895Y-96627192D01*
X207311418Y-96675669D01*
X207204190Y-96729283D01*
X207108546Y-96729283D01*
X207001317Y-96675669D01*
X206952841Y-96627192D01*
X206899225Y-96519960D01*
X206899225Y-96202653D01*
X206965522Y-96003763D01*
X206969869Y-95984648D01*
X206967103Y-95945728D01*
X206949653Y-95910829D01*
X206920177Y-95885264D01*
X206883161Y-95872925D01*
X206844241Y-95875691D01*
X206809342Y-95893141D01*
X206783777Y-95922617D01*
X206775786Y-95940517D01*
X206704357Y-96154803D01*
X206702157Y-96164475D01*
X206701146Y-96166917D01*
X206700797Y-96170454D01*
X206700010Y-96173918D01*
X206700197Y-96176552D01*
X206699225Y-96186426D01*
X206532558Y-96186426D01*
X206532558Y-95309775D01*
X206701146Y-95309775D01*
X206701146Y-95348793D01*
X206716078Y-95384841D01*
X206743668Y-95412431D01*
X206779716Y-95427363D01*
X206799225Y-95429284D01*
X208299225Y-95429284D01*
X208318734Y-95427363D01*
X208354782Y-95412431D01*
X208382372Y-95384841D01*
X208397304Y-95348793D01*
X208397304Y-95309775D01*
X208382372Y-95273727D01*
X208354782Y-95246137D01*
X208318734Y-95231205D01*
X208299225Y-95229284D01*
X206799225Y-95229284D01*
X206779716Y-95231205D01*
X206743668Y-95246137D01*
X206716078Y-95273727D01*
X206701146Y-95309775D01*
X206532558Y-95309775D01*
X206532558Y-94043569D01*
X206699225Y-94043569D01*
X206699225Y-94329283D01*
X206701146Y-94348792D01*
X206702521Y-94352112D01*
X206702776Y-94355696D01*
X206709782Y-94374004D01*
X206781211Y-94516862D01*
X206786497Y-94525260D01*
X206787507Y-94527698D01*
X206789758Y-94530441D01*
X206791654Y-94533453D01*
X206793651Y-94535185D01*
X206799943Y-94542852D01*
X206942800Y-94685708D01*
X206957953Y-94698145D01*
X206964822Y-94700990D01*
X206970797Y-94705417D01*
X206989258Y-94712012D01*
X207274971Y-94783440D01*
X207278352Y-94783940D01*
X207279716Y-94784505D01*
X207287066Y-94785228D01*
X207294364Y-94786308D01*
X207295822Y-94786090D01*
X207299225Y-94786426D01*
X207799225Y-94786426D01*
X207802627Y-94786090D01*
X207804086Y-94786308D01*
X207811382Y-94785228D01*
X207818734Y-94784505D01*
X207820098Y-94783939D01*
X207823478Y-94783440D01*
X208109192Y-94712012D01*
X208127653Y-94705417D01*
X208133627Y-94700990D01*
X208140496Y-94698145D01*
X208155649Y-94685709D01*
X208298507Y-94542852D01*
X208304801Y-94535182D01*
X208306797Y-94533452D01*
X208308688Y-94530446D01*
X208310944Y-94527699D01*
X208311955Y-94525257D01*
X208317240Y-94516862D01*
X208388668Y-94374004D01*
X208395675Y-94355695D01*
X208395929Y-94352109D01*
X208397304Y-94348792D01*
X208399225Y-94329283D01*
X208399225Y-94043569D01*
X208397304Y-94024060D01*
X208395928Y-94020739D01*
X208395674Y-94017157D01*
X208388668Y-93998848D01*
X208317240Y-93855991D01*
X208311955Y-93847595D01*
X208310944Y-93845154D01*
X208308688Y-93842406D01*
X208306797Y-93839401D01*
X208304802Y-93837670D01*
X208298507Y-93830001D01*
X208155649Y-93687144D01*
X208140496Y-93674708D01*
X208133627Y-93671862D01*
X208127653Y-93667436D01*
X208109192Y-93660841D01*
X207823479Y-93589412D01*
X207820097Y-93588911D01*
X207818734Y-93588347D01*
X207811383Y-93587623D01*
X207804086Y-93586544D01*
X207802627Y-93586761D01*
X207799225Y-93586426D01*
X207299225Y-93586426D01*
X207295821Y-93586761D01*
X207294363Y-93586544D01*
X207287064Y-93587623D01*
X207279716Y-93588347D01*
X207278352Y-93588911D01*
X207274971Y-93589412D01*
X206989257Y-93660841D01*
X206970797Y-93667436D01*
X206964822Y-93671862D01*
X206957953Y-93674708D01*
X206942800Y-93687145D01*
X206799943Y-93830001D01*
X206793651Y-93837667D01*
X206791654Y-93839400D01*
X206789758Y-93842411D01*
X206787507Y-93845155D01*
X206786497Y-93847592D01*
X206781211Y-93855991D01*
X206709782Y-93998847D01*
X206702776Y-94017156D01*
X206702521Y-94020739D01*
X206701146Y-94024060D01*
X206699225Y-94043569D01*
X206532558Y-94043569D01*
X206532558Y-93036584D01*
X206699469Y-93036584D01*
X206701146Y-93049777D01*
X206701146Y-93063078D01*
X206703585Y-93068966D01*
X206704389Y-93075291D01*
X206710989Y-93086840D01*
X206716078Y-93099126D01*
X206720585Y-93103633D01*
X206723748Y-93109168D01*
X206734262Y-93117310D01*
X206743668Y-93126716D01*
X206749558Y-93129155D01*
X206754597Y-93133058D01*
X206767425Y-93136556D01*
X206779716Y-93141648D01*
X206789693Y-93142630D01*
X206792240Y-93143325D01*
X206794207Y-93143074D01*
X206799225Y-93143569D01*
X208299225Y-93143569D01*
X208318734Y-93141648D01*
X208354782Y-93126716D01*
X208382372Y-93099126D01*
X208397304Y-93063078D01*
X208397304Y-93024060D01*
X208382372Y-92988012D01*
X208354782Y-92960422D01*
X208318734Y-92945490D01*
X208299225Y-92943569D01*
X207175781Y-92943569D01*
X208348839Y-92273250D01*
X208352950Y-92270331D01*
X208354782Y-92269573D01*
X208356647Y-92267707D01*
X208364825Y-92261903D01*
X208372971Y-92251383D01*
X208382372Y-92241983D01*
X208384810Y-92236095D01*
X208388715Y-92231054D01*
X208392214Y-92218221D01*
X208397304Y-92205935D01*
X208397304Y-92199559D01*
X208398981Y-92193410D01*
X208397304Y-92180216D01*
X208397304Y-92166917D01*
X208394864Y-92161028D01*
X208394061Y-92154704D01*
X208387460Y-92143152D01*
X208382372Y-92130869D01*
X208377866Y-92126363D01*
X208374702Y-92120826D01*
X208364182Y-92112679D01*
X208354782Y-92103279D01*
X208348894Y-92100840D01*
X208343853Y-92096936D01*
X208331020Y-92093436D01*
X208318734Y-92088347D01*
X208308756Y-92087364D01*
X208306210Y-92086670D01*
X208304242Y-92086920D01*
X208299225Y-92086426D01*
X206799225Y-92086426D01*
X206779716Y-92088347D01*
X206743668Y-92103279D01*
X206716078Y-92130869D01*
X206701146Y-92166917D01*
X206701146Y-92205935D01*
X206716078Y-92241983D01*
X206743668Y-92269573D01*
X206779716Y-92284505D01*
X206799225Y-92286426D01*
X207922669Y-92286426D01*
X206749611Y-92956745D01*
X206745500Y-92959663D01*
X206743668Y-92960422D01*
X206741801Y-92962288D01*
X206733626Y-92968092D01*
X206725483Y-92978606D01*
X206716078Y-92988012D01*
X206713638Y-92993902D01*
X206709736Y-92998941D01*
X206706237Y-93011769D01*
X206701146Y-93024060D01*
X206701146Y-93030435D01*
X206699469Y-93036584D01*
X206532558Y-93036584D01*
X206532558Y-89829283D01*
X206699225Y-89829283D01*
X206699225Y-90186426D01*
X206701146Y-90205935D01*
X206702521Y-90209255D01*
X206702776Y-90212839D01*
X206709782Y-90231148D01*
X206781211Y-90374004D01*
X206786497Y-90382402D01*
X206787507Y-90384840D01*
X206789758Y-90387583D01*
X206791654Y-90390595D01*
X206793651Y-90392327D01*
X206799943Y-90399994D01*
X206871371Y-90471421D01*
X206886524Y-90483858D01*
X206922573Y-90498789D01*
X206961591Y-90498789D01*
X206997639Y-90483858D01*
X207025229Y-90456268D01*
X207040160Y-90420220D01*
X207040160Y-90381202D01*
X207025229Y-90345153D01*
X207012792Y-90330000D01*
X206952840Y-90270047D01*
X206899225Y-90162817D01*
X206899225Y-89852891D01*
X206952841Y-89745659D01*
X207001316Y-89697183D01*
X207108546Y-89643568D01*
X207211570Y-89643568D01*
X207388062Y-89702399D01*
X208228514Y-90542850D01*
X208243667Y-90555287D01*
X208254225Y-90559660D01*
X208279716Y-90570219D01*
X208318734Y-90570219D01*
X208354782Y-90555287D01*
X208382372Y-90527697D01*
X208397304Y-90491649D01*
X208399225Y-90472140D01*
X208399225Y-89543568D01*
X208397304Y-89524059D01*
X208382372Y-89488011D01*
X208354782Y-89460421D01*
X208318734Y-89445489D01*
X208279716Y-89445489D01*
X208243668Y-89460421D01*
X208216078Y-89488011D01*
X208201146Y-89524059D01*
X208199225Y-89543568D01*
X208199225Y-90230718D01*
X207512793Y-89544286D01*
X207497639Y-89531850D01*
X207494320Y-89530475D01*
X207491605Y-89528120D01*
X207473705Y-89520129D01*
X207259420Y-89448700D01*
X207249747Y-89446500D01*
X207247306Y-89445489D01*
X207243768Y-89445140D01*
X207240305Y-89444353D01*
X207237670Y-89444540D01*
X207227797Y-89443568D01*
X207084939Y-89443568D01*
X207065430Y-89445489D01*
X207062109Y-89446864D01*
X207058526Y-89447119D01*
X207040217Y-89454125D01*
X206897360Y-89525554D01*
X206888962Y-89530839D01*
X206886524Y-89531850D01*
X206883779Y-89534102D01*
X206880770Y-89535997D01*
X206879037Y-89537994D01*
X206871371Y-89544287D01*
X206799943Y-89615716D01*
X206793650Y-89623382D01*
X206791654Y-89625114D01*
X206789760Y-89628121D01*
X206787506Y-89630869D01*
X206786494Y-89633310D01*
X206781211Y-89641705D01*
X206709782Y-89784561D01*
X206702776Y-89802870D01*
X206702521Y-89806453D01*
X206701146Y-89809774D01*
X206699225Y-89829283D01*
X206532558Y-89829283D01*
X206532558Y-89276901D01*
X208565892Y-89276901D01*
X208565892Y-101380879D01*
G37*
X199286627Y-44982933D02*
X200810437Y-44982933D01*
X200048532Y-45744838D02*
X200048532Y-44221028D01*
D12*
X156954819Y-99642857D02*
X156478628Y-99976190D01*
X156954819Y-100214285D02*
X155954819Y-100214285D01*
X155954819Y-100214285D02*
X155954819Y-99833333D01*
X155954819Y-99833333D02*
X156002438Y-99738095D01*
X156002438Y-99738095D02*
X156050057Y-99690476D01*
X156050057Y-99690476D02*
X156145295Y-99642857D01*
X156145295Y-99642857D02*
X156288152Y-99642857D01*
X156288152Y-99642857D02*
X156383390Y-99690476D01*
X156383390Y-99690476D02*
X156431009Y-99738095D01*
X156431009Y-99738095D02*
X156478628Y-99833333D01*
X156478628Y-99833333D02*
X156478628Y-100214285D01*
X156954819Y-98690476D02*
X156954819Y-99261904D01*
X156954819Y-98976190D02*
X155954819Y-98976190D01*
X155954819Y-98976190D02*
X156097676Y-99071428D01*
X156097676Y-99071428D02*
X156192914Y-99166666D01*
X156192914Y-99166666D02*
X156240533Y-99261904D01*
X156954819Y-97738095D02*
X156954819Y-98309523D01*
X156954819Y-98023809D02*
X155954819Y-98023809D01*
X155954819Y-98023809D02*
X156097676Y-98119047D01*
X156097676Y-98119047D02*
X156192914Y-98214285D01*
X156192914Y-98214285D02*
X156240533Y-98309523D01*
X191666666Y-109704819D02*
X191666666Y-110419104D01*
X191666666Y-110419104D02*
X191619047Y-110561961D01*
X191619047Y-110561961D02*
X191523809Y-110657200D01*
X191523809Y-110657200D02*
X191380952Y-110704819D01*
X191380952Y-110704819D02*
X191285714Y-110704819D01*
X192190476Y-110704819D02*
X192380952Y-110704819D01*
X192380952Y-110704819D02*
X192476190Y-110657200D01*
X192476190Y-110657200D02*
X192523809Y-110609580D01*
X192523809Y-110609580D02*
X192619047Y-110466723D01*
X192619047Y-110466723D02*
X192666666Y-110276247D01*
X192666666Y-110276247D02*
X192666666Y-109895295D01*
X192666666Y-109895295D02*
X192619047Y-109800057D01*
X192619047Y-109800057D02*
X192571428Y-109752438D01*
X192571428Y-109752438D02*
X192476190Y-109704819D01*
X192476190Y-109704819D02*
X192285714Y-109704819D01*
X192285714Y-109704819D02*
X192190476Y-109752438D01*
X192190476Y-109752438D02*
X192142857Y-109800057D01*
X192142857Y-109800057D02*
X192095238Y-109895295D01*
X192095238Y-109895295D02*
X192095238Y-110133390D01*
X192095238Y-110133390D02*
X192142857Y-110228628D01*
X192142857Y-110228628D02*
X192190476Y-110276247D01*
X192190476Y-110276247D02*
X192285714Y-110323866D01*
X192285714Y-110323866D02*
X192476190Y-110323866D01*
X192476190Y-110323866D02*
X192571428Y-110276247D01*
X192571428Y-110276247D02*
X192619047Y-110228628D01*
X192619047Y-110228628D02*
X192666666Y-110133390D01*
X183954514Y-88261904D02*
X184764037Y-88261904D01*
X184764037Y-88261904D02*
X184859275Y-88214285D01*
X184859275Y-88214285D02*
X184906895Y-88166666D01*
X184906895Y-88166666D02*
X184954514Y-88071428D01*
X184954514Y-88071428D02*
X184954514Y-87880952D01*
X184954514Y-87880952D02*
X184906895Y-87785714D01*
X184906895Y-87785714D02*
X184859275Y-87738095D01*
X184859275Y-87738095D02*
X184764037Y-87690476D01*
X184764037Y-87690476D02*
X183954514Y-87690476D01*
X183954514Y-87309523D02*
X183954514Y-86690476D01*
X183954514Y-86690476D02*
X184335466Y-87023809D01*
X184335466Y-87023809D02*
X184335466Y-86880952D01*
X184335466Y-86880952D02*
X184383085Y-86785714D01*
X184383085Y-86785714D02*
X184430704Y-86738095D01*
X184430704Y-86738095D02*
X184525942Y-86690476D01*
X184525942Y-86690476D02*
X184764037Y-86690476D01*
X184764037Y-86690476D02*
X184859275Y-86738095D01*
X184859275Y-86738095D02*
X184906895Y-86785714D01*
X184906895Y-86785714D02*
X184954514Y-86880952D01*
X184954514Y-86880952D02*
X184954514Y-87166666D01*
X184954514Y-87166666D02*
X184906895Y-87261904D01*
X184906895Y-87261904D02*
X184859275Y-87309523D01*
X174567319Y-99232857D02*
X174091128Y-99566190D01*
X174567319Y-99804285D02*
X173567319Y-99804285D01*
X173567319Y-99804285D02*
X173567319Y-99423333D01*
X173567319Y-99423333D02*
X173614938Y-99328095D01*
X173614938Y-99328095D02*
X173662557Y-99280476D01*
X173662557Y-99280476D02*
X173757795Y-99232857D01*
X173757795Y-99232857D02*
X173900652Y-99232857D01*
X173900652Y-99232857D02*
X173995890Y-99280476D01*
X173995890Y-99280476D02*
X174043509Y-99328095D01*
X174043509Y-99328095D02*
X174091128Y-99423333D01*
X174091128Y-99423333D02*
X174091128Y-99804285D01*
X174567319Y-98280476D02*
X174567319Y-98851904D01*
X174567319Y-98566190D02*
X173567319Y-98566190D01*
X173567319Y-98566190D02*
X173710176Y-98661428D01*
X173710176Y-98661428D02*
X173805414Y-98756666D01*
X173805414Y-98756666D02*
X173853033Y-98851904D01*
X174567319Y-97804285D02*
X174567319Y-97613809D01*
X174567319Y-97613809D02*
X174519700Y-97518571D01*
X174519700Y-97518571D02*
X174472080Y-97470952D01*
X174472080Y-97470952D02*
X174329223Y-97375714D01*
X174329223Y-97375714D02*
X174138747Y-97328095D01*
X174138747Y-97328095D02*
X173757795Y-97328095D01*
X173757795Y-97328095D02*
X173662557Y-97375714D01*
X173662557Y-97375714D02*
X173614938Y-97423333D01*
X173614938Y-97423333D02*
X173567319Y-97518571D01*
X173567319Y-97518571D02*
X173567319Y-97709047D01*
X173567319Y-97709047D02*
X173614938Y-97804285D01*
X173614938Y-97804285D02*
X173662557Y-97851904D01*
X173662557Y-97851904D02*
X173757795Y-97899523D01*
X173757795Y-97899523D02*
X173995890Y-97899523D01*
X173995890Y-97899523D02*
X174091128Y-97851904D01*
X174091128Y-97851904D02*
X174138747Y-97804285D01*
X174138747Y-97804285D02*
X174186366Y-97709047D01*
X174186366Y-97709047D02*
X174186366Y-97518571D01*
X174186366Y-97518571D02*
X174138747Y-97423333D01*
X174138747Y-97423333D02*
X174091128Y-97375714D01*
X174091128Y-97375714D02*
X173995890Y-97328095D01*
X208416666Y-42704819D02*
X208416666Y-43419104D01*
X208416666Y-43419104D02*
X208369047Y-43561961D01*
X208369047Y-43561961D02*
X208273809Y-43657200D01*
X208273809Y-43657200D02*
X208130952Y-43704819D01*
X208130952Y-43704819D02*
X208035714Y-43704819D01*
X209416666Y-43704819D02*
X208845238Y-43704819D01*
X209130952Y-43704819D02*
X209130952Y-42704819D01*
X209130952Y-42704819D02*
X209035714Y-42847676D01*
X209035714Y-42847676D02*
X208940476Y-42942914D01*
X208940476Y-42942914D02*
X208845238Y-42990533D01*
X206738095Y-77454819D02*
X206738095Y-78264342D01*
X206738095Y-78264342D02*
X206785714Y-78359580D01*
X206785714Y-78359580D02*
X206833333Y-78407200D01*
X206833333Y-78407200D02*
X206928571Y-78454819D01*
X206928571Y-78454819D02*
X207119047Y-78454819D01*
X207119047Y-78454819D02*
X207214285Y-78407200D01*
X207214285Y-78407200D02*
X207261904Y-78359580D01*
X207261904Y-78359580D02*
X207309523Y-78264342D01*
X207309523Y-78264342D02*
X207309523Y-77454819D01*
X208261904Y-77454819D02*
X207785714Y-77454819D01*
X207785714Y-77454819D02*
X207738095Y-77931009D01*
X207738095Y-77931009D02*
X207785714Y-77883390D01*
X207785714Y-77883390D02*
X207880952Y-77835771D01*
X207880952Y-77835771D02*
X208119047Y-77835771D01*
X208119047Y-77835771D02*
X208214285Y-77883390D01*
X208214285Y-77883390D02*
X208261904Y-77931009D01*
X208261904Y-77931009D02*
X208309523Y-78026247D01*
X208309523Y-78026247D02*
X208309523Y-78264342D01*
X208309523Y-78264342D02*
X208261904Y-78359580D01*
X208261904Y-78359580D02*
X208214285Y-78407200D01*
X208214285Y-78407200D02*
X208119047Y-78454819D01*
X208119047Y-78454819D02*
X207880952Y-78454819D01*
X207880952Y-78454819D02*
X207785714Y-78407200D01*
X207785714Y-78407200D02*
X207738095Y-78359580D01*
X206190476Y-63124819D02*
X206190476Y-62124819D01*
X206190476Y-62124819D02*
X206523809Y-62839104D01*
X206523809Y-62839104D02*
X206857142Y-62124819D01*
X206857142Y-62124819D02*
X206857142Y-63124819D01*
X207380952Y-63124819D02*
X207571428Y-63124819D01*
X207571428Y-63124819D02*
X207666666Y-63077200D01*
X207666666Y-63077200D02*
X207714285Y-63029580D01*
X207714285Y-63029580D02*
X207809523Y-62886723D01*
X207809523Y-62886723D02*
X207857142Y-62696247D01*
X207857142Y-62696247D02*
X207857142Y-62315295D01*
X207857142Y-62315295D02*
X207809523Y-62220057D01*
X207809523Y-62220057D02*
X207761904Y-62172438D01*
X207761904Y-62172438D02*
X207666666Y-62124819D01*
X207666666Y-62124819D02*
X207476190Y-62124819D01*
X207476190Y-62124819D02*
X207380952Y-62172438D01*
X207380952Y-62172438D02*
X207333333Y-62220057D01*
X207333333Y-62220057D02*
X207285714Y-62315295D01*
X207285714Y-62315295D02*
X207285714Y-62553390D01*
X207285714Y-62553390D02*
X207333333Y-62648628D01*
X207333333Y-62648628D02*
X207380952Y-62696247D01*
X207380952Y-62696247D02*
X207476190Y-62743866D01*
X207476190Y-62743866D02*
X207666666Y-62743866D01*
X207666666Y-62743866D02*
X207761904Y-62696247D01*
X207761904Y-62696247D02*
X207809523Y-62648628D01*
X207809523Y-62648628D02*
X207857142Y-62553390D01*
X150238095Y-42454819D02*
X150238095Y-41454819D01*
X150238095Y-41931009D02*
X150809523Y-41931009D01*
X150809523Y-42454819D02*
X150809523Y-41454819D01*
X151714285Y-41788152D02*
X151714285Y-42454819D01*
X151476190Y-41407200D02*
X151238095Y-42121485D01*
X151238095Y-42121485D02*
X151857142Y-42121485D01*
X208504819Y-106833333D02*
X209219104Y-106833333D01*
X209219104Y-106833333D02*
X209361961Y-106880952D01*
X209361961Y-106880952D02*
X209457200Y-106976190D01*
X209457200Y-106976190D02*
X209504819Y-107119047D01*
X209504819Y-107119047D02*
X209504819Y-107214285D01*
X208838152Y-105928571D02*
X209504819Y-105928571D01*
X208457200Y-106166666D02*
X209171485Y-106404761D01*
X209171485Y-106404761D02*
X209171485Y-105785714D01*
X153261905Y-101204819D02*
X153261905Y-100204819D01*
X153261905Y-100204819D02*
X153500000Y-100204819D01*
X153500000Y-100204819D02*
X153642857Y-100252438D01*
X153642857Y-100252438D02*
X153738095Y-100347676D01*
X153738095Y-100347676D02*
X153785714Y-100442914D01*
X153785714Y-100442914D02*
X153833333Y-100633390D01*
X153833333Y-100633390D02*
X153833333Y-100776247D01*
X153833333Y-100776247D02*
X153785714Y-100966723D01*
X153785714Y-100966723D02*
X153738095Y-101061961D01*
X153738095Y-101061961D02*
X153642857Y-101157200D01*
X153642857Y-101157200D02*
X153500000Y-101204819D01*
X153500000Y-101204819D02*
X153261905Y-101204819D01*
X154690476Y-100204819D02*
X154500000Y-100204819D01*
X154500000Y-100204819D02*
X154404762Y-100252438D01*
X154404762Y-100252438D02*
X154357143Y-100300057D01*
X154357143Y-100300057D02*
X154261905Y-100442914D01*
X154261905Y-100442914D02*
X154214286Y-100633390D01*
X154214286Y-100633390D02*
X154214286Y-101014342D01*
X154214286Y-101014342D02*
X154261905Y-101109580D01*
X154261905Y-101109580D02*
X154309524Y-101157200D01*
X154309524Y-101157200D02*
X154404762Y-101204819D01*
X154404762Y-101204819D02*
X154595238Y-101204819D01*
X154595238Y-101204819D02*
X154690476Y-101157200D01*
X154690476Y-101157200D02*
X154738095Y-101109580D01*
X154738095Y-101109580D02*
X154785714Y-101014342D01*
X154785714Y-101014342D02*
X154785714Y-100776247D01*
X154785714Y-100776247D02*
X154738095Y-100681009D01*
X154738095Y-100681009D02*
X154690476Y-100633390D01*
X154690476Y-100633390D02*
X154595238Y-100585771D01*
X154595238Y-100585771D02*
X154404762Y-100585771D01*
X154404762Y-100585771D02*
X154309524Y-100633390D01*
X154309524Y-100633390D02*
X154261905Y-100681009D01*
X154261905Y-100681009D02*
X154214286Y-100776247D01*
X150238095Y-118204819D02*
X150238095Y-117204819D01*
X150238095Y-117681009D02*
X150809523Y-117681009D01*
X150809523Y-118204819D02*
X150809523Y-117204819D01*
X151809523Y-118204819D02*
X151238095Y-118204819D01*
X151523809Y-118204819D02*
X151523809Y-117204819D01*
X151523809Y-117204819D02*
X151428571Y-117347676D01*
X151428571Y-117347676D02*
X151333333Y-117442914D01*
X151333333Y-117442914D02*
X151238095Y-117490533D01*
X197454819Y-94246666D02*
X196978628Y-94579999D01*
X197454819Y-94818094D02*
X196454819Y-94818094D01*
X196454819Y-94818094D02*
X196454819Y-94437142D01*
X196454819Y-94437142D02*
X196502438Y-94341904D01*
X196502438Y-94341904D02*
X196550057Y-94294285D01*
X196550057Y-94294285D02*
X196645295Y-94246666D01*
X196645295Y-94246666D02*
X196788152Y-94246666D01*
X196788152Y-94246666D02*
X196883390Y-94294285D01*
X196883390Y-94294285D02*
X196931009Y-94341904D01*
X196931009Y-94341904D02*
X196978628Y-94437142D01*
X196978628Y-94437142D02*
X196978628Y-94818094D01*
X196883390Y-93675237D02*
X196835771Y-93770475D01*
X196835771Y-93770475D02*
X196788152Y-93818094D01*
X196788152Y-93818094D02*
X196692914Y-93865713D01*
X196692914Y-93865713D02*
X196645295Y-93865713D01*
X196645295Y-93865713D02*
X196550057Y-93818094D01*
X196550057Y-93818094D02*
X196502438Y-93770475D01*
X196502438Y-93770475D02*
X196454819Y-93675237D01*
X196454819Y-93675237D02*
X196454819Y-93484761D01*
X196454819Y-93484761D02*
X196502438Y-93389523D01*
X196502438Y-93389523D02*
X196550057Y-93341904D01*
X196550057Y-93341904D02*
X196645295Y-93294285D01*
X196645295Y-93294285D02*
X196692914Y-93294285D01*
X196692914Y-93294285D02*
X196788152Y-93341904D01*
X196788152Y-93341904D02*
X196835771Y-93389523D01*
X196835771Y-93389523D02*
X196883390Y-93484761D01*
X196883390Y-93484761D02*
X196883390Y-93675237D01*
X196883390Y-93675237D02*
X196931009Y-93770475D01*
X196931009Y-93770475D02*
X196978628Y-93818094D01*
X196978628Y-93818094D02*
X197073866Y-93865713D01*
X197073866Y-93865713D02*
X197264342Y-93865713D01*
X197264342Y-93865713D02*
X197359580Y-93818094D01*
X197359580Y-93818094D02*
X197407200Y-93770475D01*
X197407200Y-93770475D02*
X197454819Y-93675237D01*
X197454819Y-93675237D02*
X197454819Y-93484761D01*
X197454819Y-93484761D02*
X197407200Y-93389523D01*
X197407200Y-93389523D02*
X197359580Y-93341904D01*
X197359580Y-93341904D02*
X197264342Y-93294285D01*
X197264342Y-93294285D02*
X197073866Y-93294285D01*
X197073866Y-93294285D02*
X196978628Y-93341904D01*
X196978628Y-93341904D02*
X196931009Y-93389523D01*
X196931009Y-93389523D02*
X196883390Y-93484761D01*
X209430375Y-54238094D02*
X208430375Y-54238094D01*
X208430375Y-54238094D02*
X208430375Y-53999999D01*
X208430375Y-53999999D02*
X208477994Y-53857142D01*
X208477994Y-53857142D02*
X208573232Y-53761904D01*
X208573232Y-53761904D02*
X208668470Y-53714285D01*
X208668470Y-53714285D02*
X208858946Y-53666666D01*
X208858946Y-53666666D02*
X209001803Y-53666666D01*
X209001803Y-53666666D02*
X209192279Y-53714285D01*
X209192279Y-53714285D02*
X209287517Y-53761904D01*
X209287517Y-53761904D02*
X209382756Y-53857142D01*
X209382756Y-53857142D02*
X209430375Y-53999999D01*
X209430375Y-53999999D02*
X209430375Y-54238094D01*
X208430375Y-52761904D02*
X208430375Y-53238094D01*
X208430375Y-53238094D02*
X208906565Y-53285713D01*
X208906565Y-53285713D02*
X208858946Y-53238094D01*
X208858946Y-53238094D02*
X208811327Y-53142856D01*
X208811327Y-53142856D02*
X208811327Y-52904761D01*
X208811327Y-52904761D02*
X208858946Y-52809523D01*
X208858946Y-52809523D02*
X208906565Y-52761904D01*
X208906565Y-52761904D02*
X209001803Y-52714285D01*
X209001803Y-52714285D02*
X209239898Y-52714285D01*
X209239898Y-52714285D02*
X209335136Y-52761904D01*
X209335136Y-52761904D02*
X209382756Y-52809523D01*
X209382756Y-52809523D02*
X209430375Y-52904761D01*
X209430375Y-52904761D02*
X209430375Y-53142856D01*
X209430375Y-53142856D02*
X209382756Y-53238094D01*
X209382756Y-53238094D02*
X209335136Y-53285713D01*
X160454819Y-87142857D02*
X159978628Y-87476190D01*
X160454819Y-87714285D02*
X159454819Y-87714285D01*
X159454819Y-87714285D02*
X159454819Y-87333333D01*
X159454819Y-87333333D02*
X159502438Y-87238095D01*
X159502438Y-87238095D02*
X159550057Y-87190476D01*
X159550057Y-87190476D02*
X159645295Y-87142857D01*
X159645295Y-87142857D02*
X159788152Y-87142857D01*
X159788152Y-87142857D02*
X159883390Y-87190476D01*
X159883390Y-87190476D02*
X159931009Y-87238095D01*
X159931009Y-87238095D02*
X159978628Y-87333333D01*
X159978628Y-87333333D02*
X159978628Y-87714285D01*
X159550057Y-86761904D02*
X159502438Y-86714285D01*
X159502438Y-86714285D02*
X159454819Y-86619047D01*
X159454819Y-86619047D02*
X159454819Y-86380952D01*
X159454819Y-86380952D02*
X159502438Y-86285714D01*
X159502438Y-86285714D02*
X159550057Y-86238095D01*
X159550057Y-86238095D02*
X159645295Y-86190476D01*
X159645295Y-86190476D02*
X159740533Y-86190476D01*
X159740533Y-86190476D02*
X159883390Y-86238095D01*
X159883390Y-86238095D02*
X160454819Y-86809523D01*
X160454819Y-86809523D02*
X160454819Y-86190476D01*
X159454819Y-85857142D02*
X159454819Y-85238095D01*
X159454819Y-85238095D02*
X159835771Y-85571428D01*
X159835771Y-85571428D02*
X159835771Y-85428571D01*
X159835771Y-85428571D02*
X159883390Y-85333333D01*
X159883390Y-85333333D02*
X159931009Y-85285714D01*
X159931009Y-85285714D02*
X160026247Y-85238095D01*
X160026247Y-85238095D02*
X160264342Y-85238095D01*
X160264342Y-85238095D02*
X160359580Y-85285714D01*
X160359580Y-85285714D02*
X160407200Y-85333333D01*
X160407200Y-85333333D02*
X160454819Y-85428571D01*
X160454819Y-85428571D02*
X160454819Y-85714285D01*
X160454819Y-85714285D02*
X160407200Y-85809523D01*
X160407200Y-85809523D02*
X160359580Y-85857142D01*
X184022319Y-99232857D02*
X183546128Y-99566190D01*
X184022319Y-99804285D02*
X183022319Y-99804285D01*
X183022319Y-99804285D02*
X183022319Y-99423333D01*
X183022319Y-99423333D02*
X183069938Y-99328095D01*
X183069938Y-99328095D02*
X183117557Y-99280476D01*
X183117557Y-99280476D02*
X183212795Y-99232857D01*
X183212795Y-99232857D02*
X183355652Y-99232857D01*
X183355652Y-99232857D02*
X183450890Y-99280476D01*
X183450890Y-99280476D02*
X183498509Y-99328095D01*
X183498509Y-99328095D02*
X183546128Y-99423333D01*
X183546128Y-99423333D02*
X183546128Y-99804285D01*
X184022319Y-98280476D02*
X184022319Y-98851904D01*
X184022319Y-98566190D02*
X183022319Y-98566190D01*
X183022319Y-98566190D02*
X183165176Y-98661428D01*
X183165176Y-98661428D02*
X183260414Y-98756666D01*
X183260414Y-98756666D02*
X183308033Y-98851904D01*
X183117557Y-97899523D02*
X183069938Y-97851904D01*
X183069938Y-97851904D02*
X183022319Y-97756666D01*
X183022319Y-97756666D02*
X183022319Y-97518571D01*
X183022319Y-97518571D02*
X183069938Y-97423333D01*
X183069938Y-97423333D02*
X183117557Y-97375714D01*
X183117557Y-97375714D02*
X183212795Y-97328095D01*
X183212795Y-97328095D02*
X183308033Y-97328095D01*
X183308033Y-97328095D02*
X183450890Y-97375714D01*
X183450890Y-97375714D02*
X184022319Y-97947142D01*
X184022319Y-97947142D02*
X184022319Y-97328095D01*
X190372319Y-99232857D02*
X189896128Y-99566190D01*
X190372319Y-99804285D02*
X189372319Y-99804285D01*
X189372319Y-99804285D02*
X189372319Y-99423333D01*
X189372319Y-99423333D02*
X189419938Y-99328095D01*
X189419938Y-99328095D02*
X189467557Y-99280476D01*
X189467557Y-99280476D02*
X189562795Y-99232857D01*
X189562795Y-99232857D02*
X189705652Y-99232857D01*
X189705652Y-99232857D02*
X189800890Y-99280476D01*
X189800890Y-99280476D02*
X189848509Y-99328095D01*
X189848509Y-99328095D02*
X189896128Y-99423333D01*
X189896128Y-99423333D02*
X189896128Y-99804285D01*
X190372319Y-98280476D02*
X190372319Y-98851904D01*
X190372319Y-98566190D02*
X189372319Y-98566190D01*
X189372319Y-98566190D02*
X189515176Y-98661428D01*
X189515176Y-98661428D02*
X189610414Y-98756666D01*
X189610414Y-98756666D02*
X189658033Y-98851904D01*
X189705652Y-97423333D02*
X190372319Y-97423333D01*
X189324700Y-97661428D02*
X190038985Y-97899523D01*
X190038985Y-97899523D02*
X190038985Y-97280476D01*
X212238095Y-42454819D02*
X212238095Y-41454819D01*
X212238095Y-41931009D02*
X212809523Y-41931009D01*
X212809523Y-42454819D02*
X212809523Y-41454819D01*
X213190476Y-41454819D02*
X213809523Y-41454819D01*
X213809523Y-41454819D02*
X213476190Y-41835771D01*
X213476190Y-41835771D02*
X213619047Y-41835771D01*
X213619047Y-41835771D02*
X213714285Y-41883390D01*
X213714285Y-41883390D02*
X213761904Y-41931009D01*
X213761904Y-41931009D02*
X213809523Y-42026247D01*
X213809523Y-42026247D02*
X213809523Y-42264342D01*
X213809523Y-42264342D02*
X213761904Y-42359580D01*
X213761904Y-42359580D02*
X213714285Y-42407200D01*
X213714285Y-42407200D02*
X213619047Y-42454819D01*
X213619047Y-42454819D02*
X213333333Y-42454819D01*
X213333333Y-42454819D02*
X213238095Y-42407200D01*
X213238095Y-42407200D02*
X213190476Y-42359580D01*
X178904761Y-47550057D02*
X178809523Y-47502438D01*
X178809523Y-47502438D02*
X178714285Y-47407200D01*
X178714285Y-47407200D02*
X178571428Y-47264342D01*
X178571428Y-47264342D02*
X178476190Y-47216723D01*
X178476190Y-47216723D02*
X178380952Y-47216723D01*
X178428571Y-47454819D02*
X178333333Y-47407200D01*
X178333333Y-47407200D02*
X178238095Y-47311961D01*
X178238095Y-47311961D02*
X178190476Y-47121485D01*
X178190476Y-47121485D02*
X178190476Y-46788152D01*
X178190476Y-46788152D02*
X178238095Y-46597676D01*
X178238095Y-46597676D02*
X178333333Y-46502438D01*
X178333333Y-46502438D02*
X178428571Y-46454819D01*
X178428571Y-46454819D02*
X178619047Y-46454819D01*
X178619047Y-46454819D02*
X178714285Y-46502438D01*
X178714285Y-46502438D02*
X178809523Y-46597676D01*
X178809523Y-46597676D02*
X178857142Y-46788152D01*
X178857142Y-46788152D02*
X178857142Y-47121485D01*
X178857142Y-47121485D02*
X178809523Y-47311961D01*
X178809523Y-47311961D02*
X178714285Y-47407200D01*
X178714285Y-47407200D02*
X178619047Y-47454819D01*
X178619047Y-47454819D02*
X178428571Y-47454819D01*
X179190476Y-46454819D02*
X179809523Y-46454819D01*
X179809523Y-46454819D02*
X179476190Y-46835771D01*
X179476190Y-46835771D02*
X179619047Y-46835771D01*
X179619047Y-46835771D02*
X179714285Y-46883390D01*
X179714285Y-46883390D02*
X179761904Y-46931009D01*
X179761904Y-46931009D02*
X179809523Y-47026247D01*
X179809523Y-47026247D02*
X179809523Y-47264342D01*
X179809523Y-47264342D02*
X179761904Y-47359580D01*
X179761904Y-47359580D02*
X179714285Y-47407200D01*
X179714285Y-47407200D02*
X179619047Y-47454819D01*
X179619047Y-47454819D02*
X179333333Y-47454819D01*
X179333333Y-47454819D02*
X179238095Y-47407200D01*
X179238095Y-47407200D02*
X179190476Y-47359580D01*
X174454819Y-86222857D02*
X173978628Y-86556190D01*
X174454819Y-86794285D02*
X173454819Y-86794285D01*
X173454819Y-86794285D02*
X173454819Y-86413333D01*
X173454819Y-86413333D02*
X173502438Y-86318095D01*
X173502438Y-86318095D02*
X173550057Y-86270476D01*
X173550057Y-86270476D02*
X173645295Y-86222857D01*
X173645295Y-86222857D02*
X173788152Y-86222857D01*
X173788152Y-86222857D02*
X173883390Y-86270476D01*
X173883390Y-86270476D02*
X173931009Y-86318095D01*
X173931009Y-86318095D02*
X173978628Y-86413333D01*
X173978628Y-86413333D02*
X173978628Y-86794285D01*
X174454819Y-85270476D02*
X174454819Y-85841904D01*
X174454819Y-85556190D02*
X173454819Y-85556190D01*
X173454819Y-85556190D02*
X173597676Y-85651428D01*
X173597676Y-85651428D02*
X173692914Y-85746666D01*
X173692914Y-85746666D02*
X173740533Y-85841904D01*
X173454819Y-84413333D02*
X173454819Y-84603809D01*
X173454819Y-84603809D02*
X173502438Y-84699047D01*
X173502438Y-84699047D02*
X173550057Y-84746666D01*
X173550057Y-84746666D02*
X173692914Y-84841904D01*
X173692914Y-84841904D02*
X173883390Y-84889523D01*
X173883390Y-84889523D02*
X174264342Y-84889523D01*
X174264342Y-84889523D02*
X174359580Y-84841904D01*
X174359580Y-84841904D02*
X174407200Y-84794285D01*
X174407200Y-84794285D02*
X174454819Y-84699047D01*
X174454819Y-84699047D02*
X174454819Y-84508571D01*
X174454819Y-84508571D02*
X174407200Y-84413333D01*
X174407200Y-84413333D02*
X174359580Y-84365714D01*
X174359580Y-84365714D02*
X174264342Y-84318095D01*
X174264342Y-84318095D02*
X174026247Y-84318095D01*
X174026247Y-84318095D02*
X173931009Y-84365714D01*
X173931009Y-84365714D02*
X173883390Y-84413333D01*
X173883390Y-84413333D02*
X173835771Y-84508571D01*
X173835771Y-84508571D02*
X173835771Y-84699047D01*
X173835771Y-84699047D02*
X173883390Y-84794285D01*
X173883390Y-84794285D02*
X173931009Y-84841904D01*
X173931009Y-84841904D02*
X174026247Y-84889523D01*
X182954819Y-67746666D02*
X182478628Y-68079999D01*
X182954819Y-68318094D02*
X181954819Y-68318094D01*
X181954819Y-68318094D02*
X181954819Y-67937142D01*
X181954819Y-67937142D02*
X182002438Y-67841904D01*
X182002438Y-67841904D02*
X182050057Y-67794285D01*
X182050057Y-67794285D02*
X182145295Y-67746666D01*
X182145295Y-67746666D02*
X182288152Y-67746666D01*
X182288152Y-67746666D02*
X182383390Y-67794285D01*
X182383390Y-67794285D02*
X182431009Y-67841904D01*
X182431009Y-67841904D02*
X182478628Y-67937142D01*
X182478628Y-67937142D02*
X182478628Y-68318094D01*
X181954819Y-66841904D02*
X181954819Y-67318094D01*
X181954819Y-67318094D02*
X182431009Y-67365713D01*
X182431009Y-67365713D02*
X182383390Y-67318094D01*
X182383390Y-67318094D02*
X182335771Y-67222856D01*
X182335771Y-67222856D02*
X182335771Y-66984761D01*
X182335771Y-66984761D02*
X182383390Y-66889523D01*
X182383390Y-66889523D02*
X182431009Y-66841904D01*
X182431009Y-66841904D02*
X182526247Y-66794285D01*
X182526247Y-66794285D02*
X182764342Y-66794285D01*
X182764342Y-66794285D02*
X182859580Y-66841904D01*
X182859580Y-66841904D02*
X182907200Y-66889523D01*
X182907200Y-66889523D02*
X182954819Y-66984761D01*
X182954819Y-66984761D02*
X182954819Y-67222856D01*
X182954819Y-67222856D02*
X182907200Y-67318094D01*
X182907200Y-67318094D02*
X182859580Y-67365713D01*
X156954819Y-111666666D02*
X156478628Y-111999999D01*
X156954819Y-112238094D02*
X155954819Y-112238094D01*
X155954819Y-112238094D02*
X155954819Y-111857142D01*
X155954819Y-111857142D02*
X156002438Y-111761904D01*
X156002438Y-111761904D02*
X156050057Y-111714285D01*
X156050057Y-111714285D02*
X156145295Y-111666666D01*
X156145295Y-111666666D02*
X156288152Y-111666666D01*
X156288152Y-111666666D02*
X156383390Y-111714285D01*
X156383390Y-111714285D02*
X156431009Y-111761904D01*
X156431009Y-111761904D02*
X156478628Y-111857142D01*
X156478628Y-111857142D02*
X156478628Y-112238094D01*
X155954819Y-111333332D02*
X155954819Y-110714285D01*
X155954819Y-110714285D02*
X156335771Y-111047618D01*
X156335771Y-111047618D02*
X156335771Y-110904761D01*
X156335771Y-110904761D02*
X156383390Y-110809523D01*
X156383390Y-110809523D02*
X156431009Y-110761904D01*
X156431009Y-110761904D02*
X156526247Y-110714285D01*
X156526247Y-110714285D02*
X156764342Y-110714285D01*
X156764342Y-110714285D02*
X156859580Y-110761904D01*
X156859580Y-110761904D02*
X156907200Y-110809523D01*
X156907200Y-110809523D02*
X156954819Y-110904761D01*
X156954819Y-110904761D02*
X156954819Y-111190475D01*
X156954819Y-111190475D02*
X156907200Y-111285713D01*
X156907200Y-111285713D02*
X156859580Y-111333332D01*
X171190476Y-63124819D02*
X171190476Y-62124819D01*
X171190476Y-62124819D02*
X171523809Y-62839104D01*
X171523809Y-62839104D02*
X171857142Y-62124819D01*
X171857142Y-62124819D02*
X171857142Y-63124819D01*
X172761904Y-62458152D02*
X172761904Y-63124819D01*
X172523809Y-62077200D02*
X172285714Y-62791485D01*
X172285714Y-62791485D02*
X172904761Y-62791485D01*
X181833333Y-84359580D02*
X181785714Y-84407200D01*
X181785714Y-84407200D02*
X181642857Y-84454819D01*
X181642857Y-84454819D02*
X181547619Y-84454819D01*
X181547619Y-84454819D02*
X181404762Y-84407200D01*
X181404762Y-84407200D02*
X181309524Y-84311961D01*
X181309524Y-84311961D02*
X181261905Y-84216723D01*
X181261905Y-84216723D02*
X181214286Y-84026247D01*
X181214286Y-84026247D02*
X181214286Y-83883390D01*
X181214286Y-83883390D02*
X181261905Y-83692914D01*
X181261905Y-83692914D02*
X181309524Y-83597676D01*
X181309524Y-83597676D02*
X181404762Y-83502438D01*
X181404762Y-83502438D02*
X181547619Y-83454819D01*
X181547619Y-83454819D02*
X181642857Y-83454819D01*
X181642857Y-83454819D02*
X181785714Y-83502438D01*
X181785714Y-83502438D02*
X181833333Y-83550057D01*
X182166667Y-83454819D02*
X182785714Y-83454819D01*
X182785714Y-83454819D02*
X182452381Y-83835771D01*
X182452381Y-83835771D02*
X182595238Y-83835771D01*
X182595238Y-83835771D02*
X182690476Y-83883390D01*
X182690476Y-83883390D02*
X182738095Y-83931009D01*
X182738095Y-83931009D02*
X182785714Y-84026247D01*
X182785714Y-84026247D02*
X182785714Y-84264342D01*
X182785714Y-84264342D02*
X182738095Y-84359580D01*
X182738095Y-84359580D02*
X182690476Y-84407200D01*
X182690476Y-84407200D02*
X182595238Y-84454819D01*
X182595238Y-84454819D02*
X182309524Y-84454819D01*
X182309524Y-84454819D02*
X182214286Y-84407200D01*
X182214286Y-84407200D02*
X182166667Y-84359580D01*
X150190476Y-63124819D02*
X150190476Y-62124819D01*
X150190476Y-62124819D02*
X150523809Y-62839104D01*
X150523809Y-62839104D02*
X150857142Y-62124819D01*
X150857142Y-62124819D02*
X150857142Y-63124819D01*
X151857142Y-63124819D02*
X151285714Y-63124819D01*
X151571428Y-63124819D02*
X151571428Y-62124819D01*
X151571428Y-62124819D02*
X151476190Y-62267676D01*
X151476190Y-62267676D02*
X151380952Y-62362914D01*
X151380952Y-62362914D02*
X151285714Y-62410533D01*
X154756096Y-47036830D02*
X154660858Y-46989211D01*
X154660858Y-46989211D02*
X154565620Y-46893973D01*
X154565620Y-46893973D02*
X154422763Y-46751115D01*
X154422763Y-46751115D02*
X154327525Y-46703496D01*
X154327525Y-46703496D02*
X154232287Y-46703496D01*
X154279906Y-46941592D02*
X154184668Y-46893973D01*
X154184668Y-46893973D02*
X154089430Y-46798734D01*
X154089430Y-46798734D02*
X154041811Y-46608258D01*
X154041811Y-46608258D02*
X154041811Y-46274925D01*
X154041811Y-46274925D02*
X154089430Y-46084449D01*
X154089430Y-46084449D02*
X154184668Y-45989211D01*
X154184668Y-45989211D02*
X154279906Y-45941592D01*
X154279906Y-45941592D02*
X154470382Y-45941592D01*
X154470382Y-45941592D02*
X154565620Y-45989211D01*
X154565620Y-45989211D02*
X154660858Y-46084449D01*
X154660858Y-46084449D02*
X154708477Y-46274925D01*
X154708477Y-46274925D02*
X154708477Y-46608258D01*
X154708477Y-46608258D02*
X154660858Y-46798734D01*
X154660858Y-46798734D02*
X154565620Y-46893973D01*
X154565620Y-46893973D02*
X154470382Y-46941592D01*
X154470382Y-46941592D02*
X154279906Y-46941592D01*
X155660858Y-46941592D02*
X155089430Y-46941592D01*
X155375144Y-46941592D02*
X155375144Y-45941592D01*
X155375144Y-45941592D02*
X155279906Y-46084449D01*
X155279906Y-46084449D02*
X155184668Y-46179687D01*
X155184668Y-46179687D02*
X155089430Y-46227306D01*
X185405930Y-54238094D02*
X184405930Y-54238094D01*
X184405930Y-54238094D02*
X184405930Y-53999999D01*
X184405930Y-53999999D02*
X184453549Y-53857142D01*
X184453549Y-53857142D02*
X184548787Y-53761904D01*
X184548787Y-53761904D02*
X184644025Y-53714285D01*
X184644025Y-53714285D02*
X184834501Y-53666666D01*
X184834501Y-53666666D02*
X184977358Y-53666666D01*
X184977358Y-53666666D02*
X185167834Y-53714285D01*
X185167834Y-53714285D02*
X185263072Y-53761904D01*
X185263072Y-53761904D02*
X185358311Y-53857142D01*
X185358311Y-53857142D02*
X185405930Y-53999999D01*
X185405930Y-53999999D02*
X185405930Y-54238094D01*
X184405930Y-53333332D02*
X184405930Y-52714285D01*
X184405930Y-52714285D02*
X184786882Y-53047618D01*
X184786882Y-53047618D02*
X184786882Y-52904761D01*
X184786882Y-52904761D02*
X184834501Y-52809523D01*
X184834501Y-52809523D02*
X184882120Y-52761904D01*
X184882120Y-52761904D02*
X184977358Y-52714285D01*
X184977358Y-52714285D02*
X185215453Y-52714285D01*
X185215453Y-52714285D02*
X185310691Y-52761904D01*
X185310691Y-52761904D02*
X185358311Y-52809523D01*
X185358311Y-52809523D02*
X185405930Y-52904761D01*
X185405930Y-52904761D02*
X185405930Y-53190475D01*
X185405930Y-53190475D02*
X185358311Y-53285713D01*
X185358311Y-53285713D02*
X185310691Y-53333332D01*
X212714286Y-63124819D02*
X212714286Y-62124819D01*
X212714286Y-62124819D02*
X213047619Y-62839104D01*
X213047619Y-62839104D02*
X213380952Y-62124819D01*
X213380952Y-62124819D02*
X213380952Y-63124819D01*
X214380952Y-63124819D02*
X213809524Y-63124819D01*
X214095238Y-63124819D02*
X214095238Y-62124819D01*
X214095238Y-62124819D02*
X214000000Y-62267676D01*
X214000000Y-62267676D02*
X213904762Y-62362914D01*
X213904762Y-62362914D02*
X213809524Y-62410533D01*
X215000000Y-62124819D02*
X215095238Y-62124819D01*
X215095238Y-62124819D02*
X215190476Y-62172438D01*
X215190476Y-62172438D02*
X215238095Y-62220057D01*
X215238095Y-62220057D02*
X215285714Y-62315295D01*
X215285714Y-62315295D02*
X215333333Y-62505771D01*
X215333333Y-62505771D02*
X215333333Y-62743866D01*
X215333333Y-62743866D02*
X215285714Y-62934342D01*
X215285714Y-62934342D02*
X215238095Y-63029580D01*
X215238095Y-63029580D02*
X215190476Y-63077200D01*
X215190476Y-63077200D02*
X215095238Y-63124819D01*
X215095238Y-63124819D02*
X215000000Y-63124819D01*
X215000000Y-63124819D02*
X214904762Y-63077200D01*
X214904762Y-63077200D02*
X214857143Y-63029580D01*
X214857143Y-63029580D02*
X214809524Y-62934342D01*
X214809524Y-62934342D02*
X214761905Y-62743866D01*
X214761905Y-62743866D02*
X214761905Y-62505771D01*
X214761905Y-62505771D02*
X214809524Y-62315295D01*
X214809524Y-62315295D02*
X214857143Y-62220057D01*
X214857143Y-62220057D02*
X214904762Y-62172438D01*
X214904762Y-62172438D02*
X215000000Y-62124819D01*
X187197319Y-99232857D02*
X186721128Y-99566190D01*
X187197319Y-99804285D02*
X186197319Y-99804285D01*
X186197319Y-99804285D02*
X186197319Y-99423333D01*
X186197319Y-99423333D02*
X186244938Y-99328095D01*
X186244938Y-99328095D02*
X186292557Y-99280476D01*
X186292557Y-99280476D02*
X186387795Y-99232857D01*
X186387795Y-99232857D02*
X186530652Y-99232857D01*
X186530652Y-99232857D02*
X186625890Y-99280476D01*
X186625890Y-99280476D02*
X186673509Y-99328095D01*
X186673509Y-99328095D02*
X186721128Y-99423333D01*
X186721128Y-99423333D02*
X186721128Y-99804285D01*
X187197319Y-98280476D02*
X187197319Y-98851904D01*
X187197319Y-98566190D02*
X186197319Y-98566190D01*
X186197319Y-98566190D02*
X186340176Y-98661428D01*
X186340176Y-98661428D02*
X186435414Y-98756666D01*
X186435414Y-98756666D02*
X186483033Y-98851904D01*
X186197319Y-97947142D02*
X186197319Y-97328095D01*
X186197319Y-97328095D02*
X186578271Y-97661428D01*
X186578271Y-97661428D02*
X186578271Y-97518571D01*
X186578271Y-97518571D02*
X186625890Y-97423333D01*
X186625890Y-97423333D02*
X186673509Y-97375714D01*
X186673509Y-97375714D02*
X186768747Y-97328095D01*
X186768747Y-97328095D02*
X187006842Y-97328095D01*
X187006842Y-97328095D02*
X187102080Y-97375714D01*
X187102080Y-97375714D02*
X187149700Y-97423333D01*
X187149700Y-97423333D02*
X187197319Y-97518571D01*
X187197319Y-97518571D02*
X187197319Y-97804285D01*
X187197319Y-97804285D02*
X187149700Y-97899523D01*
X187149700Y-97899523D02*
X187102080Y-97947142D01*
X166048095Y-80584819D02*
X166048095Y-81394342D01*
X166048095Y-81394342D02*
X166095714Y-81489580D01*
X166095714Y-81489580D02*
X166143333Y-81537200D01*
X166143333Y-81537200D02*
X166238571Y-81584819D01*
X166238571Y-81584819D02*
X166429047Y-81584819D01*
X166429047Y-81584819D02*
X166524285Y-81537200D01*
X166524285Y-81537200D02*
X166571904Y-81489580D01*
X166571904Y-81489580D02*
X166619523Y-81394342D01*
X166619523Y-81394342D02*
X166619523Y-80584819D01*
X167048095Y-80680057D02*
X167095714Y-80632438D01*
X167095714Y-80632438D02*
X167190952Y-80584819D01*
X167190952Y-80584819D02*
X167429047Y-80584819D01*
X167429047Y-80584819D02*
X167524285Y-80632438D01*
X167524285Y-80632438D02*
X167571904Y-80680057D01*
X167571904Y-80680057D02*
X167619523Y-80775295D01*
X167619523Y-80775295D02*
X167619523Y-80870533D01*
X167619523Y-80870533D02*
X167571904Y-81013390D01*
X167571904Y-81013390D02*
X167000476Y-81584819D01*
X167000476Y-81584819D02*
X167619523Y-81584819D01*
X166892539Y-47550057D02*
X166797301Y-47502438D01*
X166797301Y-47502438D02*
X166702063Y-47407200D01*
X166702063Y-47407200D02*
X166559206Y-47264342D01*
X166559206Y-47264342D02*
X166463968Y-47216723D01*
X166463968Y-47216723D02*
X166368730Y-47216723D01*
X166416349Y-47454819D02*
X166321111Y-47407200D01*
X166321111Y-47407200D02*
X166225873Y-47311961D01*
X166225873Y-47311961D02*
X166178254Y-47121485D01*
X166178254Y-47121485D02*
X166178254Y-46788152D01*
X166178254Y-46788152D02*
X166225873Y-46597676D01*
X166225873Y-46597676D02*
X166321111Y-46502438D01*
X166321111Y-46502438D02*
X166416349Y-46454819D01*
X166416349Y-46454819D02*
X166606825Y-46454819D01*
X166606825Y-46454819D02*
X166702063Y-46502438D01*
X166702063Y-46502438D02*
X166797301Y-46597676D01*
X166797301Y-46597676D02*
X166844920Y-46788152D01*
X166844920Y-46788152D02*
X166844920Y-47121485D01*
X166844920Y-47121485D02*
X166797301Y-47311961D01*
X166797301Y-47311961D02*
X166702063Y-47407200D01*
X166702063Y-47407200D02*
X166606825Y-47454819D01*
X166606825Y-47454819D02*
X166416349Y-47454819D01*
X167225873Y-46550057D02*
X167273492Y-46502438D01*
X167273492Y-46502438D02*
X167368730Y-46454819D01*
X167368730Y-46454819D02*
X167606825Y-46454819D01*
X167606825Y-46454819D02*
X167702063Y-46502438D01*
X167702063Y-46502438D02*
X167749682Y-46550057D01*
X167749682Y-46550057D02*
X167797301Y-46645295D01*
X167797301Y-46645295D02*
X167797301Y-46740533D01*
X167797301Y-46740533D02*
X167749682Y-46883390D01*
X167749682Y-46883390D02*
X167178254Y-47454819D01*
X167178254Y-47454819D02*
X167797301Y-47454819D01*
X192190476Y-63124819D02*
X192190476Y-62124819D01*
X192190476Y-62124819D02*
X192523809Y-62839104D01*
X192523809Y-62839104D02*
X192857142Y-62124819D01*
X192857142Y-62124819D02*
X192857142Y-63124819D01*
X193238095Y-62124819D02*
X193904761Y-62124819D01*
X193904761Y-62124819D02*
X193476190Y-63124819D01*
X153511905Y-94454819D02*
X153511905Y-93454819D01*
X153511905Y-93454819D02*
X153750000Y-93454819D01*
X153750000Y-93454819D02*
X153892857Y-93502438D01*
X153892857Y-93502438D02*
X153988095Y-93597676D01*
X153988095Y-93597676D02*
X154035714Y-93692914D01*
X154035714Y-93692914D02*
X154083333Y-93883390D01*
X154083333Y-93883390D02*
X154083333Y-94026247D01*
X154083333Y-94026247D02*
X154035714Y-94216723D01*
X154035714Y-94216723D02*
X153988095Y-94311961D01*
X153988095Y-94311961D02*
X153892857Y-94407200D01*
X153892857Y-94407200D02*
X153750000Y-94454819D01*
X153750000Y-94454819D02*
X153511905Y-94454819D01*
X154416667Y-93454819D02*
X155083333Y-93454819D01*
X155083333Y-93454819D02*
X154654762Y-94454819D01*
X178190476Y-63124819D02*
X178190476Y-62124819D01*
X178190476Y-62124819D02*
X178523809Y-62839104D01*
X178523809Y-62839104D02*
X178857142Y-62124819D01*
X178857142Y-62124819D02*
X178857142Y-63124819D01*
X179809523Y-62124819D02*
X179333333Y-62124819D01*
X179333333Y-62124819D02*
X179285714Y-62601009D01*
X179285714Y-62601009D02*
X179333333Y-62553390D01*
X179333333Y-62553390D02*
X179428571Y-62505771D01*
X179428571Y-62505771D02*
X179666666Y-62505771D01*
X179666666Y-62505771D02*
X179761904Y-62553390D01*
X179761904Y-62553390D02*
X179809523Y-62601009D01*
X179809523Y-62601009D02*
X179857142Y-62696247D01*
X179857142Y-62696247D02*
X179857142Y-62934342D01*
X179857142Y-62934342D02*
X179809523Y-63029580D01*
X179809523Y-63029580D02*
X179761904Y-63077200D01*
X179761904Y-63077200D02*
X179666666Y-63124819D01*
X179666666Y-63124819D02*
X179428571Y-63124819D01*
X179428571Y-63124819D02*
X179333333Y-63077200D01*
X179333333Y-63077200D02*
X179285714Y-63029580D01*
X190861983Y-47550057D02*
X190766745Y-47502438D01*
X190766745Y-47502438D02*
X190671507Y-47407200D01*
X190671507Y-47407200D02*
X190528650Y-47264342D01*
X190528650Y-47264342D02*
X190433412Y-47216723D01*
X190433412Y-47216723D02*
X190338174Y-47216723D01*
X190385793Y-47454819D02*
X190290555Y-47407200D01*
X190290555Y-47407200D02*
X190195317Y-47311961D01*
X190195317Y-47311961D02*
X190147698Y-47121485D01*
X190147698Y-47121485D02*
X190147698Y-46788152D01*
X190147698Y-46788152D02*
X190195317Y-46597676D01*
X190195317Y-46597676D02*
X190290555Y-46502438D01*
X190290555Y-46502438D02*
X190385793Y-46454819D01*
X190385793Y-46454819D02*
X190576269Y-46454819D01*
X190576269Y-46454819D02*
X190671507Y-46502438D01*
X190671507Y-46502438D02*
X190766745Y-46597676D01*
X190766745Y-46597676D02*
X190814364Y-46788152D01*
X190814364Y-46788152D02*
X190814364Y-47121485D01*
X190814364Y-47121485D02*
X190766745Y-47311961D01*
X190766745Y-47311961D02*
X190671507Y-47407200D01*
X190671507Y-47407200D02*
X190576269Y-47454819D01*
X190576269Y-47454819D02*
X190385793Y-47454819D01*
X191671507Y-46788152D02*
X191671507Y-47454819D01*
X191433412Y-46407200D02*
X191195317Y-47121485D01*
X191195317Y-47121485D02*
X191814364Y-47121485D01*
X173393708Y-54238094D02*
X172393708Y-54238094D01*
X172393708Y-54238094D02*
X172393708Y-53999999D01*
X172393708Y-53999999D02*
X172441327Y-53857142D01*
X172441327Y-53857142D02*
X172536565Y-53761904D01*
X172536565Y-53761904D02*
X172631803Y-53714285D01*
X172631803Y-53714285D02*
X172822279Y-53666666D01*
X172822279Y-53666666D02*
X172965136Y-53666666D01*
X172965136Y-53666666D02*
X173155612Y-53714285D01*
X173155612Y-53714285D02*
X173250850Y-53761904D01*
X173250850Y-53761904D02*
X173346089Y-53857142D01*
X173346089Y-53857142D02*
X173393708Y-53999999D01*
X173393708Y-53999999D02*
X173393708Y-54238094D01*
X172488946Y-53285713D02*
X172441327Y-53238094D01*
X172441327Y-53238094D02*
X172393708Y-53142856D01*
X172393708Y-53142856D02*
X172393708Y-52904761D01*
X172393708Y-52904761D02*
X172441327Y-52809523D01*
X172441327Y-52809523D02*
X172488946Y-52761904D01*
X172488946Y-52761904D02*
X172584184Y-52714285D01*
X172584184Y-52714285D02*
X172679422Y-52714285D01*
X172679422Y-52714285D02*
X172822279Y-52761904D01*
X172822279Y-52761904D02*
X173393708Y-53333332D01*
X173393708Y-53333332D02*
X173393708Y-52714285D01*
X197418152Y-54238094D02*
X196418152Y-54238094D01*
X196418152Y-54238094D02*
X196418152Y-53999999D01*
X196418152Y-53999999D02*
X196465771Y-53857142D01*
X196465771Y-53857142D02*
X196561009Y-53761904D01*
X196561009Y-53761904D02*
X196656247Y-53714285D01*
X196656247Y-53714285D02*
X196846723Y-53666666D01*
X196846723Y-53666666D02*
X196989580Y-53666666D01*
X196989580Y-53666666D02*
X197180056Y-53714285D01*
X197180056Y-53714285D02*
X197275294Y-53761904D01*
X197275294Y-53761904D02*
X197370533Y-53857142D01*
X197370533Y-53857142D02*
X197418152Y-53999999D01*
X197418152Y-53999999D02*
X197418152Y-54238094D01*
X196751485Y-52809523D02*
X197418152Y-52809523D01*
X196370533Y-53047618D02*
X197084818Y-53285713D01*
X197084818Y-53285713D02*
X197084818Y-52666666D01*
X194454819Y-94246666D02*
X193978628Y-94579999D01*
X194454819Y-94818094D02*
X193454819Y-94818094D01*
X193454819Y-94818094D02*
X193454819Y-94437142D01*
X193454819Y-94437142D02*
X193502438Y-94341904D01*
X193502438Y-94341904D02*
X193550057Y-94294285D01*
X193550057Y-94294285D02*
X193645295Y-94246666D01*
X193645295Y-94246666D02*
X193788152Y-94246666D01*
X193788152Y-94246666D02*
X193883390Y-94294285D01*
X193883390Y-94294285D02*
X193931009Y-94341904D01*
X193931009Y-94341904D02*
X193978628Y-94437142D01*
X193978628Y-94437142D02*
X193978628Y-94818094D01*
X194454819Y-93770475D02*
X194454819Y-93579999D01*
X194454819Y-93579999D02*
X194407200Y-93484761D01*
X194407200Y-93484761D02*
X194359580Y-93437142D01*
X194359580Y-93437142D02*
X194216723Y-93341904D01*
X194216723Y-93341904D02*
X194026247Y-93294285D01*
X194026247Y-93294285D02*
X193645295Y-93294285D01*
X193645295Y-93294285D02*
X193550057Y-93341904D01*
X193550057Y-93341904D02*
X193502438Y-93389523D01*
X193502438Y-93389523D02*
X193454819Y-93484761D01*
X193454819Y-93484761D02*
X193454819Y-93675237D01*
X193454819Y-93675237D02*
X193502438Y-93770475D01*
X193502438Y-93770475D02*
X193550057Y-93818094D01*
X193550057Y-93818094D02*
X193645295Y-93865713D01*
X193645295Y-93865713D02*
X193883390Y-93865713D01*
X193883390Y-93865713D02*
X193978628Y-93818094D01*
X193978628Y-93818094D02*
X194026247Y-93770475D01*
X194026247Y-93770475D02*
X194073866Y-93675237D01*
X194073866Y-93675237D02*
X194073866Y-93484761D01*
X194073866Y-93484761D02*
X194026247Y-93389523D01*
X194026247Y-93389523D02*
X193978628Y-93341904D01*
X193978628Y-93341904D02*
X193883390Y-93294285D01*
X159833333Y-99359580D02*
X159785714Y-99407200D01*
X159785714Y-99407200D02*
X159642857Y-99454819D01*
X159642857Y-99454819D02*
X159547619Y-99454819D01*
X159547619Y-99454819D02*
X159404762Y-99407200D01*
X159404762Y-99407200D02*
X159309524Y-99311961D01*
X159309524Y-99311961D02*
X159261905Y-99216723D01*
X159261905Y-99216723D02*
X159214286Y-99026247D01*
X159214286Y-99026247D02*
X159214286Y-98883390D01*
X159214286Y-98883390D02*
X159261905Y-98692914D01*
X159261905Y-98692914D02*
X159309524Y-98597676D01*
X159309524Y-98597676D02*
X159404762Y-98502438D01*
X159404762Y-98502438D02*
X159547619Y-98454819D01*
X159547619Y-98454819D02*
X159642857Y-98454819D01*
X159642857Y-98454819D02*
X159785714Y-98502438D01*
X159785714Y-98502438D02*
X159833333Y-98550057D01*
X160785714Y-99454819D02*
X160214286Y-99454819D01*
X160500000Y-99454819D02*
X160500000Y-98454819D01*
X160500000Y-98454819D02*
X160404762Y-98597676D01*
X160404762Y-98597676D02*
X160309524Y-98692914D01*
X160309524Y-98692914D02*
X160214286Y-98740533D01*
X152954819Y-82062857D02*
X152478628Y-82396190D01*
X152954819Y-82634285D02*
X151954819Y-82634285D01*
X151954819Y-82634285D02*
X151954819Y-82253333D01*
X151954819Y-82253333D02*
X152002438Y-82158095D01*
X152002438Y-82158095D02*
X152050057Y-82110476D01*
X152050057Y-82110476D02*
X152145295Y-82062857D01*
X152145295Y-82062857D02*
X152288152Y-82062857D01*
X152288152Y-82062857D02*
X152383390Y-82110476D01*
X152383390Y-82110476D02*
X152431009Y-82158095D01*
X152431009Y-82158095D02*
X152478628Y-82253333D01*
X152478628Y-82253333D02*
X152478628Y-82634285D01*
X152050057Y-81681904D02*
X152002438Y-81634285D01*
X152002438Y-81634285D02*
X151954819Y-81539047D01*
X151954819Y-81539047D02*
X151954819Y-81300952D01*
X151954819Y-81300952D02*
X152002438Y-81205714D01*
X152002438Y-81205714D02*
X152050057Y-81158095D01*
X152050057Y-81158095D02*
X152145295Y-81110476D01*
X152145295Y-81110476D02*
X152240533Y-81110476D01*
X152240533Y-81110476D02*
X152383390Y-81158095D01*
X152383390Y-81158095D02*
X152954819Y-81729523D01*
X152954819Y-81729523D02*
X152954819Y-81110476D01*
X152954819Y-80158095D02*
X152954819Y-80729523D01*
X152954819Y-80443809D02*
X151954819Y-80443809D01*
X151954819Y-80443809D02*
X152097676Y-80539047D01*
X152097676Y-80539047D02*
X152192914Y-80634285D01*
X152192914Y-80634285D02*
X152240533Y-80729523D01*
X154404819Y-106583333D02*
X155119104Y-106583333D01*
X155119104Y-106583333D02*
X155261961Y-106630952D01*
X155261961Y-106630952D02*
X155357200Y-106726190D01*
X155357200Y-106726190D02*
X155404819Y-106869047D01*
X155404819Y-106869047D02*
X155404819Y-106964285D01*
X154404819Y-105630952D02*
X154404819Y-106107142D01*
X154404819Y-106107142D02*
X154881009Y-106154761D01*
X154881009Y-106154761D02*
X154833390Y-106107142D01*
X154833390Y-106107142D02*
X154785771Y-106011904D01*
X154785771Y-106011904D02*
X154785771Y-105773809D01*
X154785771Y-105773809D02*
X154833390Y-105678571D01*
X154833390Y-105678571D02*
X154881009Y-105630952D01*
X154881009Y-105630952D02*
X154976247Y-105583333D01*
X154976247Y-105583333D02*
X155214342Y-105583333D01*
X155214342Y-105583333D02*
X155309580Y-105630952D01*
X155309580Y-105630952D02*
X155357200Y-105678571D01*
X155357200Y-105678571D02*
X155404819Y-105773809D01*
X155404819Y-105773809D02*
X155404819Y-106011904D01*
X155404819Y-106011904D02*
X155357200Y-106107142D01*
X155357200Y-106107142D02*
X155309580Y-106154761D01*
X163738095Y-76954819D02*
X163738095Y-77764342D01*
X163738095Y-77764342D02*
X163785714Y-77859580D01*
X163785714Y-77859580D02*
X163833333Y-77907200D01*
X163833333Y-77907200D02*
X163928571Y-77954819D01*
X163928571Y-77954819D02*
X164119047Y-77954819D01*
X164119047Y-77954819D02*
X164214285Y-77907200D01*
X164214285Y-77907200D02*
X164261904Y-77859580D01*
X164261904Y-77859580D02*
X164309523Y-77764342D01*
X164309523Y-77764342D02*
X164309523Y-76954819D01*
X165214285Y-77288152D02*
X165214285Y-77954819D01*
X164976190Y-76907200D02*
X164738095Y-77621485D01*
X164738095Y-77621485D02*
X165357142Y-77621485D01*
X164190476Y-63124819D02*
X164190476Y-62124819D01*
X164190476Y-62124819D02*
X164523809Y-62839104D01*
X164523809Y-62839104D02*
X164857142Y-62124819D01*
X164857142Y-62124819D02*
X164857142Y-63124819D01*
X165238095Y-62124819D02*
X165857142Y-62124819D01*
X165857142Y-62124819D02*
X165523809Y-62505771D01*
X165523809Y-62505771D02*
X165666666Y-62505771D01*
X165666666Y-62505771D02*
X165761904Y-62553390D01*
X165761904Y-62553390D02*
X165809523Y-62601009D01*
X165809523Y-62601009D02*
X165857142Y-62696247D01*
X165857142Y-62696247D02*
X165857142Y-62934342D01*
X165857142Y-62934342D02*
X165809523Y-63029580D01*
X165809523Y-63029580D02*
X165761904Y-63077200D01*
X165761904Y-63077200D02*
X165666666Y-63124819D01*
X165666666Y-63124819D02*
X165380952Y-63124819D01*
X165380952Y-63124819D02*
X165285714Y-63077200D01*
X165285714Y-63077200D02*
X165238095Y-63029580D01*
X177454819Y-86222857D02*
X176978628Y-86556190D01*
X177454819Y-86794285D02*
X176454819Y-86794285D01*
X176454819Y-86794285D02*
X176454819Y-86413333D01*
X176454819Y-86413333D02*
X176502438Y-86318095D01*
X176502438Y-86318095D02*
X176550057Y-86270476D01*
X176550057Y-86270476D02*
X176645295Y-86222857D01*
X176645295Y-86222857D02*
X176788152Y-86222857D01*
X176788152Y-86222857D02*
X176883390Y-86270476D01*
X176883390Y-86270476D02*
X176931009Y-86318095D01*
X176931009Y-86318095D02*
X176978628Y-86413333D01*
X176978628Y-86413333D02*
X176978628Y-86794285D01*
X177454819Y-85270476D02*
X177454819Y-85841904D01*
X177454819Y-85556190D02*
X176454819Y-85556190D01*
X176454819Y-85556190D02*
X176597676Y-85651428D01*
X176597676Y-85651428D02*
X176692914Y-85746666D01*
X176692914Y-85746666D02*
X176740533Y-85841904D01*
X176454819Y-84365714D02*
X176454819Y-84841904D01*
X176454819Y-84841904D02*
X176931009Y-84889523D01*
X176931009Y-84889523D02*
X176883390Y-84841904D01*
X176883390Y-84841904D02*
X176835771Y-84746666D01*
X176835771Y-84746666D02*
X176835771Y-84508571D01*
X176835771Y-84508571D02*
X176883390Y-84413333D01*
X176883390Y-84413333D02*
X176931009Y-84365714D01*
X176931009Y-84365714D02*
X177026247Y-84318095D01*
X177026247Y-84318095D02*
X177264342Y-84318095D01*
X177264342Y-84318095D02*
X177359580Y-84365714D01*
X177359580Y-84365714D02*
X177407200Y-84413333D01*
X177407200Y-84413333D02*
X177454819Y-84508571D01*
X177454819Y-84508571D02*
X177454819Y-84746666D01*
X177454819Y-84746666D02*
X177407200Y-84841904D01*
X177407200Y-84841904D02*
X177359580Y-84889523D01*
X206454819Y-113642857D02*
X205978628Y-113976190D01*
X206454819Y-114214285D02*
X205454819Y-114214285D01*
X205454819Y-114214285D02*
X205454819Y-113833333D01*
X205454819Y-113833333D02*
X205502438Y-113738095D01*
X205502438Y-113738095D02*
X205550057Y-113690476D01*
X205550057Y-113690476D02*
X205645295Y-113642857D01*
X205645295Y-113642857D02*
X205788152Y-113642857D01*
X205788152Y-113642857D02*
X205883390Y-113690476D01*
X205883390Y-113690476D02*
X205931009Y-113738095D01*
X205931009Y-113738095D02*
X205978628Y-113833333D01*
X205978628Y-113833333D02*
X205978628Y-114214285D01*
X206454819Y-112690476D02*
X206454819Y-113261904D01*
X206454819Y-112976190D02*
X205454819Y-112976190D01*
X205454819Y-112976190D02*
X205597676Y-113071428D01*
X205597676Y-113071428D02*
X205692914Y-113166666D01*
X205692914Y-113166666D02*
X205740533Y-113261904D01*
X205454819Y-112071428D02*
X205454819Y-111976190D01*
X205454819Y-111976190D02*
X205502438Y-111880952D01*
X205502438Y-111880952D02*
X205550057Y-111833333D01*
X205550057Y-111833333D02*
X205645295Y-111785714D01*
X205645295Y-111785714D02*
X205835771Y-111738095D01*
X205835771Y-111738095D02*
X206073866Y-111738095D01*
X206073866Y-111738095D02*
X206264342Y-111785714D01*
X206264342Y-111785714D02*
X206359580Y-111833333D01*
X206359580Y-111833333D02*
X206407200Y-111880952D01*
X206407200Y-111880952D02*
X206454819Y-111976190D01*
X206454819Y-111976190D02*
X206454819Y-112071428D01*
X206454819Y-112071428D02*
X206407200Y-112166666D01*
X206407200Y-112166666D02*
X206359580Y-112214285D01*
X206359580Y-112214285D02*
X206264342Y-112261904D01*
X206264342Y-112261904D02*
X206073866Y-112309523D01*
X206073866Y-112309523D02*
X205835771Y-112309523D01*
X205835771Y-112309523D02*
X205645295Y-112261904D01*
X205645295Y-112261904D02*
X205550057Y-112214285D01*
X205550057Y-112214285D02*
X205502438Y-112166666D01*
X205502438Y-112166666D02*
X205454819Y-112071428D01*
X161381486Y-54238094D02*
X160381486Y-54238094D01*
X160381486Y-54238094D02*
X160381486Y-53999999D01*
X160381486Y-53999999D02*
X160429105Y-53857142D01*
X160429105Y-53857142D02*
X160524343Y-53761904D01*
X160524343Y-53761904D02*
X160619581Y-53714285D01*
X160619581Y-53714285D02*
X160810057Y-53666666D01*
X160810057Y-53666666D02*
X160952914Y-53666666D01*
X160952914Y-53666666D02*
X161143390Y-53714285D01*
X161143390Y-53714285D02*
X161238628Y-53761904D01*
X161238628Y-53761904D02*
X161333867Y-53857142D01*
X161333867Y-53857142D02*
X161381486Y-53999999D01*
X161381486Y-53999999D02*
X161381486Y-54238094D01*
X161381486Y-52714285D02*
X161381486Y-53285713D01*
X161381486Y-52999999D02*
X160381486Y-52999999D01*
X160381486Y-52999999D02*
X160524343Y-53095237D01*
X160524343Y-53095237D02*
X160619581Y-53190475D01*
X160619581Y-53190475D02*
X160667200Y-53285713D01*
X202929205Y-47550057D02*
X202833967Y-47502438D01*
X202833967Y-47502438D02*
X202738729Y-47407200D01*
X202738729Y-47407200D02*
X202595872Y-47264342D01*
X202595872Y-47264342D02*
X202500634Y-47216723D01*
X202500634Y-47216723D02*
X202405396Y-47216723D01*
X202453015Y-47454819D02*
X202357777Y-47407200D01*
X202357777Y-47407200D02*
X202262539Y-47311961D01*
X202262539Y-47311961D02*
X202214920Y-47121485D01*
X202214920Y-47121485D02*
X202214920Y-46788152D01*
X202214920Y-46788152D02*
X202262539Y-46597676D01*
X202262539Y-46597676D02*
X202357777Y-46502438D01*
X202357777Y-46502438D02*
X202453015Y-46454819D01*
X202453015Y-46454819D02*
X202643491Y-46454819D01*
X202643491Y-46454819D02*
X202738729Y-46502438D01*
X202738729Y-46502438D02*
X202833967Y-46597676D01*
X202833967Y-46597676D02*
X202881586Y-46788152D01*
X202881586Y-46788152D02*
X202881586Y-47121485D01*
X202881586Y-47121485D02*
X202833967Y-47311961D01*
X202833967Y-47311961D02*
X202738729Y-47407200D01*
X202738729Y-47407200D02*
X202643491Y-47454819D01*
X202643491Y-47454819D02*
X202453015Y-47454819D01*
X203786348Y-46454819D02*
X203310158Y-46454819D01*
X203310158Y-46454819D02*
X203262539Y-46931009D01*
X203262539Y-46931009D02*
X203310158Y-46883390D01*
X203310158Y-46883390D02*
X203405396Y-46835771D01*
X203405396Y-46835771D02*
X203643491Y-46835771D01*
X203643491Y-46835771D02*
X203738729Y-46883390D01*
X203738729Y-46883390D02*
X203786348Y-46931009D01*
X203786348Y-46931009D02*
X203833967Y-47026247D01*
X203833967Y-47026247D02*
X203833967Y-47264342D01*
X203833967Y-47264342D02*
X203786348Y-47359580D01*
X203786348Y-47359580D02*
X203738729Y-47407200D01*
X203738729Y-47407200D02*
X203643491Y-47454819D01*
X203643491Y-47454819D02*
X203405396Y-47454819D01*
X203405396Y-47454819D02*
X203310158Y-47407200D01*
X203310158Y-47407200D02*
X203262539Y-47359580D01*
X210954819Y-68246666D02*
X210478628Y-68579999D01*
X210954819Y-68818094D02*
X209954819Y-68818094D01*
X209954819Y-68818094D02*
X209954819Y-68437142D01*
X209954819Y-68437142D02*
X210002438Y-68341904D01*
X210002438Y-68341904D02*
X210050057Y-68294285D01*
X210050057Y-68294285D02*
X210145295Y-68246666D01*
X210145295Y-68246666D02*
X210288152Y-68246666D01*
X210288152Y-68246666D02*
X210383390Y-68294285D01*
X210383390Y-68294285D02*
X210431009Y-68341904D01*
X210431009Y-68341904D02*
X210478628Y-68437142D01*
X210478628Y-68437142D02*
X210478628Y-68818094D01*
X209954819Y-67913332D02*
X209954819Y-67246666D01*
X209954819Y-67246666D02*
X210954819Y-67675237D01*
X180847319Y-99232857D02*
X180371128Y-99566190D01*
X180847319Y-99804285D02*
X179847319Y-99804285D01*
X179847319Y-99804285D02*
X179847319Y-99423333D01*
X179847319Y-99423333D02*
X179894938Y-99328095D01*
X179894938Y-99328095D02*
X179942557Y-99280476D01*
X179942557Y-99280476D02*
X180037795Y-99232857D01*
X180037795Y-99232857D02*
X180180652Y-99232857D01*
X180180652Y-99232857D02*
X180275890Y-99280476D01*
X180275890Y-99280476D02*
X180323509Y-99328095D01*
X180323509Y-99328095D02*
X180371128Y-99423333D01*
X180371128Y-99423333D02*
X180371128Y-99804285D01*
X180847319Y-98280476D02*
X180847319Y-98851904D01*
X180847319Y-98566190D02*
X179847319Y-98566190D01*
X179847319Y-98566190D02*
X179990176Y-98661428D01*
X179990176Y-98661428D02*
X180085414Y-98756666D01*
X180085414Y-98756666D02*
X180133033Y-98851904D01*
X179847319Y-97947142D02*
X179847319Y-97280476D01*
X179847319Y-97280476D02*
X180847319Y-97709047D01*
X181015476Y-104454819D02*
X181015476Y-105169104D01*
X181015476Y-105169104D02*
X180967857Y-105311961D01*
X180967857Y-105311961D02*
X180872619Y-105407200D01*
X180872619Y-105407200D02*
X180729762Y-105454819D01*
X180729762Y-105454819D02*
X180634524Y-105454819D01*
X182015476Y-105454819D02*
X181444048Y-105454819D01*
X181729762Y-105454819D02*
X181729762Y-104454819D01*
X181729762Y-104454819D02*
X181634524Y-104597676D01*
X181634524Y-104597676D02*
X181539286Y-104692914D01*
X181539286Y-104692914D02*
X181444048Y-104740533D01*
X182634524Y-104454819D02*
X182729762Y-104454819D01*
X182729762Y-104454819D02*
X182825000Y-104502438D01*
X182825000Y-104502438D02*
X182872619Y-104550057D01*
X182872619Y-104550057D02*
X182920238Y-104645295D01*
X182920238Y-104645295D02*
X182967857Y-104835771D01*
X182967857Y-104835771D02*
X182967857Y-105073866D01*
X182967857Y-105073866D02*
X182920238Y-105264342D01*
X182920238Y-105264342D02*
X182872619Y-105359580D01*
X182872619Y-105359580D02*
X182825000Y-105407200D01*
X182825000Y-105407200D02*
X182729762Y-105454819D01*
X182729762Y-105454819D02*
X182634524Y-105454819D01*
X182634524Y-105454819D02*
X182539286Y-105407200D01*
X182539286Y-105407200D02*
X182491667Y-105359580D01*
X182491667Y-105359580D02*
X182444048Y-105264342D01*
X182444048Y-105264342D02*
X182396429Y-105073866D01*
X182396429Y-105073866D02*
X182396429Y-104835771D01*
X182396429Y-104835771D02*
X182444048Y-104645295D01*
X182444048Y-104645295D02*
X182491667Y-104550057D01*
X182491667Y-104550057D02*
X182539286Y-104502438D01*
X182539286Y-104502438D02*
X182634524Y-104454819D01*
X181833333Y-77609580D02*
X181785714Y-77657200D01*
X181785714Y-77657200D02*
X181642857Y-77704819D01*
X181642857Y-77704819D02*
X181547619Y-77704819D01*
X181547619Y-77704819D02*
X181404762Y-77657200D01*
X181404762Y-77657200D02*
X181309524Y-77561961D01*
X181309524Y-77561961D02*
X181261905Y-77466723D01*
X181261905Y-77466723D02*
X181214286Y-77276247D01*
X181214286Y-77276247D02*
X181214286Y-77133390D01*
X181214286Y-77133390D02*
X181261905Y-76942914D01*
X181261905Y-76942914D02*
X181309524Y-76847676D01*
X181309524Y-76847676D02*
X181404762Y-76752438D01*
X181404762Y-76752438D02*
X181547619Y-76704819D01*
X181547619Y-76704819D02*
X181642857Y-76704819D01*
X181642857Y-76704819D02*
X181785714Y-76752438D01*
X181785714Y-76752438D02*
X181833333Y-76800057D01*
X182214286Y-76800057D02*
X182261905Y-76752438D01*
X182261905Y-76752438D02*
X182357143Y-76704819D01*
X182357143Y-76704819D02*
X182595238Y-76704819D01*
X182595238Y-76704819D02*
X182690476Y-76752438D01*
X182690476Y-76752438D02*
X182738095Y-76800057D01*
X182738095Y-76800057D02*
X182785714Y-76895295D01*
X182785714Y-76895295D02*
X182785714Y-76990533D01*
X182785714Y-76990533D02*
X182738095Y-77133390D01*
X182738095Y-77133390D02*
X182166667Y-77704819D01*
X182166667Y-77704819D02*
X182785714Y-77704819D01*
X160454819Y-111666666D02*
X159978628Y-111999999D01*
X160454819Y-112238094D02*
X159454819Y-112238094D01*
X159454819Y-112238094D02*
X159454819Y-111857142D01*
X159454819Y-111857142D02*
X159502438Y-111761904D01*
X159502438Y-111761904D02*
X159550057Y-111714285D01*
X159550057Y-111714285D02*
X159645295Y-111666666D01*
X159645295Y-111666666D02*
X159788152Y-111666666D01*
X159788152Y-111666666D02*
X159883390Y-111714285D01*
X159883390Y-111714285D02*
X159931009Y-111761904D01*
X159931009Y-111761904D02*
X159978628Y-111857142D01*
X159978628Y-111857142D02*
X159978628Y-112238094D01*
X159788152Y-110809523D02*
X160454819Y-110809523D01*
X159407200Y-111047618D02*
X160121485Y-111285713D01*
X160121485Y-111285713D02*
X160121485Y-110666666D01*
X215454819Y-95642857D02*
X214978628Y-95976190D01*
X215454819Y-96214285D02*
X214454819Y-96214285D01*
X214454819Y-96214285D02*
X214454819Y-95833333D01*
X214454819Y-95833333D02*
X214502438Y-95738095D01*
X214502438Y-95738095D02*
X214550057Y-95690476D01*
X214550057Y-95690476D02*
X214645295Y-95642857D01*
X214645295Y-95642857D02*
X214788152Y-95642857D01*
X214788152Y-95642857D02*
X214883390Y-95690476D01*
X214883390Y-95690476D02*
X214931009Y-95738095D01*
X214931009Y-95738095D02*
X214978628Y-95833333D01*
X214978628Y-95833333D02*
X214978628Y-96214285D01*
X214550057Y-95261904D02*
X214502438Y-95214285D01*
X214502438Y-95214285D02*
X214454819Y-95119047D01*
X214454819Y-95119047D02*
X214454819Y-94880952D01*
X214454819Y-94880952D02*
X214502438Y-94785714D01*
X214502438Y-94785714D02*
X214550057Y-94738095D01*
X214550057Y-94738095D02*
X214645295Y-94690476D01*
X214645295Y-94690476D02*
X214740533Y-94690476D01*
X214740533Y-94690476D02*
X214883390Y-94738095D01*
X214883390Y-94738095D02*
X215454819Y-95309523D01*
X215454819Y-95309523D02*
X215454819Y-94690476D01*
X214454819Y-93785714D02*
X214454819Y-94261904D01*
X214454819Y-94261904D02*
X214931009Y-94309523D01*
X214931009Y-94309523D02*
X214883390Y-94261904D01*
X214883390Y-94261904D02*
X214835771Y-94166666D01*
X214835771Y-94166666D02*
X214835771Y-93928571D01*
X214835771Y-93928571D02*
X214883390Y-93833333D01*
X214883390Y-93833333D02*
X214931009Y-93785714D01*
X214931009Y-93785714D02*
X215026247Y-93738095D01*
X215026247Y-93738095D02*
X215264342Y-93738095D01*
X215264342Y-93738095D02*
X215359580Y-93785714D01*
X215359580Y-93785714D02*
X215407200Y-93833333D01*
X215407200Y-93833333D02*
X215454819Y-93928571D01*
X215454819Y-93928571D02*
X215454819Y-94166666D01*
X215454819Y-94166666D02*
X215407200Y-94261904D01*
X215407200Y-94261904D02*
X215359580Y-94309523D01*
X184992319Y-86249404D02*
X185801842Y-86249404D01*
X185801842Y-86249404D02*
X185897080Y-86201785D01*
X185897080Y-86201785D02*
X185944700Y-86154166D01*
X185944700Y-86154166D02*
X185992319Y-86058928D01*
X185992319Y-86058928D02*
X185992319Y-85868452D01*
X185992319Y-85868452D02*
X185944700Y-85773214D01*
X185944700Y-85773214D02*
X185897080Y-85725595D01*
X185897080Y-85725595D02*
X185801842Y-85677976D01*
X185801842Y-85677976D02*
X184992319Y-85677976D01*
X185992319Y-84677976D02*
X185992319Y-85249404D01*
X185992319Y-84963690D02*
X184992319Y-84963690D01*
X184992319Y-84963690D02*
X185135176Y-85058928D01*
X185135176Y-85058928D02*
X185230414Y-85154166D01*
X185230414Y-85154166D02*
X185278033Y-85249404D01*
X177672319Y-99232857D02*
X177196128Y-99566190D01*
X177672319Y-99804285D02*
X176672319Y-99804285D01*
X176672319Y-99804285D02*
X176672319Y-99423333D01*
X176672319Y-99423333D02*
X176719938Y-99328095D01*
X176719938Y-99328095D02*
X176767557Y-99280476D01*
X176767557Y-99280476D02*
X176862795Y-99232857D01*
X176862795Y-99232857D02*
X177005652Y-99232857D01*
X177005652Y-99232857D02*
X177100890Y-99280476D01*
X177100890Y-99280476D02*
X177148509Y-99328095D01*
X177148509Y-99328095D02*
X177196128Y-99423333D01*
X177196128Y-99423333D02*
X177196128Y-99804285D01*
X177672319Y-98280476D02*
X177672319Y-98851904D01*
X177672319Y-98566190D02*
X176672319Y-98566190D01*
X176672319Y-98566190D02*
X176815176Y-98661428D01*
X176815176Y-98661428D02*
X176910414Y-98756666D01*
X176910414Y-98756666D02*
X176958033Y-98851904D01*
X177100890Y-97709047D02*
X177053271Y-97804285D01*
X177053271Y-97804285D02*
X177005652Y-97851904D01*
X177005652Y-97851904D02*
X176910414Y-97899523D01*
X176910414Y-97899523D02*
X176862795Y-97899523D01*
X176862795Y-97899523D02*
X176767557Y-97851904D01*
X176767557Y-97851904D02*
X176719938Y-97804285D01*
X176719938Y-97804285D02*
X176672319Y-97709047D01*
X176672319Y-97709047D02*
X176672319Y-97518571D01*
X176672319Y-97518571D02*
X176719938Y-97423333D01*
X176719938Y-97423333D02*
X176767557Y-97375714D01*
X176767557Y-97375714D02*
X176862795Y-97328095D01*
X176862795Y-97328095D02*
X176910414Y-97328095D01*
X176910414Y-97328095D02*
X177005652Y-97375714D01*
X177005652Y-97375714D02*
X177053271Y-97423333D01*
X177053271Y-97423333D02*
X177100890Y-97518571D01*
X177100890Y-97518571D02*
X177100890Y-97709047D01*
X177100890Y-97709047D02*
X177148509Y-97804285D01*
X177148509Y-97804285D02*
X177196128Y-97851904D01*
X177196128Y-97851904D02*
X177291366Y-97899523D01*
X177291366Y-97899523D02*
X177481842Y-97899523D01*
X177481842Y-97899523D02*
X177577080Y-97851904D01*
X177577080Y-97851904D02*
X177624700Y-97804285D01*
X177624700Y-97804285D02*
X177672319Y-97709047D01*
X177672319Y-97709047D02*
X177672319Y-97518571D01*
X177672319Y-97518571D02*
X177624700Y-97423333D01*
X177624700Y-97423333D02*
X177577080Y-97375714D01*
X177577080Y-97375714D02*
X177481842Y-97328095D01*
X177481842Y-97328095D02*
X177291366Y-97328095D01*
X177291366Y-97328095D02*
X177196128Y-97375714D01*
X177196128Y-97375714D02*
X177148509Y-97423333D01*
X177148509Y-97423333D02*
X177100890Y-97518571D01*
X185190476Y-63124819D02*
X185190476Y-62124819D01*
X185190476Y-62124819D02*
X185523809Y-62839104D01*
X185523809Y-62839104D02*
X185857142Y-62124819D01*
X185857142Y-62124819D02*
X185857142Y-63124819D01*
X186761904Y-62124819D02*
X186571428Y-62124819D01*
X186571428Y-62124819D02*
X186476190Y-62172438D01*
X186476190Y-62172438D02*
X186428571Y-62220057D01*
X186428571Y-62220057D02*
X186333333Y-62362914D01*
X186333333Y-62362914D02*
X186285714Y-62553390D01*
X186285714Y-62553390D02*
X186285714Y-62934342D01*
X186285714Y-62934342D02*
X186333333Y-63029580D01*
X186333333Y-63029580D02*
X186380952Y-63077200D01*
X186380952Y-63077200D02*
X186476190Y-63124819D01*
X186476190Y-63124819D02*
X186666666Y-63124819D01*
X186666666Y-63124819D02*
X186761904Y-63077200D01*
X186761904Y-63077200D02*
X186809523Y-63029580D01*
X186809523Y-63029580D02*
X186857142Y-62934342D01*
X186857142Y-62934342D02*
X186857142Y-62696247D01*
X186857142Y-62696247D02*
X186809523Y-62601009D01*
X186809523Y-62601009D02*
X186761904Y-62553390D01*
X186761904Y-62553390D02*
X186666666Y-62505771D01*
X186666666Y-62505771D02*
X186476190Y-62505771D01*
X186476190Y-62505771D02*
X186380952Y-62553390D01*
X186380952Y-62553390D02*
X186333333Y-62601009D01*
X186333333Y-62601009D02*
X186285714Y-62696247D01*
X212238095Y-118204819D02*
X212238095Y-117204819D01*
X212238095Y-117681009D02*
X212809523Y-117681009D01*
X212809523Y-118204819D02*
X212809523Y-117204819D01*
X213238095Y-117300057D02*
X213285714Y-117252438D01*
X213285714Y-117252438D02*
X213380952Y-117204819D01*
X213380952Y-117204819D02*
X213619047Y-117204819D01*
X213619047Y-117204819D02*
X213714285Y-117252438D01*
X213714285Y-117252438D02*
X213761904Y-117300057D01*
X213761904Y-117300057D02*
X213809523Y-117395295D01*
X213809523Y-117395295D02*
X213809523Y-117490533D01*
X213809523Y-117490533D02*
X213761904Y-117633390D01*
X213761904Y-117633390D02*
X213190476Y-118204819D01*
X213190476Y-118204819D02*
X213809523Y-118204819D01*
X199190476Y-63124819D02*
X199190476Y-62124819D01*
X199190476Y-62124819D02*
X199523809Y-62839104D01*
X199523809Y-62839104D02*
X199857142Y-62124819D01*
X199857142Y-62124819D02*
X199857142Y-63124819D01*
X200476190Y-62553390D02*
X200380952Y-62505771D01*
X200380952Y-62505771D02*
X200333333Y-62458152D01*
X200333333Y-62458152D02*
X200285714Y-62362914D01*
X200285714Y-62362914D02*
X200285714Y-62315295D01*
X200285714Y-62315295D02*
X200333333Y-62220057D01*
X200333333Y-62220057D02*
X200380952Y-62172438D01*
X200380952Y-62172438D02*
X200476190Y-62124819D01*
X200476190Y-62124819D02*
X200666666Y-62124819D01*
X200666666Y-62124819D02*
X200761904Y-62172438D01*
X200761904Y-62172438D02*
X200809523Y-62220057D01*
X200809523Y-62220057D02*
X200857142Y-62315295D01*
X200857142Y-62315295D02*
X200857142Y-62362914D01*
X200857142Y-62362914D02*
X200809523Y-62458152D01*
X200809523Y-62458152D02*
X200761904Y-62505771D01*
X200761904Y-62505771D02*
X200666666Y-62553390D01*
X200666666Y-62553390D02*
X200476190Y-62553390D01*
X200476190Y-62553390D02*
X200380952Y-62601009D01*
X200380952Y-62601009D02*
X200333333Y-62648628D01*
X200333333Y-62648628D02*
X200285714Y-62743866D01*
X200285714Y-62743866D02*
X200285714Y-62934342D01*
X200285714Y-62934342D02*
X200333333Y-63029580D01*
X200333333Y-63029580D02*
X200380952Y-63077200D01*
X200380952Y-63077200D02*
X200476190Y-63124819D01*
X200476190Y-63124819D02*
X200666666Y-63124819D01*
X200666666Y-63124819D02*
X200761904Y-63077200D01*
X200761904Y-63077200D02*
X200809523Y-63029580D01*
X200809523Y-63029580D02*
X200857142Y-62934342D01*
X200857142Y-62934342D02*
X200857142Y-62743866D01*
X200857142Y-62743866D02*
X200809523Y-62648628D01*
X200809523Y-62648628D02*
X200761904Y-62601009D01*
X200761904Y-62601009D02*
X200666666Y-62553390D01*
X149848938Y-82062857D02*
X149372747Y-82396190D01*
X149848938Y-82634285D02*
X148848938Y-82634285D01*
X148848938Y-82634285D02*
X148848938Y-82253333D01*
X148848938Y-82253333D02*
X148896557Y-82158095D01*
X148896557Y-82158095D02*
X148944176Y-82110476D01*
X148944176Y-82110476D02*
X149039414Y-82062857D01*
X149039414Y-82062857D02*
X149182271Y-82062857D01*
X149182271Y-82062857D02*
X149277509Y-82110476D01*
X149277509Y-82110476D02*
X149325128Y-82158095D01*
X149325128Y-82158095D02*
X149372747Y-82253333D01*
X149372747Y-82253333D02*
X149372747Y-82634285D01*
X148944176Y-81681904D02*
X148896557Y-81634285D01*
X148896557Y-81634285D02*
X148848938Y-81539047D01*
X148848938Y-81539047D02*
X148848938Y-81300952D01*
X148848938Y-81300952D02*
X148896557Y-81205714D01*
X148896557Y-81205714D02*
X148944176Y-81158095D01*
X148944176Y-81158095D02*
X149039414Y-81110476D01*
X149039414Y-81110476D02*
X149134652Y-81110476D01*
X149134652Y-81110476D02*
X149277509Y-81158095D01*
X149277509Y-81158095D02*
X149848938Y-81729523D01*
X149848938Y-81729523D02*
X149848938Y-81110476D01*
X148848938Y-80491428D02*
X148848938Y-80396190D01*
X148848938Y-80396190D02*
X148896557Y-80300952D01*
X148896557Y-80300952D02*
X148944176Y-80253333D01*
X148944176Y-80253333D02*
X149039414Y-80205714D01*
X149039414Y-80205714D02*
X149229890Y-80158095D01*
X149229890Y-80158095D02*
X149467985Y-80158095D01*
X149467985Y-80158095D02*
X149658461Y-80205714D01*
X149658461Y-80205714D02*
X149753699Y-80253333D01*
X149753699Y-80253333D02*
X149801319Y-80300952D01*
X149801319Y-80300952D02*
X149848938Y-80396190D01*
X149848938Y-80396190D02*
X149848938Y-80491428D01*
X149848938Y-80491428D02*
X149801319Y-80586666D01*
X149801319Y-80586666D02*
X149753699Y-80634285D01*
X149753699Y-80634285D02*
X149658461Y-80681904D01*
X149658461Y-80681904D02*
X149467985Y-80729523D01*
X149467985Y-80729523D02*
X149229890Y-80729523D01*
X149229890Y-80729523D02*
X149039414Y-80681904D01*
X149039414Y-80681904D02*
X148944176Y-80634285D01*
X148944176Y-80634285D02*
X148896557Y-80586666D01*
X148896557Y-80586666D02*
X148848938Y-80491428D01*
X156954819Y-87142857D02*
X156478628Y-87476190D01*
X156954819Y-87714285D02*
X155954819Y-87714285D01*
X155954819Y-87714285D02*
X155954819Y-87333333D01*
X155954819Y-87333333D02*
X156002438Y-87238095D01*
X156002438Y-87238095D02*
X156050057Y-87190476D01*
X156050057Y-87190476D02*
X156145295Y-87142857D01*
X156145295Y-87142857D02*
X156288152Y-87142857D01*
X156288152Y-87142857D02*
X156383390Y-87190476D01*
X156383390Y-87190476D02*
X156431009Y-87238095D01*
X156431009Y-87238095D02*
X156478628Y-87333333D01*
X156478628Y-87333333D02*
X156478628Y-87714285D01*
X156050057Y-86761904D02*
X156002438Y-86714285D01*
X156002438Y-86714285D02*
X155954819Y-86619047D01*
X155954819Y-86619047D02*
X155954819Y-86380952D01*
X155954819Y-86380952D02*
X156002438Y-86285714D01*
X156002438Y-86285714D02*
X156050057Y-86238095D01*
X156050057Y-86238095D02*
X156145295Y-86190476D01*
X156145295Y-86190476D02*
X156240533Y-86190476D01*
X156240533Y-86190476D02*
X156383390Y-86238095D01*
X156383390Y-86238095D02*
X156954819Y-86809523D01*
X156954819Y-86809523D02*
X156954819Y-86190476D01*
X156050057Y-85809523D02*
X156002438Y-85761904D01*
X156002438Y-85761904D02*
X155954819Y-85666666D01*
X155954819Y-85666666D02*
X155954819Y-85428571D01*
X155954819Y-85428571D02*
X156002438Y-85333333D01*
X156002438Y-85333333D02*
X156050057Y-85285714D01*
X156050057Y-85285714D02*
X156145295Y-85238095D01*
X156145295Y-85238095D02*
X156240533Y-85238095D01*
X156240533Y-85238095D02*
X156383390Y-85285714D01*
X156383390Y-85285714D02*
X156954819Y-85857142D01*
X156954819Y-85857142D02*
X156954819Y-85238095D01*
X154954819Y-67666666D02*
X154478628Y-67999999D01*
X154954819Y-68238094D02*
X153954819Y-68238094D01*
X153954819Y-68238094D02*
X153954819Y-67857142D01*
X153954819Y-67857142D02*
X154002438Y-67761904D01*
X154002438Y-67761904D02*
X154050057Y-67714285D01*
X154050057Y-67714285D02*
X154145295Y-67666666D01*
X154145295Y-67666666D02*
X154288152Y-67666666D01*
X154288152Y-67666666D02*
X154383390Y-67714285D01*
X154383390Y-67714285D02*
X154431009Y-67761904D01*
X154431009Y-67761904D02*
X154478628Y-67857142D01*
X154478628Y-67857142D02*
X154478628Y-68238094D01*
X154954819Y-66714285D02*
X154954819Y-67285713D01*
X154954819Y-66999999D02*
X153954819Y-66999999D01*
X153954819Y-66999999D02*
X154097676Y-67095237D01*
X154097676Y-67095237D02*
X154192914Y-67190475D01*
X154192914Y-67190475D02*
X154240533Y-67285713D01*
X215454819Y-82642857D02*
X214978628Y-82976190D01*
X215454819Y-83214285D02*
X214454819Y-83214285D01*
X214454819Y-83214285D02*
X214454819Y-82833333D01*
X214454819Y-82833333D02*
X214502438Y-82738095D01*
X214502438Y-82738095D02*
X214550057Y-82690476D01*
X214550057Y-82690476D02*
X214645295Y-82642857D01*
X214645295Y-82642857D02*
X214788152Y-82642857D01*
X214788152Y-82642857D02*
X214883390Y-82690476D01*
X214883390Y-82690476D02*
X214931009Y-82738095D01*
X214931009Y-82738095D02*
X214978628Y-82833333D01*
X214978628Y-82833333D02*
X214978628Y-83214285D01*
X214550057Y-82261904D02*
X214502438Y-82214285D01*
X214502438Y-82214285D02*
X214454819Y-82119047D01*
X214454819Y-82119047D02*
X214454819Y-81880952D01*
X214454819Y-81880952D02*
X214502438Y-81785714D01*
X214502438Y-81785714D02*
X214550057Y-81738095D01*
X214550057Y-81738095D02*
X214645295Y-81690476D01*
X214645295Y-81690476D02*
X214740533Y-81690476D01*
X214740533Y-81690476D02*
X214883390Y-81738095D01*
X214883390Y-81738095D02*
X215454819Y-82309523D01*
X215454819Y-82309523D02*
X215454819Y-81690476D01*
X214788152Y-80833333D02*
X215454819Y-80833333D01*
X214407200Y-81071428D02*
X215121485Y-81309523D01*
X215121485Y-81309523D02*
X215121485Y-80690476D01*
X196954819Y-68246666D02*
X196478628Y-68579999D01*
X196954819Y-68818094D02*
X195954819Y-68818094D01*
X195954819Y-68818094D02*
X195954819Y-68437142D01*
X195954819Y-68437142D02*
X196002438Y-68341904D01*
X196002438Y-68341904D02*
X196050057Y-68294285D01*
X196050057Y-68294285D02*
X196145295Y-68246666D01*
X196145295Y-68246666D02*
X196288152Y-68246666D01*
X196288152Y-68246666D02*
X196383390Y-68294285D01*
X196383390Y-68294285D02*
X196431009Y-68341904D01*
X196431009Y-68341904D02*
X196478628Y-68437142D01*
X196478628Y-68437142D02*
X196478628Y-68818094D01*
X195954819Y-67389523D02*
X195954819Y-67579999D01*
X195954819Y-67579999D02*
X196002438Y-67675237D01*
X196002438Y-67675237D02*
X196050057Y-67722856D01*
X196050057Y-67722856D02*
X196192914Y-67818094D01*
X196192914Y-67818094D02*
X196383390Y-67865713D01*
X196383390Y-67865713D02*
X196764342Y-67865713D01*
X196764342Y-67865713D02*
X196859580Y-67818094D01*
X196859580Y-67818094D02*
X196907200Y-67770475D01*
X196907200Y-67770475D02*
X196954819Y-67675237D01*
X196954819Y-67675237D02*
X196954819Y-67484761D01*
X196954819Y-67484761D02*
X196907200Y-67389523D01*
X196907200Y-67389523D02*
X196859580Y-67341904D01*
X196859580Y-67341904D02*
X196764342Y-67294285D01*
X196764342Y-67294285D02*
X196526247Y-67294285D01*
X196526247Y-67294285D02*
X196431009Y-67341904D01*
X196431009Y-67341904D02*
X196383390Y-67389523D01*
X196383390Y-67389523D02*
X196335771Y-67484761D01*
X196335771Y-67484761D02*
X196335771Y-67675237D01*
X196335771Y-67675237D02*
X196383390Y-67770475D01*
X196383390Y-67770475D02*
X196431009Y-67818094D01*
X196431009Y-67818094D02*
X196526247Y-67865713D01*
X157190476Y-63124819D02*
X157190476Y-62124819D01*
X157190476Y-62124819D02*
X157523809Y-62839104D01*
X157523809Y-62839104D02*
X157857142Y-62124819D01*
X157857142Y-62124819D02*
X157857142Y-63124819D01*
X158285714Y-62220057D02*
X158333333Y-62172438D01*
X158333333Y-62172438D02*
X158428571Y-62124819D01*
X158428571Y-62124819D02*
X158666666Y-62124819D01*
X158666666Y-62124819D02*
X158761904Y-62172438D01*
X158761904Y-62172438D02*
X158809523Y-62220057D01*
X158809523Y-62220057D02*
X158857142Y-62315295D01*
X158857142Y-62315295D02*
X158857142Y-62410533D01*
X158857142Y-62410533D02*
X158809523Y-62553390D01*
X158809523Y-62553390D02*
X158238095Y-63124819D01*
X158238095Y-63124819D02*
X158857142Y-63124819D01*
X198666666Y-77124819D02*
X198666666Y-77839104D01*
X198666666Y-77839104D02*
X198619047Y-77981961D01*
X198619047Y-77981961D02*
X198523809Y-78077200D01*
X198523809Y-78077200D02*
X198380952Y-78124819D01*
X198380952Y-78124819D02*
X198285714Y-78124819D01*
X199047619Y-77124819D02*
X199714285Y-77124819D01*
X199714285Y-77124819D02*
X199285714Y-78124819D01*
X168954819Y-67746666D02*
X168478628Y-68079999D01*
X168954819Y-68318094D02*
X167954819Y-68318094D01*
X167954819Y-68318094D02*
X167954819Y-67937142D01*
X167954819Y-67937142D02*
X168002438Y-67841904D01*
X168002438Y-67841904D02*
X168050057Y-67794285D01*
X168050057Y-67794285D02*
X168145295Y-67746666D01*
X168145295Y-67746666D02*
X168288152Y-67746666D01*
X168288152Y-67746666D02*
X168383390Y-67794285D01*
X168383390Y-67794285D02*
X168431009Y-67841904D01*
X168431009Y-67841904D02*
X168478628Y-67937142D01*
X168478628Y-67937142D02*
X168478628Y-68318094D01*
X168050057Y-67365713D02*
X168002438Y-67318094D01*
X168002438Y-67318094D02*
X167954819Y-67222856D01*
X167954819Y-67222856D02*
X167954819Y-66984761D01*
X167954819Y-66984761D02*
X168002438Y-66889523D01*
X168002438Y-66889523D02*
X168050057Y-66841904D01*
X168050057Y-66841904D02*
X168145295Y-66794285D01*
X168145295Y-66794285D02*
X168240533Y-66794285D01*
X168240533Y-66794285D02*
X168383390Y-66841904D01*
X168383390Y-66841904D02*
X168954819Y-67413332D01*
X168954819Y-67413332D02*
X168954819Y-66794285D01*
D13*
%TO.C,R11*%
X155130000Y-95730000D02*
X155130000Y-102270000D01*
X155130000Y-102270000D02*
X157870000Y-102270000D01*
X156500000Y-94960000D02*
X156500000Y-95730000D01*
X156500000Y-103040000D02*
X156500000Y-102270000D01*
X157870000Y-95730000D02*
X155130000Y-95730000D01*
X157870000Y-102270000D02*
X157870000Y-95730000D01*
%TO.C,J9*%
X191992500Y-111190000D02*
X191992500Y-124210000D01*
X191992500Y-124210000D02*
X196902500Y-124210000D01*
X192802500Y-111190000D02*
X191992500Y-111190000D01*
X194502500Y-108090000D02*
X194502500Y-106810000D01*
X195102500Y-108090000D02*
X195102500Y-106810000D01*
X197392500Y-111200000D02*
X196412500Y-111200000D01*
X198702500Y-108090000D02*
X198702500Y-106810000D01*
X199302500Y-108090000D02*
X199302500Y-106810000D01*
X201002500Y-110200000D02*
X201602500Y-109900000D01*
X201002500Y-111190000D02*
X201812500Y-111190000D01*
X201602500Y-109900000D02*
X201602500Y-110500000D01*
X201602500Y-110500000D02*
X201002500Y-110200000D01*
X201812500Y-111190000D02*
X201812500Y-124210000D01*
X201812500Y-124210000D02*
X196902500Y-124210000D01*
D12*
%TO.C,U3*%
X180324695Y-85875000D02*
X180324695Y-89125000D01*
X180324695Y-85875000D02*
X180549695Y-85875000D01*
X180324695Y-89125000D02*
X180549695Y-89125000D01*
X183574695Y-85875000D02*
X183349695Y-85875000D01*
X183574695Y-85875000D02*
X183574695Y-89125000D01*
X183574695Y-89125000D02*
X183349695Y-89125000D01*
D13*
X183679695Y-85640000D02*
X183349695Y-85400000D01*
X183679695Y-85160000D01*
X183679695Y-85640000D01*
G36*
X183679695Y-85640000D02*
G01*
X183349695Y-85400000D01*
X183679695Y-85160000D01*
X183679695Y-85640000D01*
G37*
%TO.C,R19*%
X172672500Y-95320000D02*
X172672500Y-101860000D01*
X172672500Y-101860000D02*
X175412500Y-101860000D01*
X174042500Y-94550000D02*
X174042500Y-95320000D01*
X174042500Y-102630000D02*
X174042500Y-101860000D01*
X175412500Y-95320000D02*
X172672500Y-95320000D01*
X175412500Y-101860000D02*
X175412500Y-95320000D01*
%TO.C,J1*%
X157440000Y-44060000D02*
X157440000Y-34940000D01*
X158346000Y-41388000D02*
X158741000Y-40992000D01*
X158612000Y-41654000D02*
X158992000Y-41274000D01*
X161007000Y-38726000D02*
X161387000Y-38346000D01*
X161258000Y-39008000D02*
X161653000Y-38612000D01*
X163346000Y-41388000D02*
X163741000Y-40992000D01*
X163612000Y-41654000D02*
X163992000Y-41274000D01*
X166007000Y-38726000D02*
X166387000Y-38346000D01*
X166258000Y-39008000D02*
X166653000Y-38612000D01*
X168346000Y-41388000D02*
X168741000Y-40992000D01*
X168612000Y-41654000D02*
X168992000Y-41274000D01*
X171007000Y-38726000D02*
X171387000Y-38346000D01*
X171258000Y-39008000D02*
X171653000Y-38612000D01*
X173346000Y-41388000D02*
X173741000Y-40992000D01*
X173612000Y-41654000D02*
X173992000Y-41274000D01*
X176007000Y-38726000D02*
X176387000Y-38346000D01*
X176258000Y-39008000D02*
X176653000Y-38612000D01*
X178346000Y-41388000D02*
X178741000Y-40992000D01*
X178612000Y-41654000D02*
X178992000Y-41274000D01*
X181007000Y-38726000D02*
X181387000Y-38346000D01*
X181258000Y-39008000D02*
X181653000Y-38612000D01*
X183346000Y-41388000D02*
X183741000Y-40992000D01*
X183612000Y-41654000D02*
X183992000Y-41274000D01*
X186007000Y-38726000D02*
X186387000Y-38346000D01*
X186258000Y-39008000D02*
X186653000Y-38612000D01*
X188346000Y-41388000D02*
X188741000Y-40992000D01*
X188612000Y-41654000D02*
X188992000Y-41274000D01*
X191007000Y-38726000D02*
X191387000Y-38346000D01*
X191258000Y-39008000D02*
X191653000Y-38612000D01*
X193346000Y-41388000D02*
X193741000Y-40992000D01*
X193612000Y-41654000D02*
X193992000Y-41274000D01*
X196007000Y-38726000D02*
X196387000Y-38346000D01*
X196258000Y-39008000D02*
X196653000Y-38612000D01*
X198346000Y-41388000D02*
X198741000Y-40992000D01*
X198612000Y-41654000D02*
X198992000Y-41274000D01*
X201007000Y-38726000D02*
X201387000Y-38346000D01*
X201258000Y-39008000D02*
X201653000Y-38612000D01*
X203346000Y-41388000D02*
X203453000Y-41281000D01*
X203612000Y-41654000D02*
X203719000Y-41547000D01*
X206282000Y-38453000D02*
X206388000Y-38346000D01*
X206548000Y-38719000D02*
X206654000Y-38612000D01*
X207560000Y-34940000D02*
X157440000Y-34940000D01*
X207560000Y-35400000D02*
X157440000Y-35400000D01*
X207560000Y-36500000D02*
X157440000Y-36500000D01*
X207560000Y-44060000D02*
X157440000Y-44060000D01*
X207560000Y-44060000D02*
X207560000Y-34940000D01*
X207800000Y-34700000D02*
X207400000Y-34700000D01*
X207800000Y-35340000D02*
X207800000Y-34700000D01*
X162180000Y-40000000D02*
G75*
G02*
X157820000Y-40000000I-2180000J0D01*
G01*
X157820000Y-40000000D02*
G75*
G02*
X162180000Y-40000000I2180000J0D01*
G01*
X167180000Y-40000000D02*
G75*
G02*
X162820000Y-40000000I-2180000J0D01*
G01*
X162820000Y-40000000D02*
G75*
G02*
X167180000Y-40000000I2180000J0D01*
G01*
X172180000Y-40000000D02*
G75*
G02*
X167820000Y-40000000I-2180000J0D01*
G01*
X167820000Y-40000000D02*
G75*
G02*
X172180000Y-40000000I2180000J0D01*
G01*
X177180000Y-40000000D02*
G75*
G02*
X172820000Y-40000000I-2180000J0D01*
G01*
X172820000Y-40000000D02*
G75*
G02*
X177180000Y-40000000I2180000J0D01*
G01*
X182180000Y-40000000D02*
G75*
G02*
X177820000Y-40000000I-2180000J0D01*
G01*
X177820000Y-40000000D02*
G75*
G02*
X182180000Y-40000000I2180000J0D01*
G01*
X187180000Y-40000000D02*
G75*
G02*
X182820000Y-40000000I-2180000J0D01*
G01*
X182820000Y-40000000D02*
G75*
G02*
X187180000Y-40000000I2180000J0D01*
G01*
X192180000Y-40000000D02*
G75*
G02*
X187820000Y-40000000I-2180000J0D01*
G01*
X187820000Y-40000000D02*
G75*
G02*
X192180000Y-40000000I2180000J0D01*
G01*
X197180000Y-40000000D02*
G75*
G02*
X192820000Y-40000000I-2180000J0D01*
G01*
X192820000Y-40000000D02*
G75*
G02*
X197180000Y-40000000I2180000J0D01*
G01*
X202180000Y-40000000D02*
G75*
G02*
X197820000Y-40000000I-2180000J0D01*
G01*
X197820000Y-40000000D02*
G75*
G02*
X202180000Y-40000000I2180000J0D01*
G01*
X207180000Y-40000000D02*
G75*
G02*
X202820000Y-40000000I-2180000J0D01*
G01*
X202820000Y-40000000D02*
G75*
G02*
X207180000Y-40000000I2180000J0D01*
G01*
%TO.C,U5*%
X209182500Y-76865000D02*
X209182500Y-76630000D01*
X209182500Y-79610000D02*
X209182500Y-79135000D01*
X209657500Y-76390000D02*
X209482500Y-76390000D01*
X209657500Y-79610000D02*
X209182500Y-79610000D01*
X211927500Y-76390000D02*
X212402500Y-76390000D01*
X211927500Y-79610000D02*
X212402500Y-79610000D01*
X212402500Y-76390000D02*
X212402500Y-76865000D01*
X212402500Y-79610000D02*
X212402500Y-79135000D01*
X209182500Y-76390000D02*
X208942500Y-76060000D01*
X209422500Y-76060000D01*
X209182500Y-76390000D01*
G36*
X209182500Y-76390000D02*
G01*
X208942500Y-76060000D01*
X209422500Y-76060000D01*
X209182500Y-76390000D01*
G37*
%TO.C,M9*%
X205670000Y-63670000D02*
X207000000Y-63670000D01*
X205670000Y-65000000D02*
X205670000Y-63670000D01*
X205670000Y-66270000D02*
X205670000Y-73950000D01*
X205670000Y-66270000D02*
X208330000Y-66270000D01*
X205670000Y-73950000D02*
X208330000Y-73950000D01*
X208330000Y-66270000D02*
X208330000Y-73950000D01*
%TO.C,J4*%
X210140000Y-102690000D02*
X210140000Y-104110000D01*
X210140000Y-104110000D02*
X214640000Y-104110000D01*
X210140000Y-108890000D02*
X214640000Y-108890000D01*
X210140000Y-110310000D02*
X210140000Y-108890000D01*
X210450000Y-107450000D02*
X211050000Y-107750000D01*
X210450000Y-108050000D02*
X210450000Y-107450000D01*
X211050000Y-107750000D02*
X210450000Y-108050000D01*
X214640000Y-104110000D02*
X214640000Y-106500000D01*
X214640000Y-108890000D02*
X214640000Y-106500000D01*
X215750000Y-105000000D02*
X215750000Y-105500000D01*
X215750000Y-105500000D02*
X221250000Y-105500000D01*
X215750000Y-107500000D02*
X215750000Y-108000000D01*
X215750000Y-108000000D02*
X221250000Y-108000000D01*
X221250000Y-105000000D02*
X215750000Y-105000000D01*
X221250000Y-105500000D02*
X221250000Y-105000000D01*
X221250000Y-107500000D02*
X215750000Y-107500000D01*
X221250000Y-108000000D02*
X221250000Y-107500000D01*
X221860000Y-102690000D02*
X210140000Y-102690000D01*
X221860000Y-106500000D02*
X221860000Y-102690000D01*
X221860000Y-106500000D02*
X221860000Y-110310000D01*
X221860000Y-110310000D02*
X210140000Y-110310000D01*
%TO.C,D6*%
X149455000Y-100290000D02*
X152545000Y-100290000D01*
X149455170Y-100290000D02*
G75*
G02*
X151000462Y-94740000I1544830J2560000D01*
G01*
X150999538Y-94740000D02*
G75*
G02*
X152544830Y-100290000I462J-2990000D01*
G01*
X153500000Y-97730000D02*
G75*
G02*
X148500000Y-97730000I-2500000J0D01*
G01*
X148500000Y-97730000D02*
G75*
G02*
X153500000Y-97730000I2500000J0D01*
G01*
%TO.C,R8*%
X195630000Y-90810000D02*
X195630000Y-97350000D01*
X195630000Y-97350000D02*
X198370000Y-97350000D01*
X197000000Y-90040000D02*
X197000000Y-90810000D01*
X197000000Y-98120000D02*
X197000000Y-97350000D01*
X198370000Y-90810000D02*
X195630000Y-90810000D01*
X198370000Y-97350000D02*
X198370000Y-90810000D01*
%TO.C,D5*%
X206255556Y-48630000D02*
X207135556Y-48630000D01*
X206255556Y-56705000D02*
X211695556Y-56705000D01*
X206255556Y-56825000D02*
X211695556Y-56825000D01*
X206255556Y-56945000D02*
X211695556Y-56945000D01*
X206255556Y-58370000D02*
X206255556Y-48630000D01*
X207135556Y-58370000D02*
X206255556Y-58370000D01*
X210815556Y-58370000D02*
X211695556Y-58370000D01*
X211695556Y-48630000D02*
X210815556Y-48630000D01*
X211695556Y-58370000D02*
X211695556Y-48630000D01*
%TO.C,R23*%
X158630000Y-83230000D02*
X158630000Y-89770000D01*
X158630000Y-89770000D02*
X161370000Y-89770000D01*
X160000000Y-82460000D02*
X160000000Y-83230000D01*
X160000000Y-90540000D02*
X160000000Y-89770000D01*
X161370000Y-83230000D02*
X158630000Y-83230000D01*
X161370000Y-89770000D02*
X161370000Y-83230000D01*
%TO.C,R12*%
X182197500Y-95320000D02*
X182197500Y-101860000D01*
X182197500Y-101860000D02*
X184937500Y-101860000D01*
X183567500Y-94550000D02*
X183567500Y-95320000D01*
X183567500Y-102630000D02*
X183567500Y-101860000D01*
X184937500Y-95320000D02*
X182197500Y-95320000D01*
X184937500Y-101860000D02*
X184937500Y-95320000D01*
%TO.C,R14*%
X188547500Y-95320000D02*
X188547500Y-101860000D01*
X188547500Y-101860000D02*
X191287500Y-101860000D01*
X189917500Y-94550000D02*
X189917500Y-95320000D01*
X189917500Y-102630000D02*
X189917500Y-101860000D01*
X191287500Y-95320000D02*
X188547500Y-95320000D01*
X191287500Y-101860000D02*
X191287500Y-95320000D01*
%TO.C,Q3*%
X176629000Y-47880000D02*
X176629000Y-58120000D01*
X179760000Y-47880000D02*
X179760000Y-58120000D01*
X181270000Y-47880000D02*
X176629000Y-47880000D01*
X181270000Y-47880000D02*
X181270000Y-58120000D01*
X181270000Y-51150000D02*
X179760000Y-51150000D01*
X181270000Y-54851000D02*
X179760000Y-54851000D01*
X181270000Y-58120000D02*
X176629000Y-58120000D01*
%TO.C,R16*%
X172630000Y-82310000D02*
X172630000Y-88850000D01*
X172630000Y-88850000D02*
X175370000Y-88850000D01*
X174000000Y-81540000D02*
X174000000Y-82310000D01*
X174000000Y-89620000D02*
X174000000Y-88850000D01*
X175370000Y-82310000D02*
X172630000Y-82310000D01*
X175370000Y-88850000D02*
X175370000Y-82310000D01*
%TO.C,R5*%
X181130000Y-64310000D02*
X181130000Y-70850000D01*
X181130000Y-70850000D02*
X183870000Y-70850000D01*
X182500000Y-63540000D02*
X182500000Y-64310000D01*
X182500000Y-71620000D02*
X182500000Y-70850000D01*
X183870000Y-64310000D02*
X181130000Y-64310000D01*
X183870000Y-70850000D02*
X183870000Y-64310000D01*
%TO.C,R3*%
X155130000Y-108230000D02*
X155130000Y-114770000D01*
X155130000Y-114770000D02*
X157870000Y-114770000D01*
X156500000Y-107460000D02*
X156500000Y-108230000D01*
X156500000Y-115540000D02*
X156500000Y-114770000D01*
X157870000Y-108230000D02*
X155130000Y-108230000D01*
X157870000Y-114770000D02*
X157870000Y-108230000D01*
%TO.C,M4*%
X170670000Y-63670000D02*
X172000000Y-63670000D01*
X170670000Y-65000000D02*
X170670000Y-63670000D01*
X170670000Y-66270000D02*
X170670000Y-73950000D01*
X170670000Y-66270000D02*
X173330000Y-66270000D01*
X170670000Y-73950000D02*
X173330000Y-73950000D01*
X173330000Y-66270000D02*
X173330000Y-73950000D01*
%TO.C,C3*%
X180180000Y-81075000D02*
X180180000Y-80830000D01*
X180180000Y-83170000D02*
X180180000Y-82925000D01*
X183820000Y-80830000D02*
X180180000Y-80830000D01*
X183820000Y-81075000D02*
X183820000Y-80830000D01*
X183820000Y-83170000D02*
X180180000Y-83170000D01*
X183820000Y-83170000D02*
X183820000Y-82925000D01*
%TO.C,M1*%
X149670000Y-63670000D02*
X151000000Y-63670000D01*
X149670000Y-65000000D02*
X149670000Y-63670000D01*
X149670000Y-66270000D02*
X149670000Y-73950000D01*
X149670000Y-66270000D02*
X152330000Y-66270000D01*
X149670000Y-73950000D02*
X152330000Y-73950000D01*
X152330000Y-66270000D02*
X152330000Y-73950000D01*
%TO.C,Q1*%
X152604556Y-47420000D02*
X152604556Y-57660000D01*
X155735556Y-47420000D02*
X155735556Y-57660000D01*
X157245556Y-47420000D02*
X152604556Y-47420000D01*
X157245556Y-47420000D02*
X157245556Y-57660000D01*
X157245556Y-50690000D02*
X155735556Y-50690000D01*
X157245556Y-54391000D02*
X155735556Y-54391000D01*
X157245556Y-57660000D02*
X152604556Y-57660000D01*
%TO.C,D3*%
X182231111Y-48630000D02*
X183111111Y-48630000D01*
X182231111Y-56705000D02*
X187671111Y-56705000D01*
X182231111Y-56825000D02*
X187671111Y-56825000D01*
X182231111Y-56945000D02*
X187671111Y-56945000D01*
X182231111Y-58370000D02*
X182231111Y-48630000D01*
X183111111Y-58370000D02*
X182231111Y-58370000D01*
X186791111Y-58370000D02*
X187671111Y-58370000D01*
X187671111Y-48630000D02*
X186791111Y-48630000D01*
X187671111Y-58370000D02*
X187671111Y-48630000D01*
%TO.C,M10*%
X212670000Y-63670000D02*
X214000000Y-63670000D01*
X212670000Y-65000000D02*
X212670000Y-63670000D01*
X212670000Y-66270000D02*
X212670000Y-73950000D01*
X212670000Y-66270000D02*
X215330000Y-66270000D01*
X212670000Y-73950000D02*
X215330000Y-73950000D01*
X215330000Y-66270000D02*
X215330000Y-73950000D01*
%TO.C,R13*%
X185372500Y-95320000D02*
X185372500Y-101860000D01*
X185372500Y-101860000D02*
X188112500Y-101860000D01*
X186742500Y-94550000D02*
X186742500Y-95320000D01*
X186742500Y-102630000D02*
X186742500Y-101860000D01*
X188112500Y-95320000D02*
X185372500Y-95320000D01*
X188112500Y-101860000D02*
X188112500Y-95320000D01*
%TO.C,U2*%
X164160000Y-82130000D02*
X164160000Y-117810000D01*
X164160000Y-117810000D02*
X169460000Y-117810000D01*
X165810000Y-82130000D02*
X164160000Y-82130000D01*
X169460000Y-82130000D02*
X167810000Y-82130000D01*
X169460000Y-117810000D02*
X169460000Y-82130000D01*
X167810000Y-82130000D02*
G75*
G02*
X165810000Y-82130000I-1000000J0D01*
G01*
%TO.C,Q2*%
X164616778Y-47880000D02*
X164616778Y-58120000D01*
X167747778Y-47880000D02*
X167747778Y-58120000D01*
X169257778Y-47880000D02*
X164616778Y-47880000D01*
X169257778Y-47880000D02*
X169257778Y-58120000D01*
X169257778Y-51150000D02*
X167747778Y-51150000D01*
X169257778Y-54851000D02*
X167747778Y-54851000D01*
X169257778Y-58120000D02*
X164616778Y-58120000D01*
%TO.C,M7*%
X191670000Y-63670000D02*
X193000000Y-63670000D01*
X191670000Y-65000000D02*
X191670000Y-63670000D01*
X191670000Y-66270000D02*
X191670000Y-73950000D01*
X191670000Y-66270000D02*
X194330000Y-66270000D01*
X191670000Y-73950000D02*
X194330000Y-73950000D01*
X194330000Y-66270000D02*
X194330000Y-73950000D01*
%TO.C,D7*%
X149455000Y-93830000D02*
X152545000Y-93830000D01*
X149455170Y-93830000D02*
G75*
G02*
X151000462Y-88280000I1544830J2560000D01*
G01*
X150999538Y-88280000D02*
G75*
G02*
X152544830Y-93830000I462J-2990000D01*
G01*
X153500000Y-91270000D02*
G75*
G02*
X148500000Y-91270000I-2500000J0D01*
G01*
X148500000Y-91270000D02*
G75*
G02*
X153500000Y-91270000I2500000J0D01*
G01*
%TO.C,M5*%
X177670000Y-63670000D02*
X179000000Y-63670000D01*
X177670000Y-65000000D02*
X177670000Y-63670000D01*
X177670000Y-66270000D02*
X177670000Y-73950000D01*
X177670000Y-66270000D02*
X180330000Y-66270000D01*
X177670000Y-73950000D02*
X180330000Y-73950000D01*
X180330000Y-66270000D02*
X180330000Y-73950000D01*
%TO.C,Q4*%
X188641222Y-47880000D02*
X188641222Y-58120000D01*
X191772222Y-47880000D02*
X191772222Y-58120000D01*
X193282222Y-47880000D02*
X188641222Y-47880000D01*
X193282222Y-47880000D02*
X193282222Y-58120000D01*
X193282222Y-51150000D02*
X191772222Y-51150000D01*
X193282222Y-54851000D02*
X191772222Y-54851000D01*
X193282222Y-58120000D02*
X188641222Y-58120000D01*
%TO.C,D2*%
X170218889Y-48630000D02*
X171098889Y-48630000D01*
X170218889Y-56705000D02*
X175658889Y-56705000D01*
X170218889Y-56825000D02*
X175658889Y-56825000D01*
X170218889Y-56945000D02*
X175658889Y-56945000D01*
X170218889Y-58370000D02*
X170218889Y-48630000D01*
X171098889Y-58370000D02*
X170218889Y-58370000D01*
X174778889Y-58370000D02*
X175658889Y-58370000D01*
X175658889Y-48630000D02*
X174778889Y-48630000D01*
X175658889Y-58370000D02*
X175658889Y-48630000D01*
%TO.C,D4*%
X194243333Y-48630000D02*
X195123333Y-48630000D01*
X194243333Y-56705000D02*
X199683333Y-56705000D01*
X194243333Y-56825000D02*
X199683333Y-56825000D01*
X194243333Y-56945000D02*
X199683333Y-56945000D01*
X194243333Y-58370000D02*
X194243333Y-48630000D01*
X195123333Y-58370000D02*
X194243333Y-58370000D01*
X198803333Y-58370000D02*
X199683333Y-58370000D01*
X199683333Y-48630000D02*
X198803333Y-48630000D01*
X199683333Y-58370000D02*
X199683333Y-48630000D01*
%TO.C,R9*%
X192630000Y-90810000D02*
X192630000Y-97350000D01*
X192630000Y-97350000D02*
X195370000Y-97350000D01*
X194000000Y-90040000D02*
X194000000Y-90810000D01*
X194000000Y-98120000D02*
X194000000Y-97350000D01*
X195370000Y-90810000D02*
X192630000Y-90810000D01*
X195370000Y-97350000D02*
X195370000Y-90810000D01*
%TO.C,C1*%
X158830000Y-100430000D02*
X159075000Y-100430000D01*
X158830000Y-104070000D02*
X158830000Y-100430000D01*
X158830000Y-104070000D02*
X159075000Y-104070000D01*
X160925000Y-100430000D02*
X161170000Y-100430000D01*
X160925000Y-104070000D02*
X161170000Y-104070000D01*
X161170000Y-104070000D02*
X161170000Y-100430000D01*
%TO.C,R21*%
X151130000Y-78150000D02*
X151130000Y-84690000D01*
X151130000Y-84690000D02*
X153870000Y-84690000D01*
X152500000Y-77380000D02*
X152500000Y-78150000D01*
X152500000Y-85460000D02*
X152500000Y-84690000D01*
X153870000Y-78150000D02*
X151130000Y-78150000D01*
X153870000Y-84690000D02*
X153870000Y-78150000D01*
%TO.C,J5*%
X142140000Y-102440000D02*
X153860000Y-102440000D01*
X142140000Y-106250000D02*
X142140000Y-102440000D01*
X142140000Y-106250000D02*
X142140000Y-110060000D01*
X142140000Y-110060000D02*
X153860000Y-110060000D01*
X142750000Y-104750000D02*
X142750000Y-105250000D01*
X142750000Y-105250000D02*
X148250000Y-105250000D01*
X142750000Y-107250000D02*
X142750000Y-107750000D01*
X142750000Y-107750000D02*
X148250000Y-107750000D01*
X148250000Y-104750000D02*
X142750000Y-104750000D01*
X148250000Y-105250000D02*
X148250000Y-104750000D01*
X148250000Y-107250000D02*
X142750000Y-107250000D01*
X148250000Y-107750000D02*
X148250000Y-107250000D01*
X149360000Y-103860000D02*
X149360000Y-106250000D01*
X149360000Y-108640000D02*
X149360000Y-106250000D01*
X152950000Y-105000000D02*
X153550000Y-104700000D01*
X153550000Y-104700000D02*
X153550000Y-105300000D01*
X153550000Y-105300000D02*
X152950000Y-105000000D01*
X153860000Y-102440000D02*
X153860000Y-103860000D01*
X153860000Y-103860000D02*
X149360000Y-103860000D01*
X153860000Y-108640000D02*
X149360000Y-108640000D01*
X153860000Y-110060000D02*
X153860000Y-108640000D01*
%TO.C,U4*%
X159640000Y-75847500D02*
X160115000Y-75847500D01*
X159640000Y-76322500D02*
X159640000Y-75847500D01*
X159640000Y-78592500D02*
X159640000Y-79067500D01*
X159640000Y-79067500D02*
X160115000Y-79067500D01*
X162385000Y-75847500D02*
X162620000Y-75847500D01*
X162860000Y-76322500D02*
X162860000Y-76147500D01*
X162860000Y-78592500D02*
X162860000Y-79067500D01*
X162860000Y-79067500D02*
X162385000Y-79067500D01*
X163190000Y-76087500D02*
X162860000Y-75847500D01*
X163190000Y-75607500D01*
X163190000Y-76087500D01*
G36*
X163190000Y-76087500D02*
G01*
X162860000Y-75847500D01*
X163190000Y-75607500D01*
X163190000Y-76087500D01*
G37*
%TO.C,M3*%
X163670000Y-63670000D02*
X165000000Y-63670000D01*
X163670000Y-65000000D02*
X163670000Y-63670000D01*
X163670000Y-66270000D02*
X163670000Y-73950000D01*
X163670000Y-66270000D02*
X166330000Y-66270000D01*
X163670000Y-73950000D02*
X166330000Y-73950000D01*
X166330000Y-66270000D02*
X166330000Y-73950000D01*
%TO.C,R15*%
X175630000Y-82310000D02*
X175630000Y-88850000D01*
X175630000Y-88850000D02*
X178370000Y-88850000D01*
X177000000Y-81540000D02*
X177000000Y-82310000D01*
X177000000Y-89620000D02*
X177000000Y-88850000D01*
X178370000Y-82310000D02*
X175630000Y-82310000D01*
X178370000Y-88850000D02*
X178370000Y-82310000D01*
%TO.C,R10*%
X204630000Y-109730000D02*
X204630000Y-116270000D01*
X204630000Y-116270000D02*
X207370000Y-116270000D01*
X206000000Y-108960000D02*
X206000000Y-109730000D01*
X206000000Y-117040000D02*
X206000000Y-116270000D01*
X207370000Y-109730000D02*
X204630000Y-109730000D01*
X207370000Y-116270000D02*
X207370000Y-109730000D01*
%TO.C,D1*%
X158206667Y-48630000D02*
X159086667Y-48630000D01*
X158206667Y-56705000D02*
X163646667Y-56705000D01*
X158206667Y-56825000D02*
X163646667Y-56825000D01*
X158206667Y-56945000D02*
X163646667Y-56945000D01*
X158206667Y-58370000D02*
X158206667Y-48630000D01*
X159086667Y-58370000D02*
X158206667Y-58370000D01*
X162766667Y-58370000D02*
X163646667Y-58370000D01*
X163646667Y-48630000D02*
X162766667Y-48630000D01*
X163646667Y-58370000D02*
X163646667Y-48630000D01*
%TO.C,Q5*%
X200653444Y-47880000D02*
X200653444Y-58120000D01*
X203784444Y-47880000D02*
X203784444Y-58120000D01*
X205294444Y-47880000D02*
X200653444Y-47880000D01*
X205294444Y-47880000D02*
X205294444Y-58120000D01*
X205294444Y-51150000D02*
X203784444Y-51150000D01*
X205294444Y-54851000D02*
X203784444Y-54851000D01*
X205294444Y-58120000D02*
X200653444Y-58120000D01*
%TO.C,R7*%
X209130000Y-64810000D02*
X209130000Y-71350000D01*
X209130000Y-71350000D02*
X211870000Y-71350000D01*
X210500000Y-64040000D02*
X210500000Y-64810000D01*
X210500000Y-72120000D02*
X210500000Y-71350000D01*
X211870000Y-64810000D02*
X209130000Y-64810000D01*
X211870000Y-71350000D02*
X211870000Y-64810000D01*
%TO.C,R17*%
X179022500Y-95320000D02*
X179022500Y-101860000D01*
X179022500Y-101860000D02*
X181762500Y-101860000D01*
X180392500Y-94550000D02*
X180392500Y-95320000D01*
X180392500Y-102630000D02*
X180392500Y-101860000D01*
X181762500Y-95320000D02*
X179022500Y-95320000D01*
X181762500Y-101860000D02*
X181762500Y-95320000D01*
%TO.C,J10*%
X173380000Y-109500000D02*
X173380000Y-110500000D01*
X173380000Y-110500000D02*
X173880000Y-110000000D01*
X173880000Y-110000000D02*
X173380000Y-109500000D01*
X174065000Y-106120000D02*
X174065000Y-124080000D01*
X174065000Y-124080000D02*
X189585000Y-124080000D01*
X189585000Y-106120000D02*
X174065000Y-106120000D01*
X189585000Y-106120000D02*
X189585000Y-124080000D01*
%TO.C,C2*%
X180180000Y-78325000D02*
X180180000Y-78080000D01*
X180180000Y-80420000D02*
X180180000Y-80175000D01*
X183820000Y-78080000D02*
X180180000Y-78080000D01*
X183820000Y-78325000D02*
X183820000Y-78080000D01*
X183820000Y-80420000D02*
X180180000Y-80420000D01*
X183820000Y-80420000D02*
X183820000Y-80175000D01*
%TO.C,R4*%
X158630000Y-108230000D02*
X158630000Y-114770000D01*
X158630000Y-114770000D02*
X161370000Y-114770000D01*
X160000000Y-107460000D02*
X160000000Y-108230000D01*
X160000000Y-115540000D02*
X160000000Y-114770000D01*
X161370000Y-108230000D02*
X158630000Y-108230000D01*
X161370000Y-114770000D02*
X161370000Y-108230000D01*
%TO.C,R25*%
X213630000Y-91730000D02*
X213630000Y-98270000D01*
X213630000Y-98270000D02*
X216370000Y-98270000D01*
X215000000Y-90960000D02*
X215000000Y-91730000D01*
X215000000Y-99040000D02*
X215000000Y-98270000D01*
X216370000Y-91730000D02*
X213630000Y-91730000D01*
X216370000Y-98270000D02*
X216370000Y-91730000D01*
%TO.C,U1*%
X186715000Y-79077500D02*
X186990000Y-79077500D01*
X186715000Y-81387500D02*
X186715000Y-79077500D01*
X186715000Y-81387500D02*
X186715000Y-83697500D01*
X186715000Y-83697500D02*
X186990000Y-83697500D01*
X196635000Y-79077500D02*
X196360000Y-79077500D01*
X196635000Y-81387500D02*
X196635000Y-79077500D01*
X196635000Y-81387500D02*
X196635000Y-83697500D01*
X196635000Y-83697500D02*
X196360000Y-83697500D01*
X186990000Y-84287500D02*
X186660000Y-84527500D01*
X186660000Y-84047500D01*
X186990000Y-84287500D01*
G36*
X186990000Y-84287500D02*
G01*
X186660000Y-84527500D01*
X186660000Y-84047500D01*
X186990000Y-84287500D01*
G37*
%TO.C,R18*%
X175847500Y-95320000D02*
X175847500Y-101860000D01*
X175847500Y-101860000D02*
X178587500Y-101860000D01*
X177217500Y-94550000D02*
X177217500Y-95320000D01*
X177217500Y-102630000D02*
X177217500Y-101860000D01*
X178587500Y-95320000D02*
X175847500Y-95320000D01*
X178587500Y-101860000D02*
X178587500Y-95320000D01*
%TO.C,M6*%
X184670000Y-63670000D02*
X186000000Y-63670000D01*
X184670000Y-65000000D02*
X184670000Y-63670000D01*
X184670000Y-66270000D02*
X184670000Y-73950000D01*
X184670000Y-66270000D02*
X187330000Y-66270000D01*
X184670000Y-73950000D02*
X187330000Y-73950000D01*
X187330000Y-66270000D02*
X187330000Y-73950000D01*
%TO.C,M8*%
X198670000Y-63670000D02*
X200000000Y-63670000D01*
X198670000Y-65000000D02*
X198670000Y-63670000D01*
X198670000Y-66270000D02*
X198670000Y-73950000D01*
X198670000Y-66270000D02*
X201330000Y-66270000D01*
X198670000Y-73950000D02*
X201330000Y-73950000D01*
X201330000Y-66270000D02*
X201330000Y-73950000D01*
%TO.C,R20*%
X148024119Y-78150000D02*
X148024119Y-84690000D01*
X148024119Y-84690000D02*
X150764119Y-84690000D01*
X149394119Y-77380000D02*
X149394119Y-78150000D01*
X149394119Y-85460000D02*
X149394119Y-84690000D01*
X150764119Y-78150000D02*
X148024119Y-78150000D01*
X150764119Y-84690000D02*
X150764119Y-78150000D01*
%TO.C,R22*%
X155130000Y-83230000D02*
X155130000Y-89770000D01*
X155130000Y-89770000D02*
X157870000Y-89770000D01*
X156500000Y-82460000D02*
X156500000Y-83230000D01*
X156500000Y-90540000D02*
X156500000Y-89770000D01*
X157870000Y-83230000D02*
X155130000Y-83230000D01*
X157870000Y-89770000D02*
X157870000Y-83230000D01*
%TO.C,R1*%
X153130000Y-64230000D02*
X153130000Y-70770000D01*
X153130000Y-70770000D02*
X155870000Y-70770000D01*
X154500000Y-63460000D02*
X154500000Y-64230000D01*
X154500000Y-71540000D02*
X154500000Y-70770000D01*
X155870000Y-64230000D02*
X153130000Y-64230000D01*
X155870000Y-70770000D02*
X155870000Y-64230000D01*
%TO.C,R24*%
X213630000Y-78730000D02*
X213630000Y-85270000D01*
X213630000Y-85270000D02*
X216370000Y-85270000D01*
X215000000Y-77960000D02*
X215000000Y-78730000D01*
X215000000Y-86040000D02*
X215000000Y-85270000D01*
X216370000Y-78730000D02*
X213630000Y-78730000D01*
X216370000Y-85270000D02*
X216370000Y-78730000D01*
%TO.C,R6*%
X195130000Y-64810000D02*
X195130000Y-71350000D01*
X195130000Y-71350000D02*
X197870000Y-71350000D01*
X196500000Y-64040000D02*
X196500000Y-64810000D01*
X196500000Y-72120000D02*
X196500000Y-71350000D01*
X197870000Y-64810000D02*
X195130000Y-64810000D01*
X197870000Y-71350000D02*
X197870000Y-64810000D01*
%TO.C,M2*%
X156670000Y-63670000D02*
X158000000Y-63670000D01*
X156670000Y-65000000D02*
X156670000Y-63670000D01*
X156670000Y-66270000D02*
X156670000Y-73950000D01*
X156670000Y-66270000D02*
X159330000Y-66270000D01*
X156670000Y-73950000D02*
X159330000Y-73950000D01*
X159330000Y-66270000D02*
X159330000Y-73950000D01*
%TO.C,J7*%
X197670000Y-78670000D02*
X199000000Y-78670000D01*
X197670000Y-80000000D02*
X197670000Y-78670000D01*
X197670000Y-81270000D02*
X197670000Y-86410000D01*
X197670000Y-81270000D02*
X200330000Y-81270000D01*
X197670000Y-86410000D02*
X200330000Y-86410000D01*
X200330000Y-81270000D02*
X200330000Y-86410000D01*
%TO.C,R2*%
X167130000Y-64310000D02*
X167130000Y-70850000D01*
X167130000Y-70850000D02*
X169870000Y-70850000D01*
X168500000Y-63540000D02*
X168500000Y-64310000D01*
X168500000Y-71620000D02*
X168500000Y-70850000D01*
X169870000Y-64310000D02*
X167130000Y-64310000D01*
X169870000Y-70850000D02*
X169870000Y-64310000D01*
%TD*%
M02*
