%TF.GenerationSoftware,KiCad,Pcbnew,8.0.4*%
%TF.CreationDate,2025-03-04T01:03:37-06:00*%
%TF.ProjectId,hand_pcb,68616e64-5f70-4636-922e-6b696361645f,rev?*%
%TF.SameCoordinates,Original*%
%TF.FileFunction,Soldermask,Top*%
%TF.FilePolarity,Negative*%
%FSLAX46Y46*%
G04 Gerber Fmt 4.6, Leading zero omitted, Abs format (unit mm)*
G04 Created by KiCad (PCBNEW 8.0.4) date 2025-03-04 01:03:37*
%MOMM*%
%LPD*%
G01*
G04 APERTURE LIST*
G04 Aperture macros list*
%AMRoundRect*
0 Rectangle with rounded corners*
0 $1 Rounding radius*
0 $2 $3 $4 $5 $6 $7 $8 $9 X,Y pos of 4 corners*
0 Add a 4 corners polygon primitive as box body*
4,1,4,$2,$3,$4,$5,$6,$7,$8,$9,$2,$3,0*
0 Add four circle primitives for the rounded corners*
1,1,$1+$1,$2,$3*
1,1,$1+$1,$4,$5*
1,1,$1+$1,$6,$7*
1,1,$1+$1,$8,$9*
0 Add four rect primitives between the rounded corners*
20,1,$1+$1,$2,$3,$4,$5,0*
20,1,$1+$1,$4,$5,$6,$7,0*
20,1,$1+$1,$6,$7,$8,$9,0*
20,1,$1+$1,$8,$9,$2,$3,0*%
G04 Aperture macros list end*
%ADD10C,1.600000*%
%ADD11O,1.600000X1.600000*%
%ADD12C,3.000000*%
%ADD13RoundRect,0.250001X1.099999X1.599999X-1.099999X1.599999X-1.099999X-1.599999X1.099999X-1.599999X0*%
%ADD14O,2.700000X3.700000*%
%ADD15R,0.250000X1.100000*%
%ADD16R,2.600000X2.600000*%
%ADD17C,2.600000*%
%ADD18RoundRect,0.062500X-0.355000X-0.062500X0.355000X-0.062500X0.355000X0.062500X-0.355000X0.062500X0*%
%ADD19RoundRect,0.062500X-0.062500X-0.355000X0.062500X-0.355000X0.062500X0.355000X-0.062500X0.355000X0*%
%ADD20R,1.680000X1.680000*%
%ADD21R,1.700000X1.700000*%
%ADD22O,1.700000X1.700000*%
%ADD23C,3.200000*%
%ADD24RoundRect,0.250000X0.750000X-0.600000X0.750000X0.600000X-0.750000X0.600000X-0.750000X-0.600000X0*%
%ADD25O,2.000000X1.700000*%
%ADD26R,1.800000X1.800000*%
%ADD27C,1.800000*%
%ADD28R,3.200000X3.200000*%
%ADD29O,3.200000X3.200000*%
%ADD30R,2.000000X1.905000*%
%ADD31O,2.000000X1.905000*%
%ADD32R,1.600000X1.600000*%
%ADD33RoundRect,0.250000X-0.750000X0.600000X-0.750000X-0.600000X0.750000X-0.600000X0.750000X0.600000X0*%
%ADD34RoundRect,0.062500X-0.062500X0.355000X-0.062500X-0.355000X0.062500X-0.355000X0.062500X0.355000X0*%
%ADD35RoundRect,0.062500X-0.355000X0.062500X-0.355000X-0.062500X0.355000X-0.062500X0.355000X0.062500X0*%
%ADD36R,1.500000X1.500000*%
%ADD37C,1.500000*%
%ADD38RoundRect,0.100000X0.100000X-0.637500X0.100000X0.637500X-0.100000X0.637500X-0.100000X-0.637500X0*%
G04 APERTURE END LIST*
D10*
%TO.C,R11*%
X156500000Y-93920000D03*
D11*
X156500000Y-104080000D03*
%TD*%
D12*
%TO.C,J9*%
X196902500Y-117500000D03*
D13*
X199002500Y-110200000D03*
D14*
X194802500Y-110200000D03*
X199002500Y-104700000D03*
X194802500Y-104700000D03*
%TD*%
D15*
%TO.C,U3*%
X182949695Y-85350000D03*
X182449695Y-85350000D03*
X181949695Y-85350000D03*
X181449695Y-85350000D03*
X180949695Y-85350000D03*
X180949695Y-89650000D03*
X181449695Y-89650000D03*
X181949695Y-89650000D03*
X182449695Y-89650000D03*
X182949695Y-89650000D03*
%TD*%
D10*
%TO.C,R19*%
X174042500Y-103670000D03*
D11*
X174042500Y-93510000D03*
%TD*%
D16*
%TO.C,J1*%
X205000000Y-40000000D03*
D17*
X200000000Y-40000000D03*
X195000000Y-40000000D03*
X190000000Y-40000000D03*
X185000000Y-40000000D03*
X180000000Y-40000000D03*
X175000000Y-40000000D03*
X170000000Y-40000000D03*
X165000000Y-40000000D03*
X160000000Y-40000000D03*
%TD*%
D18*
%TO.C,U5*%
X209335000Y-77250000D03*
X209335000Y-77750000D03*
X209335000Y-78250000D03*
X209335000Y-78750000D03*
D19*
X210042500Y-79457500D03*
X210542500Y-79457500D03*
X211042500Y-79457500D03*
X211542500Y-79457500D03*
D18*
X212250000Y-78750000D03*
X212250000Y-78250000D03*
X212250000Y-77750000D03*
X212250000Y-77250000D03*
D19*
X211542500Y-76542500D03*
X211042500Y-76542500D03*
X210542500Y-76542500D03*
X210042500Y-76542500D03*
D20*
X210792500Y-78000000D03*
%TD*%
D21*
%TO.C,M9*%
X207000000Y-65000000D03*
D22*
X207000000Y-67540000D03*
X207000000Y-70080000D03*
X207000000Y-72620000D03*
%TD*%
D23*
%TO.C,H4*%
X151000000Y-39000000D03*
%TD*%
D24*
%TO.C,J4*%
X212550000Y-107750000D03*
D25*
X212550000Y-105250000D03*
%TD*%
D26*
%TO.C,D6*%
X151000000Y-99000000D03*
D27*
X151000000Y-96460000D03*
%TD*%
D23*
%TO.C,H1*%
X151000000Y-115000000D03*
%TD*%
D10*
%TO.C,R8*%
X197000000Y-89000000D03*
D11*
X197000000Y-99160000D03*
%TD*%
D28*
%TO.C,D5*%
X208975556Y-59850000D03*
D29*
X208975556Y-47150000D03*
%TD*%
D10*
%TO.C,R23*%
X160000000Y-91580000D03*
D11*
X160000000Y-81420000D03*
%TD*%
D10*
%TO.C,R12*%
X183567500Y-93510000D03*
D11*
X183567500Y-103670000D03*
%TD*%
D10*
%TO.C,R14*%
X189917500Y-93510000D03*
D11*
X189917500Y-103670000D03*
%TD*%
D23*
%TO.C,H3*%
X213000000Y-39000000D03*
%TD*%
D30*
%TO.C,Q3*%
X178000000Y-50460000D03*
D31*
X178000000Y-53000000D03*
X178000000Y-55540000D03*
%TD*%
D10*
%TO.C,R16*%
X174000000Y-80500000D03*
D11*
X174000000Y-90660000D03*
%TD*%
D10*
%TO.C,R5*%
X182500000Y-72660000D03*
D11*
X182500000Y-62500000D03*
%TD*%
D10*
%TO.C,R3*%
X156500000Y-116580000D03*
D11*
X156500000Y-106420000D03*
%TD*%
D21*
%TO.C,M4*%
X172000000Y-65000000D03*
D22*
X172000000Y-67540000D03*
X172000000Y-70080000D03*
X172000000Y-72620000D03*
%TD*%
D10*
%TO.C,C3*%
X183250000Y-82000000D03*
X180750000Y-82000000D03*
%TD*%
D21*
%TO.C,M1*%
X151000000Y-65000000D03*
D22*
X151000000Y-67540000D03*
X151000000Y-70080000D03*
X151000000Y-72620000D03*
%TD*%
D30*
%TO.C,Q1*%
X153975556Y-50000000D03*
D31*
X153975556Y-52540000D03*
X153975556Y-55080000D03*
%TD*%
D28*
%TO.C,D3*%
X184951111Y-59850000D03*
D29*
X184951111Y-47150000D03*
%TD*%
D21*
%TO.C,M10*%
X214000000Y-65000000D03*
D22*
X214000000Y-67540000D03*
X214000000Y-70080000D03*
X214000000Y-72620000D03*
%TD*%
D10*
%TO.C,R13*%
X186742500Y-103670000D03*
D11*
X186742500Y-93510000D03*
%TD*%
D32*
%TO.C,U2*%
X163000000Y-83460000D03*
D11*
X163000000Y-86000000D03*
X163000000Y-88540000D03*
X163000000Y-91080000D03*
X163000000Y-93620000D03*
X163000000Y-96160000D03*
X163000000Y-98700000D03*
X163000000Y-101240000D03*
X163000000Y-103780000D03*
X163000000Y-106320000D03*
X163000000Y-108860000D03*
X163000000Y-111400000D03*
X163000000Y-113940000D03*
X163000000Y-116480000D03*
X170620000Y-116480000D03*
X170620000Y-113940000D03*
X170620000Y-111400000D03*
X170620000Y-108860000D03*
X170620000Y-106320000D03*
X170620000Y-103780000D03*
X170620000Y-101240000D03*
X170620000Y-98700000D03*
X170620000Y-96160000D03*
X170620000Y-93620000D03*
X170620000Y-91080000D03*
X170620000Y-88540000D03*
X170620000Y-86000000D03*
X170620000Y-83460000D03*
%TD*%
D30*
%TO.C,Q2*%
X165987778Y-50460000D03*
D31*
X165987778Y-53000000D03*
X165987778Y-55540000D03*
%TD*%
D21*
%TO.C,M7*%
X193000000Y-65000000D03*
D22*
X193000000Y-67540000D03*
X193000000Y-70080000D03*
X193000000Y-72620000D03*
%TD*%
D26*
%TO.C,D7*%
X151000000Y-92540000D03*
D27*
X151000000Y-90000000D03*
%TD*%
D21*
%TO.C,M5*%
X179000000Y-65000000D03*
D22*
X179000000Y-67540000D03*
X179000000Y-70080000D03*
X179000000Y-72620000D03*
%TD*%
D30*
%TO.C,Q4*%
X190012222Y-50460000D03*
D31*
X190012222Y-53000000D03*
X190012222Y-55540000D03*
%TD*%
D28*
%TO.C,D2*%
X172938889Y-59850000D03*
D29*
X172938889Y-47150000D03*
%TD*%
D28*
%TO.C,D4*%
X196963333Y-59850000D03*
D29*
X196963333Y-47150000D03*
%TD*%
D10*
%TO.C,R9*%
X194000000Y-89000000D03*
D11*
X194000000Y-99160000D03*
%TD*%
D10*
%TO.C,C1*%
X160000000Y-103500000D03*
X160000000Y-101000000D03*
%TD*%
%TO.C,R21*%
X152500000Y-76340000D03*
D11*
X152500000Y-86500000D03*
%TD*%
D33*
%TO.C,J5*%
X151450000Y-105000000D03*
D25*
X151450000Y-107500000D03*
%TD*%
D34*
%TO.C,U4*%
X162000000Y-76000000D03*
X161500000Y-76000000D03*
X161000000Y-76000000D03*
X160500000Y-76000000D03*
D35*
X159792500Y-76707500D03*
X159792500Y-77207500D03*
X159792500Y-77707500D03*
X159792500Y-78207500D03*
D34*
X160500000Y-78915000D03*
X161000000Y-78915000D03*
X161500000Y-78915000D03*
X162000000Y-78915000D03*
D35*
X162707500Y-78207500D03*
X162707500Y-77707500D03*
X162707500Y-77207500D03*
X162707500Y-76707500D03*
D20*
X161250000Y-77457500D03*
%TD*%
D21*
%TO.C,M3*%
X165000000Y-65000000D03*
D22*
X165000000Y-67540000D03*
X165000000Y-70080000D03*
X165000000Y-72620000D03*
%TD*%
D10*
%TO.C,R15*%
X177000000Y-90660000D03*
D11*
X177000000Y-80500000D03*
%TD*%
D10*
%TO.C,R10*%
X206000000Y-118080000D03*
D11*
X206000000Y-107920000D03*
%TD*%
D28*
%TO.C,D1*%
X160926667Y-59850000D03*
D29*
X160926667Y-47150000D03*
%TD*%
D30*
%TO.C,Q5*%
X202024444Y-50460000D03*
D31*
X202024444Y-53000000D03*
X202024444Y-55540000D03*
%TD*%
D10*
%TO.C,R7*%
X210500000Y-73160000D03*
D11*
X210500000Y-63000000D03*
%TD*%
D10*
%TO.C,R17*%
X180392500Y-103670000D03*
D11*
X180392500Y-93510000D03*
%TD*%
D23*
%TO.C,J10*%
X176110000Y-116350000D03*
X187540000Y-116350000D03*
D36*
X177380000Y-110000000D03*
D37*
X178650000Y-107460000D03*
X179920000Y-110000000D03*
X181190000Y-107460000D03*
X182460000Y-110000000D03*
X183730000Y-107460000D03*
X185000000Y-110000000D03*
X186270000Y-107460000D03*
%TD*%
D10*
%TO.C,C2*%
X183250000Y-79250000D03*
X180750000Y-79250000D03*
%TD*%
%TO.C,R4*%
X160000000Y-116580000D03*
D11*
X160000000Y-106420000D03*
%TD*%
D10*
%TO.C,R25*%
X215000000Y-89920000D03*
D11*
X215000000Y-100080000D03*
%TD*%
D38*
%TO.C,U1*%
X187450000Y-84250000D03*
X188100000Y-84250000D03*
X188750000Y-84250000D03*
X189400000Y-84250000D03*
X190050000Y-84250000D03*
X190700000Y-84250000D03*
X191350000Y-84250000D03*
X192000000Y-84250000D03*
X192650000Y-84250000D03*
X193300000Y-84250000D03*
X193950000Y-84250000D03*
X194600000Y-84250000D03*
X195250000Y-84250000D03*
X195900000Y-84250000D03*
X195900000Y-78525000D03*
X195250000Y-78525000D03*
X194600000Y-78525000D03*
X193950000Y-78525000D03*
X193300000Y-78525000D03*
X192650000Y-78525000D03*
X192000000Y-78525000D03*
X191350000Y-78525000D03*
X190700000Y-78525000D03*
X190050000Y-78525000D03*
X189400000Y-78525000D03*
X188750000Y-78525000D03*
X188100000Y-78525000D03*
X187450000Y-78525000D03*
%TD*%
D10*
%TO.C,R18*%
X177217500Y-93510000D03*
D11*
X177217500Y-103670000D03*
%TD*%
D21*
%TO.C,M6*%
X186000000Y-65000000D03*
D22*
X186000000Y-67540000D03*
X186000000Y-70080000D03*
X186000000Y-72620000D03*
%TD*%
D23*
%TO.C,H2*%
X213000000Y-115000000D03*
%TD*%
D21*
%TO.C,M8*%
X200000000Y-65000000D03*
D22*
X200000000Y-67540000D03*
X200000000Y-70080000D03*
X200000000Y-72620000D03*
%TD*%
D10*
%TO.C,R20*%
X149394119Y-86500000D03*
D11*
X149394119Y-76340000D03*
%TD*%
D10*
%TO.C,R22*%
X156500000Y-81420000D03*
D11*
X156500000Y-91580000D03*
%TD*%
D10*
%TO.C,R1*%
X154500000Y-72580000D03*
D11*
X154500000Y-62420000D03*
%TD*%
D10*
%TO.C,R24*%
X215000000Y-87080000D03*
D11*
X215000000Y-76920000D03*
%TD*%
D10*
%TO.C,R6*%
X196500000Y-73160000D03*
D11*
X196500000Y-63000000D03*
%TD*%
D21*
%TO.C,M2*%
X158000000Y-65000000D03*
D22*
X158000000Y-67540000D03*
X158000000Y-70080000D03*
X158000000Y-72620000D03*
%TD*%
D21*
%TO.C,J7*%
X199000000Y-80000000D03*
D22*
X199000000Y-82540000D03*
X199000000Y-85080000D03*
%TD*%
D10*
%TO.C,R2*%
X168500000Y-72660000D03*
D11*
X168500000Y-62500000D03*
%TD*%
M02*
