M48
; DRILL file {KiCad 8.0.4} date 2024-12-05T04:30:46-0600
; FORMAT={-:-/ absolute / inch / decimal}
; #@! TF.CreationDate,2024-12-05T04:30:46-06:00
; #@! TF.GenerationSoftware,Kicad,Pcbnew,8.0.4
; #@! TF.FileFunction,Plated,1,2,PTH
FMAT,2
INCH
; #@! TA.AperFunction,Plated,PTH,ViaDrill
T1C0.0118
; #@! TA.AperFunction,Plated,PTH,ComponentDrill
T2C0.0276
; #@! TA.AperFunction,Plated,PTH,ComponentDrill
T3C0.0295
; #@! TA.AperFunction,Plated,PTH,ComponentDrill
T4C0.0299
; #@! TA.AperFunction,Plated,PTH,ComponentDrill
T5C0.0315
; #@! TA.AperFunction,Plated,PTH,ComponentDrill
T6C0.0354
; #@! TA.AperFunction,Plated,PTH,ComponentDrill
T7C0.0394
; #@! TA.AperFunction,Plated,PTH,ComponentDrill
T8C0.0433
; #@! TA.AperFunction,Plated,PTH,ComponentDrill
T9C0.0472
; #@! TA.AperFunction,Plated,PTH,ComponentDrill
T10C0.0512
; #@! TA.AperFunction,Plated,PTH,ComponentDrill
T11C0.0709
; #@! TA.AperFunction,Plated,PTH,ComponentDrill
T12C0.0730
%
G90
G05
T1
X2.55Y-4.9
X2.55Y-5.1154
X2.575Y-4.875
X2.575Y-5.175
X2.675Y-4.9
X2.675Y-5.125
X2.7Y-4.875
X2.7Y-5.1
X2.775Y-3.925
X2.8Y-3.95
X2.81Y-4.15
X2.85Y-1.775
X2.86Y-4.18
X2.91Y-4.21
X2.925Y-2.25
X2.925Y-2.55
X2.9492Y-2.875
X2.95Y-3.35
X2.9993Y-4.0354
X3.0Y-3.675
X3.0Y-3.8
X3.0Y-4.2644
X3.05Y-2.625
X3.05Y-5.475
X3.075Y-2.6
X3.075Y-5.5
X3.125Y-3.3
X3.125Y-3.35
X3.125Y-3.4
X3.125Y-5.125
X3.125Y-5.175
X3.125Y-5.225
X3.15Y-3.325
X3.15Y-3.375
X3.15Y-5.15
X3.15Y-5.2
X3.175Y-3.3
X3.175Y-3.35
X3.175Y-3.4
X3.175Y-5.125
X3.175Y-5.175
X3.175Y-5.225
X3.2Y-3.325
X3.2Y-3.375
X3.2Y-5.15
X3.2Y-5.2
X3.225Y-3.3
X3.225Y-3.35
X3.225Y-3.4
X3.225Y-5.125
X3.225Y-5.175
X3.225Y-5.225
X3.275Y-5.475
X3.3Y-4.0
X3.3Y-5.5
X3.35Y-2.625
X3.35Y-4.225
X3.375Y-2.6
X3.375Y-3.7244
X3.375Y-3.7559
X3.4375Y-2.0861
X3.4616Y-4.4613
X3.475Y-4.725
X3.475Y-4.9
X3.5132Y-4.1904
X3.5133Y-4.2801
X3.525Y-4.725
X3.525Y-4.875
X3.575Y-2.05
X3.6Y-2.075
X3.775Y-4.525
X3.925Y-2.05
X3.95Y-2.075
X4.075Y-2.425
X4.1Y-2.45
X4.5Y-4.175
X4.525Y-4.75
X4.525Y-4.8
X4.525Y-4.875
X4.55Y-4.775
X4.55Y-4.825
X4.55Y-4.9
X4.8Y-4.775
X4.8Y-4.825
X4.8Y-4.9
X4.8123Y-5.3377
X4.825Y-4.75
X4.825Y-4.8
X4.825Y-4.875
X4.95Y-5.275
X5.1148Y-5.65
X5.35Y-4.875
X5.45Y-4.9
X5.6Y-2.45
X5.625Y-2.425
X5.675Y-2.05
X5.675Y-2.1
X5.675Y-2.975
X5.675Y-3.25
X5.7Y-2.95
X5.7Y-3.225
X5.8Y-2.425
X5.825Y-2.45
X6.75Y-4.925
X6.75Y-4.975
X6.75Y-5.1
X6.775Y-4.9
X6.775Y-4.95
X6.775Y-5.075
X7.225Y-1.525
X7.225Y-1.575
X7.225Y-4.925
X7.225Y-4.975
X7.225Y-5.1
X7.25Y-1.55
X7.25Y-1.6
X7.25Y-4.9
X7.25Y-4.95
X7.25Y-5.075
X7.5Y-1.525
X7.5Y-1.575
X7.525Y-1.55
X7.525Y-1.6
X8.125Y-1.525
X8.125Y-1.575
X8.15Y-1.55
X8.15Y-1.6
X8.225Y-4.925
X8.225Y-4.975
X8.25Y-4.9
X8.25Y-4.95
X8.25Y-5.1
X8.275Y-5.075
X8.325Y-3.225
X8.325Y-3.275
X8.325Y-3.325
X8.35Y-3.25
X8.35Y-3.3
X8.375Y-3.225
X8.375Y-3.275
X8.375Y-3.325
X8.4Y-1.525
X8.4Y-3.25
X8.4Y-3.3
X8.425Y-1.55
X8.425Y-2.25
X8.425Y-3.225
X8.425Y-3.275
X8.425Y-3.325
X8.475Y-2.125
X8.5Y-2.15
X8.5Y-4.925
X8.5Y-4.975
X8.525Y-4.9
X8.525Y-4.95
X8.575Y-2.05
X8.6Y-1.575
X8.625Y-1.6
X8.625Y-2.7
X8.625Y-2.75
X8.625Y-2.8
X8.65Y-2.725
X8.65Y-2.775
X8.675Y-2.7
X8.675Y-2.75
X8.675Y-2.8
X8.7Y-2.725
X8.7Y-2.775
X8.725Y-2.7
X8.725Y-2.75
X8.725Y-2.8
X8.725Y-3.775
X8.725Y-4.825
X8.75Y-3.8
X8.75Y-4.85
X8.95Y-2.775
X8.95Y-3.275
X8.975Y-2.25
X8.975Y-2.45
T2
X2.8758Y-3.05
X2.8758Y-3.525
X2.925Y-4.325
X2.925Y-4.4234
X2.9742Y-3.05
X2.9742Y-3.525
X3.2402Y-2.3848
X3.3098Y-2.3152
X3.35Y-4.3508
X3.35Y-4.4492
X3.35Y-4.5758
X3.35Y-4.6742
X4.8008Y-5.45
X4.8992Y-5.45
X5.0646Y-5.55
X5.0654Y-5.45
X5.163Y-5.55
X5.1638Y-5.45
X8.4081Y-1.9251
X8.4081Y-2.0236
X8.9214Y-2.5989
X8.9258Y-3.1063
X9.0198Y-2.5989
X9.0242Y-3.1063
T3
X4.7896Y-5.575
X4.8396Y-5.575
X4.8896Y-5.575
T4
X2.3508Y-2.0406
X2.3508Y-2.1406
X2.3508Y-2.2406
X2.3508Y-2.3406
X2.4508Y-2.0906
X2.4508Y-2.1906
X2.4508Y-2.2906
X2.4508Y-2.3906
X9.4Y-2.05
X9.4Y-2.15
X9.4Y-2.25
X9.4Y-2.35
X9.5Y-2.1
X9.5Y-2.2
X9.5Y-2.3
X9.5Y-2.4
T5
X2.4797Y-5.75
X2.4797Y-5.875
X2.675Y-1.8521
X2.675Y-1.9771
X2.675Y-2.1021
X2.675Y-2.2271
X2.675Y-2.3521
X2.675Y-2.4771
X2.8797Y-5.75
X2.8797Y-5.875
X3.075Y-1.8521
X3.075Y-1.9771
X3.075Y-2.1021
X3.075Y-2.2271
X3.075Y-2.3521
X3.075Y-2.4771
X3.625Y-4.475
X3.625Y-4.6
X3.975Y-5.15
X3.975Y-5.275
X3.975Y-5.4
X3.975Y-5.525
X4.025Y-4.475
X4.025Y-4.6
X4.375Y-5.15
X4.375Y-5.275
X4.375Y-5.4
X4.375Y-5.525
X4.65Y-5.25
X4.65Y-5.65
X5.325Y-4.25
X5.325Y-4.65
X5.45Y-4.25
X5.45Y-4.65
X7.1809Y-1.7442
X7.2198Y-3.4441
X7.2395Y-4.5011
X7.2395Y-4.6389
X7.2493Y-4.3299
X7.2543Y-2.7792
X7.2543Y-2.917
X7.2551Y-2.5942
X7.315Y-3.7591
X7.325Y-2.0442
X7.3477Y-4.3299
X7.3535Y-2.5942
X7.3576Y-3.4441
X7.3777Y-1.7442
X7.4135Y-3.7591
X7.4234Y-2.0442
X8.7758Y-1.8564
X8.7758Y-1.9814
X8.7758Y-2.1064
X8.7758Y-2.2314
X8.7758Y-2.3564
X8.7758Y-2.4814
X9.1758Y-1.8564
X9.1758Y-1.9814
X9.1758Y-2.1064
X9.1758Y-2.2314
X9.1758Y-2.3564
X9.1758Y-2.4814
T6
X2.4797Y-5.55
X2.5797Y-5.55
X2.775Y-5.55
X2.875Y-5.55
T7
X2.475Y-1.65
X2.575Y-1.65
X2.675Y-1.65
X2.775Y-1.65
X2.875Y-1.65
X2.975Y-1.65
X3.075Y-1.65
X3.175Y-1.65
X3.675Y-2.4244
X3.675Y-2.5244
X3.675Y-2.6244
X3.675Y-2.7244
X3.675Y-2.8244
X3.675Y-2.9244
X3.675Y-3.0244
X3.675Y-3.1244
X3.675Y-3.2244
X3.675Y-3.3244
X3.675Y-3.4244
X3.675Y-3.5244
X3.675Y-3.6244
X3.675Y-3.7244
X3.675Y-3.8244
X3.675Y-3.9244
X3.675Y-4.0244
X3.675Y-4.1244
X3.675Y-4.2244
X3.675Y-4.3244
X3.775Y-2.4244
X3.775Y-2.5244
X3.775Y-2.6244
X3.775Y-2.7244
X3.775Y-2.8244
X3.775Y-2.9244
X3.775Y-3.0244
X3.775Y-3.1244
X3.775Y-3.2244
X3.775Y-3.3244
X3.775Y-3.4244
X3.775Y-3.5244
X3.775Y-3.6244
X3.775Y-3.7244
X3.775Y-3.8244
X3.775Y-3.9244
X3.775Y-4.0244
X3.775Y-4.1244
X3.775Y-4.2244
X3.775Y-4.3244
X5.25Y-5.1
X5.35Y-5.1
X5.45Y-5.1
X8.675Y-1.65
X8.775Y-1.65
X8.875Y-1.65
X8.975Y-1.65
X9.075Y-1.65
X9.175Y-1.65
X9.275Y-1.65
X9.375Y-1.65
T8
X7.2524Y-3.9463
X7.2524Y-4.0463
X7.2524Y-4.1463
X7.2543Y-2.2192
X7.2543Y-2.3192
X7.2543Y-2.4192
X7.3981Y-3.8963
X7.3981Y-3.9963
X7.3981Y-4.0963
X7.3981Y-4.1963
X7.4Y-2.1692
X7.4Y-2.2692
X7.4Y-2.3692
X7.4Y-2.4692
T9
X7.471Y-4.4284
X7.5043Y-2.6942
X8.071Y-4.4284
X8.1043Y-2.6942
T10
X2.1996Y-3.1831
X2.1996Y-3.3799
X2.1996Y-3.5768
X2.1996Y-3.7736
X2.1996Y-3.9705
X2.1996Y-4.1673
X2.1996Y-4.3642
X2.1996Y-4.561
X2.1996Y-4.7579
X2.2Y-5.0
X2.2Y-5.1969
X9.65Y-3.2
X9.65Y-3.3969
X9.65Y-3.6469
X9.65Y-3.8437
X9.65Y-4.0406
X9.65Y-4.2374
X9.65Y-4.4343
X9.65Y-4.6311
X9.65Y-4.828
X9.65Y-5.0248
X9.65Y-5.2217
T11
X2.3882Y-2.7343
X2.3882Y-2.8996
X2.6047Y-2.7343
X2.6047Y-2.8996
X7.5635Y-3.6463
X7.5793Y-1.9192
X8.095Y-3.6463
X8.1108Y-1.9192
X9.2461Y-2.7393
X9.2461Y-2.9046
X9.4626Y-2.7393
X9.4626Y-2.9046
T12
X5.8282Y-5.35
X6.2662Y-5.35
X6.7042Y-5.35
X7.1422Y-5.35
X7.5802Y-5.35
X8.0182Y-5.35
M30
