%TF.GenerationSoftware,KiCad,Pcbnew,8.0.4*%
%TF.CreationDate,2024-12-06T03:31:11-06:00*%
%TF.ProjectId,mainpcb,6d61696e-7063-4622-9e6b-696361645f70,rev?*%
%TF.SameCoordinates,Original*%
%TF.FileFunction,Soldermask,Bot*%
%TF.FilePolarity,Negative*%
%FSLAX46Y46*%
G04 Gerber Fmt 4.6, Leading zero omitted, Abs format (unit mm)*
G04 Created by KiCad (PCBNEW 8.0.4) date 2024-12-06 03:31:11*
%MOMM*%
%LPD*%
G01*
G04 APERTURE LIST*
G04 Aperture macros list*
%AMRoundRect*
0 Rectangle with rounded corners*
0 $1 Rounding radius*
0 $2 $3 $4 $5 $6 $7 $8 $9 X,Y pos of 4 corners*
0 Add a 4 corners polygon primitive as box body*
4,1,4,$2,$3,$4,$5,$6,$7,$8,$9,$2,$3,0*
0 Add four circle primitives for the rounded corners*
1,1,$1+$1,$2,$3*
1,1,$1+$1,$4,$5*
1,1,$1+$1,$6,$7*
1,1,$1+$1,$8,$9*
0 Add four rect primitives between the rounded corners*
20,1,$1+$1,$2,$3,$4,$5,0*
20,1,$1+$1,$4,$5,$6,$7,0*
20,1,$1+$1,$6,$7,$8,$9,0*
20,1,$1+$1,$8,$9,$2,$3,0*%
G04 Aperture macros list end*
%ADD10R,2.600000X2.600000*%
%ADD11C,2.600000*%
%ADD12C,1.600000*%
%ADD13O,1.600000X1.600000*%
%ADD14C,4.300000*%
%ADD15R,1.700000X1.700000*%
%ADD16O,1.700000X1.700000*%
%ADD17R,1.600000X1.600000*%
%ADD18O,1.800000X1.800000*%
%ADD19R,1.800000X1.800000*%
%ADD20C,1.400000*%
%ADD21C,4.500000*%
%ADD22C,2.700000*%
%ADD23C,3.600000*%
%ADD24R,2.400000X2.400000*%
%ADD25O,2.400000X2.400000*%
%ADD26C,1.500000*%
%ADD27R,1.500000X1.500000*%
%ADD28C,3.200000*%
%ADD29O,3.700000X2.700000*%
%ADD30RoundRect,0.250001X-1.599999X1.099999X-1.599999X-1.099999X1.599999X-1.099999X1.599999X1.099999X0*%
%ADD31C,3.000000*%
%ADD32R,1.050000X1.500000*%
%ADD33O,1.050000X1.500000*%
%ADD34RoundRect,0.250001X1.599999X-1.099999X1.599999X1.099999X-1.599999X1.099999X-1.599999X-1.099999X0*%
%ADD35C,1.800000*%
G04 APERTURE END LIST*
D10*
%TO.C,J9*%
X55880000Y-121960000D03*
D11*
X55880000Y-126960000D03*
%TD*%
D12*
%TO.C,R17*%
X118110000Y-133350000D03*
D13*
X118110000Y-143510000D03*
%TD*%
D12*
%TO.C,R22*%
X102235000Y-116840000D03*
D13*
X92075000Y-116840000D03*
%TD*%
D12*
%TO.C,R15*%
X67945000Y-47043562D03*
D13*
X78105000Y-47043562D03*
%TD*%
D12*
%TO.C,R2*%
X62985000Y-149225000D03*
D13*
X73145000Y-149225000D03*
%TD*%
D14*
%TO.C,H3*%
X246000000Y-37000000D03*
%TD*%
D12*
%TO.C,R7*%
X67945000Y-62918562D03*
D13*
X78105000Y-62918562D03*
%TD*%
D15*
%TO.C,J8*%
X138430000Y-129540000D03*
D16*
X135890000Y-129540000D03*
X133350000Y-129540000D03*
%TD*%
D17*
%TO.C,C6*%
X184259234Y-70590765D03*
D12*
X184259234Y-74090765D03*
%TD*%
D18*
%TO.C,U3*%
X187912200Y-98965450D03*
X184212200Y-100235450D03*
X187912200Y-101505450D03*
X184212200Y-102775450D03*
X187912200Y-104045450D03*
X184212200Y-105315450D03*
D19*
X187912200Y-106585450D03*
%TD*%
D20*
%TO.C,C13*%
X128660000Y-138430000D03*
X131160000Y-138430000D03*
%TD*%
%TO.C,C9*%
X84068884Y-58806116D03*
X82301117Y-60573883D03*
%TD*%
%TO.C,C24*%
X85090000Y-110510000D03*
X85090000Y-113010000D03*
%TD*%
%TO.C,C14*%
X75545000Y-77470000D03*
X73045000Y-77470000D03*
%TD*%
D12*
%TO.C,C2*%
X185802200Y-95480450D03*
X188302200Y-95480450D03*
%TD*%
D21*
%TO.C,J5*%
X203662000Y-135890000D03*
X192536800Y-135890000D03*
X181411600Y-135890000D03*
X170286400Y-135890000D03*
X159161200Y-135890000D03*
X148036000Y-135890000D03*
%TD*%
D17*
%TO.C,C5*%
X186882200Y-87480450D03*
D12*
X183382200Y-87480450D03*
%TD*%
%TO.C,R9*%
X138430000Y-107950000D03*
D13*
X138430000Y-118110000D03*
%TD*%
D20*
%TO.C,C15*%
X75545000Y-89535000D03*
X73045000Y-89535000D03*
%TD*%
D12*
%TO.C,R21*%
X111125000Y-133985000D03*
D13*
X100965000Y-133985000D03*
%TD*%
D15*
%TO.C,J6*%
X80645000Y-41910000D03*
D16*
X78105000Y-41910000D03*
X75565000Y-41910000D03*
X73025000Y-41910000D03*
X70485000Y-41910000D03*
X67945000Y-41910000D03*
X65405000Y-41910000D03*
X62865000Y-41910000D03*
%TD*%
D12*
%TO.C,R8*%
X233065000Y-47152500D03*
D13*
X222905000Y-47152500D03*
%TD*%
D12*
%TO.C,R13*%
X78105000Y-50218562D03*
D13*
X67945000Y-50218562D03*
%TD*%
D20*
%TO.C,C11*%
X121940000Y-138430000D03*
X124440000Y-138430000D03*
%TD*%
D12*
%TO.C,C8*%
X184279234Y-65893416D03*
X186779234Y-65893416D03*
%TD*%
D20*
%TO.C,C10*%
X213566116Y-51398349D03*
X213566116Y-48898349D03*
%TD*%
D12*
%TO.C,R3*%
X67945000Y-56568562D03*
D13*
X78105000Y-56568562D03*
%TD*%
D10*
%TO.C,J15*%
X245110000Y-86280000D03*
D11*
X245110000Y-81280000D03*
%TD*%
D22*
%TO.C,REF\u002A\u002A*%
X110695000Y-57820000D03*
%TD*%
D14*
%TO.C,H1*%
X56000000Y-37000000D03*
%TD*%
D23*
%TO.C,L1*%
X192112200Y-92615450D03*
X205612200Y-92615450D03*
%TD*%
D12*
%TO.C,R5*%
X78105000Y-59743562D03*
D13*
X67945000Y-59743562D03*
%TD*%
D18*
%TO.C,U4*%
X187959234Y-55098416D03*
X184259234Y-56368416D03*
X187959234Y-57638416D03*
X184259234Y-58908416D03*
X187959234Y-60178416D03*
X184259234Y-61448416D03*
D19*
X187959234Y-62718416D03*
%TD*%
D12*
%TO.C,R11*%
X67945000Y-53393562D03*
D13*
X78105000Y-53393562D03*
%TD*%
D23*
%TO.C,L2*%
X192514234Y-48748416D03*
X206014234Y-48748416D03*
%TD*%
D22*
%TO.C,REF\u002A\u002A*%
X159695000Y-57820000D03*
%TD*%
D12*
%TO.C,C7*%
X186055000Y-51923416D03*
X188555000Y-51923416D03*
%TD*%
%TO.C,R23*%
X102235000Y-113665000D03*
D13*
X92075000Y-113665000D03*
%TD*%
D12*
%TO.C,C18*%
X187394234Y-44303416D03*
X182394234Y-44303416D03*
%TD*%
D15*
%TO.C,J7*%
X220345000Y-41910000D03*
D16*
X222885000Y-41910000D03*
X225425000Y-41910000D03*
X227965000Y-41910000D03*
X230505000Y-41910000D03*
X233045000Y-41910000D03*
X235585000Y-41910000D03*
X238125000Y-41910000D03*
%TD*%
D20*
%TO.C,C23*%
X74295000Y-109855000D03*
X74295000Y-112355000D03*
%TD*%
D24*
%TO.C,D3*%
X189762200Y-112480450D03*
D25*
X205002200Y-112480450D03*
%TD*%
D26*
%TO.C,J2*%
X62250000Y-60721062D03*
X59710000Y-59451062D03*
X62250000Y-58181062D03*
X59710000Y-56911062D03*
X62250000Y-55641062D03*
X59710000Y-54371062D03*
X62250000Y-53101062D03*
D27*
X59710000Y-51831062D03*
D28*
X53360000Y-61991062D03*
X53360000Y-50561062D03*
%TD*%
D15*
%TO.C,J1*%
X93345000Y-109840000D03*
D16*
X95885000Y-109840000D03*
X93345000Y-107300000D03*
X95885000Y-107300000D03*
X93345000Y-104760000D03*
X95885000Y-104760000D03*
X93345000Y-102220000D03*
X95885000Y-102220000D03*
X93345000Y-99680000D03*
X95885000Y-99680000D03*
X93345000Y-97140000D03*
X95885000Y-97140000D03*
X93345000Y-94600000D03*
X95885000Y-94600000D03*
X93345000Y-92060000D03*
X95885000Y-92060000D03*
X93345000Y-89520000D03*
X95885000Y-89520000D03*
X93345000Y-86980000D03*
X95885000Y-86980000D03*
X93345000Y-84440000D03*
X95885000Y-84440000D03*
X93345000Y-81900000D03*
X95885000Y-81900000D03*
X93345000Y-79360000D03*
X95885000Y-79360000D03*
X93345000Y-76820000D03*
X95885000Y-76820000D03*
X93345000Y-74280000D03*
X95885000Y-74280000D03*
X93345000Y-71740000D03*
X95885000Y-71740000D03*
X93345000Y-69200000D03*
X95885000Y-69200000D03*
X93345000Y-66660000D03*
X95885000Y-66660000D03*
X93345000Y-64120000D03*
X95885000Y-64120000D03*
X93345000Y-61580000D03*
X95885000Y-61580000D03*
%TD*%
D17*
%TO.C,C3*%
X183882200Y-114327799D03*
D12*
X183882200Y-117827799D03*
%TD*%
D14*
%TO.C,H4*%
X246000000Y-147000000D03*
%TD*%
D12*
%TO.C,R4*%
X233065000Y-53502500D03*
D13*
X222905000Y-53502500D03*
%TD*%
D29*
%TO.C,J11*%
X234850000Y-73777500D03*
X234850000Y-69577500D03*
X240350000Y-73777500D03*
D30*
X240350000Y-69577500D03*
D31*
X247650000Y-71677500D03*
%TD*%
D32*
%TO.C,U10*%
X124195000Y-141605000D03*
D33*
X122925000Y-141605000D03*
X121655000Y-141605000D03*
%TD*%
D12*
%TO.C,R19*%
X100965000Y-130810000D03*
D13*
X111125000Y-130810000D03*
%TD*%
D12*
%TO.C,R1*%
X62985000Y-146050000D03*
D13*
X73145000Y-146050000D03*
%TD*%
D22*
%TO.C,REF\u002A\u002A*%
X110695000Y-115820000D03*
%TD*%
%TO.C,REF\u002A\u002A*%
X159695000Y-115820000D03*
%TD*%
D29*
%TO.C,J10*%
X66160000Y-69451062D03*
X66160000Y-73651062D03*
X60660000Y-69451062D03*
D34*
X60660000Y-73651062D03*
D31*
X53360000Y-71551062D03*
%TD*%
D14*
%TO.C,H2*%
X56000000Y-147000000D03*
%TD*%
D26*
%TO.C,J3*%
X238760000Y-52070000D03*
X241300000Y-53340000D03*
X238760000Y-54610000D03*
X241300000Y-55880000D03*
X238760000Y-57150000D03*
X241300000Y-58420000D03*
X238760000Y-59690000D03*
D27*
X241300000Y-60960000D03*
D28*
X247650000Y-50800000D03*
X247650000Y-62230000D03*
%TD*%
D19*
%TO.C,D1*%
X62985000Y-140970000D03*
D35*
X65525000Y-140970000D03*
%TD*%
D24*
%TO.C,D4*%
X190609234Y-68433416D03*
D25*
X205849234Y-68433416D03*
%TD*%
D12*
%TO.C,R16*%
X233065000Y-63027500D03*
D13*
X222905000Y-63027500D03*
%TD*%
D12*
%TO.C,R6*%
X222905000Y-50327500D03*
D13*
X233065000Y-50327500D03*
%TD*%
D12*
%TO.C,R20*%
X111125000Y-140335000D03*
D13*
X100965000Y-140335000D03*
%TD*%
D12*
%TO.C,R10*%
X135255000Y-118110000D03*
D13*
X135255000Y-107950000D03*
%TD*%
D12*
%TO.C,C4*%
X184132200Y-109980450D03*
X186632200Y-109980450D03*
%TD*%
%TO.C,R12*%
X233065000Y-56677500D03*
D13*
X222905000Y-56677500D03*
%TD*%
D20*
%TO.C,C12*%
X128640000Y-140970000D03*
X131140000Y-140970000D03*
%TD*%
%TO.C,C17*%
X226604000Y-66012500D03*
X229104000Y-66012500D03*
%TD*%
D12*
%TO.C,R14*%
X222905000Y-59852500D03*
D13*
X233065000Y-59852500D03*
%TD*%
D12*
%TO.C,R18*%
X100965000Y-137160000D03*
D13*
X111125000Y-137160000D03*
%TD*%
D20*
%TO.C,C1*%
X85090000Y-116225000D03*
X85090000Y-118725000D03*
%TD*%
D19*
%TO.C,D2*%
X70485000Y-140970000D03*
D35*
X73025000Y-140970000D03*
%TD*%
D20*
%TO.C,C16*%
X226715000Y-78900000D03*
X229215000Y-78900000D03*
%TD*%
D10*
%TO.C,J4*%
X55870000Y-80850000D03*
D11*
X55870000Y-85850000D03*
X55870000Y-90850000D03*
X55870000Y-95850000D03*
X55870000Y-100850000D03*
X55870000Y-105850000D03*
X55870000Y-110850000D03*
X55870000Y-115850000D03*
%TD*%
D10*
%TO.C,J13*%
X245110000Y-127710000D03*
D11*
X245110000Y-122710000D03*
X245110000Y-117710000D03*
X245110000Y-112710000D03*
X245110000Y-107710000D03*
X245110000Y-102710000D03*
X245110000Y-97710000D03*
X245110000Y-92710000D03*
%TD*%
M02*
